<?xml version="1.0" encoding="utf-8" standalone="no"?>
<!DOCTYPE svg PUBLIC "-//W3C//DTD SVG 1.1//EN"
  "http://www.w3.org/Graphics/SVG/1.1/DTD/svg11.dtd">
<svg xmlns:xlink="http://www.w3.org/1999/xlink" width="57.6pt" height="230.4pt" viewBox="0 0 57.6 230.4" xmlns="http://www.w3.org/2000/svg" version="1.1">
 <metadata>
  <rdf:RDF xmlns:dc="http://purl.org/dc/elements/1.1/" xmlns:cc="http://creativecommons.org/ns#" xmlns:rdf="http://www.w3.org/1999/02/22-rdf-syntax-ns#">
   <cc:Work>
    <dc:type rdf:resource="http://purl.org/dc/dcmitype/StillImage"/>
    <dc:date>2023-11-22T21:47:48.380948</dc:date>
    <dc:format>image/svg+xml</dc:format>
    <dc:creator>
     <cc:Agent>
      <dc:title>Matplotlib v3.5.1, https://matplotlib.org/</dc:title>
     </cc:Agent>
    </dc:creator>
   </cc:Work>
  </rdf:RDF>
 </metadata>
 <defs>
  <style type="text/css">*{stroke-linejoin: round; stroke-linecap: butt}</style>
 </defs>
 <g id="figure_1">
  <g id="patch_1">
   <path d="M 0 230.4 
L 57.6 230.4 
L 57.6 0 
L 0 0 
z
" style="fill: #ffffff"/>
  </g>
  <g id="axes_1">
   <g id="patch_2">
    <path d="M 7.2 66.214957 
L 51.84 66.214957 
L 51.84 27.648 
L 7.2 27.648 
z
" style="fill: #ffffff"/>
   </g>
   <g id="line2d_1">
    <path d="M 7.2 66.214957 
L 51.84 66.214957 
" clip-path="url(#pc2a3e990fa)" style="fill: none; stroke: #000000; stroke-width: 0.5; stroke-linecap: square"/>
   </g>
   <g id="patch_3">
    <path d="M 18.081 51.599231 
Q 18.081 55.218363 17.706812 57.965191 
Q 17.336187 60.70274 16.637703 62.530866 
Q 15.942782 64.358991 14.937819 65.286974 
Q 13.93642 66.214957 12.689126 66.214957 
Q 11.288593 66.214957 10.28363 65.286974 
Q 9.282231 64.358991 8.658584 62.623664 
Q 8.034937 60.879057 7.756968 58.382783 
Q 7.479 55.88651 7.479 52.787048 
L 7.479 27.648 
L 10.219483 27.648 
L 10.219483 52.350897 
Q 10.219483 54.262541 10.347776 55.747313 
Q 10.47607 57.222805 10.793239 58.252866 
Q 11.110408 59.282927 11.587943 59.802597 
Q 12.065479 60.322267 12.792473 60.322267 
Q 13.469575 60.322267 13.93642 59.876835 
Q 14.406828 59.431404 14.71687 58.429183 
Q 15.030475 57.426961 15.183714 55.858671 
Q 15.340517 54.29038 15.340517 52.063222 
L 15.340517 27.648 
L 18.081 27.648 
L 18.081 51.599231 
z
" clip-path="url(#pc2a3e990fa)" style="fill: #e42638"/>
   </g>
   <g id="patch_4">
    <path d="M 29.241 51.599231 
Q 29.241 55.218363 28.866812 57.965191 
Q 28.496187 60.70274 27.797703 62.530866 
Q 27.102782 64.358991 26.097819 65.286974 
Q 25.09642 66.214957 23.849126 66.214957 
Q 22.448593 66.214957 21.44363 65.286974 
Q 20.442231 64.358991 19.818584 62.623664 
Q 19.194937 60.879057 18.916968 58.382783 
Q 18.639 55.88651 18.639 52.787048 
L 18.639 27.648 
L 21.379483 27.648 
L 21.379483 52.350897 
Q 21.379483 54.262541 21.507776 55.747313 
Q 21.63607 57.222805 21.953239 58.252866 
Q 22.270408 59.282927 22.747943 59.802597 
Q 23.225479 60.322267 23.952473 60.322267 
Q 24.629575 60.322267 25.09642 59.876835 
Q 25.566828 59.431404 25.87687 58.429183 
Q 26.190475 57.426961 26.343714 55.858671 
Q 26.500517 54.29038 26.500517 52.063222 
L 26.500517 27.648 
L 29.241 27.648 
L 29.241 51.599231 
z
" clip-path="url(#pc2a3e990fa)" style="fill: #e42638"/>
   </g>
   <g id="patch_5">
    <path d="M 35.405959 49.784064 
L 35.405959 43.98761 
L 40.401 43.98761 
L 40.401 63.878118 
Q 39.434994 65.073922 38.383045 65.639875 
Q 37.331095 66.214957 36.093508 66.214957 
Q 34.632467 66.214957 33.467072 65.019153 
Q 32.301677 63.814221 31.483494 61.449998 
Q 30.668749 59.085775 30.232156 55.580518 
Q 29.799 52.066132 29.799 47.447226 
Q 29.799 42.791806 30.25622 39.113112 
Q 30.71344 35.434417 31.586626 32.887629 
Q 32.463251 30.331712 33.735216 28.989856 
Q 35.010619 27.648 36.643547 27.648 
Q 37.609553 27.648 38.52743 28.095285 
Q 39.445307 28.533443 40.359747 29.272833 
L 40.359747 36.201192 
Q 39.565628 35.206211 38.60306 34.567231 
Q 37.640492 33.919124 36.664173 33.919124 
Q 35.674103 33.919124 34.9178 34.831951 
Q 34.161496 35.744779 33.649272 37.433509 
Q 33.140486 39.113112 32.87578 41.568617 
Q 32.614512 44.024123 32.614512 47.100351 
Q 32.614512 50.06704 32.817339 52.44952 
Q 33.020165 54.831999 33.477385 56.502473 
Q 33.934605 58.172947 34.653093 59.05839 
Q 35.375019 59.934704 36.406342 59.934704 
Q 36.65386 59.934704 36.83606 59.898191 
Q 37.018261 59.85255 37.179835 59.770395 
Q 37.341409 59.679113 37.485794 59.569573 
Q 37.630179 59.450906 37.791753 59.313982 
L 37.791753 49.784064 
L 35.405959 49.784064 
z
" clip-path="url(#pc2a3e990fa)" style="fill: #f5b328"/>
   </g>
   <g id="patch_6">
    <path d="M 46.565959 49.784064 
L 46.565959 43.98761 
L 51.561 43.98761 
L 51.561 63.878118 
Q 50.594994 65.073922 49.543045 65.639875 
Q 48.491095 66.214957 47.253508 66.214957 
Q 45.792467 66.214957 44.627072 65.019153 
Q 43.461677 63.814221 42.643494 61.449998 
Q 41.828749 59.085775 41.392156 55.580518 
Q 40.959 52.066132 40.959 47.447226 
Q 40.959 42.791806 41.41622 39.113112 
Q 41.87344 35.434417 42.746626 32.887629 
Q 43.623251 30.331712 44.895216 28.989856 
Q 46.170619 27.648 47.803547 27.648 
Q 48.769553 27.648 49.68743 28.095285 
Q 50.605307 28.533443 51.519747 29.272833 
L 51.519747 36.201192 
Q 50.725628 35.206211 49.76306 34.567231 
Q 48.800492 33.919124 47.824173 33.919124 
Q 46.834103 33.919124 46.0778 34.831951 
Q 45.321496 35.744779 44.809272 37.433509 
Q 44.300486 39.113112 44.03578 41.568617 
Q 43.774512 44.024123 43.774512 47.100351 
Q 43.774512 50.06704 43.977339 52.44952 
Q 44.180165 54.831999 44.637385 56.502473 
Q 45.094605 58.172947 45.813093 59.05839 
Q 46.535019 59.934704 47.566342 59.934704 
Q 47.81386 59.934704 47.99606 59.898191 
Q 48.178261 59.85255 48.339835 59.770395 
Q 48.501409 59.679113 48.645794 59.569573 
Q 48.790179 59.450906 48.951753 59.313982 
L 48.951753 49.784064 
L 46.565959 49.784064 
z
" clip-path="url(#pc2a3e990fa)" style="fill: #f5b328"/>
   </g>
   <g id="matplotlib.axis_1">
    <g id="xtick_1">
     <g id="line2d_2">
      <defs>
       <path id="m3799b87a32" d="M 0 0 
L 0 3.5 
" style="stroke: #000000; stroke-width: 0.8"/>
      </defs>
      <g>
       <use xlink:href="#m3799b87a32" x="46.26" y="66.214957" style="stroke: #000000; stroke-width: 0.8"/>
      </g>
     </g>
    </g>
   </g>
   <g id="matplotlib.axis_2"/>
  </g>
  <g id="axes_2">
   <g id="patch_7">
    <path d="M 7.2 112.495304 
L 51.84 112.495304 
L 51.84 73.928348 
L 7.2 73.928348 
z
" style="fill: #ffffff"/>
   </g>
   <g id="line2d_3">
    <path d="M 7.2 86.908 
L 51.84 86.908 
" clip-path="url(#p04bc39dbe3)" style="fill: none; stroke: #000000; stroke-width: 0.5; stroke-linecap: square"/>
   </g>
   <g id="patch_8">
    <path d="M 18.081 87.034901 
Q 18.081 87.003478 17.706812 86.979628 
Q 17.336187 86.95586 16.637703 86.939987 
Q 15.942782 86.924114 14.937819 86.916057 
Q 13.93642 86.908 12.689126 86.908 
Q 11.288593 86.908 10.28363 86.916057 
Q 9.282231 86.924114 8.658584 86.939181 
Q 8.034937 86.954329 7.756968 86.976003 
Q 7.479 86.997676 7.479 87.024587 
L 7.479 87.242856 
L 10.219483 87.242856 
L 10.219483 87.028374 
Q 10.219483 87.011776 10.347776 86.998885 
Q 10.47607 86.986074 10.793239 86.977131 
Q 11.110408 86.968187 11.587943 86.963675 
Q 12.065479 86.959163 12.792473 86.959163 
Q 13.469575 86.959163 13.93642 86.963031 
Q 14.406828 86.966898 14.71687 86.9756 
Q 15.030475 86.984302 15.183714 86.997918 
Q 15.340517 87.011535 15.340517 87.030872 
L 15.340517 87.242856 
L 18.081 87.242856 
L 18.081 87.034901 
z
" clip-path="url(#p04bc39dbe3)" style="fill: #e42638"/>
   </g>
   <g id="patch_9">
    <path d="M 29.241 90.715909 
Q 29.241 89.772998 28.866812 89.057353 
Q 28.496187 88.344126 27.797703 87.867835 
Q 27.102782 87.391544 26.097819 87.149772 
Q 25.09642 86.908 23.849126 86.908 
Q 22.448593 86.908 21.44363 87.149772 
Q 20.442231 87.391544 19.818584 87.843658 
Q 19.194937 88.298189 18.916968 88.948556 
Q 18.639 89.598922 18.639 90.406441 
L 18.639 96.956044 
L 21.379483 96.956044 
L 21.379483 90.520074 
Q 21.379483 90.022023 21.507776 89.635188 
Q 21.63607 89.250771 21.953239 88.982404 
Q 22.270408 88.714037 22.747943 88.578645 
Q 23.225479 88.443252 23.952473 88.443252 
Q 24.629575 88.443252 25.09642 88.559303 
Q 25.566828 88.675353 25.87687 88.936467 
Q 26.190475 89.197581 26.343714 89.606176 
Q 26.500517 90.01477 26.500517 90.595023 
L 26.500517 96.956044 
L 29.241 96.956044 
L 29.241 90.715909 
z
" clip-path="url(#p04bc39dbe3)" style="fill: #e42638"/>
   </g>
   <g id="patch_10">
    <path d="M 35.405959 90.137127 
L 35.405959 91.276292 
L 40.401 91.276292 
L 40.401 87.367254 
Q 39.434994 87.132245 38.383045 87.02102 
Q 37.331095 86.908 36.093508 86.908 
Q 34.632467 86.908 33.467072 87.143009 
Q 32.301677 87.379811 31.483494 87.844447 
Q 30.668749 88.309083 30.232156 88.997963 
Q 29.799 89.688637 29.799 90.596381 
Q 29.799 91.5113 30.25622 92.234266 
Q 30.71344 92.957232 31.586626 93.457746 
Q 32.463251 93.960055 33.735216 94.223767 
Q 35.010619 94.487479 36.643547 94.487479 
Q 37.609553 94.487479 38.52743 94.399575 
Q 39.445307 94.313465 40.359747 94.168154 
L 40.359747 92.806539 
Q 39.565628 93.002081 38.60306 93.127658 
Q 37.640492 93.255029 36.664173 93.255029 
Q 35.674103 93.255029 34.9178 93.075633 
Q 34.161496 92.896237 33.649272 92.564355 
Q 33.140486 92.234266 32.87578 91.751691 
Q 32.614512 91.269116 32.614512 90.664551 
Q 32.614512 90.081515 32.817339 89.613291 
Q 33.020165 89.145068 33.477385 88.816773 
Q 33.934605 88.488478 34.653093 88.314464 
Q 35.375019 88.142244 36.406342 88.142244 
Q 36.65386 88.142244 36.83606 88.14942 
Q 37.018261 88.15839 37.179835 88.174536 
Q 37.341409 88.192475 37.485794 88.214003 
Q 37.630179 88.237324 37.791753 88.264234 
L 37.791753 90.137127 
L 35.405959 90.137127 
z
" clip-path="url(#p04bc39dbe3)" style="fill: #f5b328"/>
   </g>
   <g id="patch_11">
    <path d="M 46.565959 87.632099 
L 46.565959 87.887545 
L 51.561 87.887545 
L 51.561 87.010983 
Q 50.594994 86.958285 49.543045 86.933344 
Q 48.491095 86.908 47.253508 86.908 
Q 45.792467 86.908 44.627072 86.960698 
Q 43.461677 87.013799 42.643494 87.117989 
Q 41.828749 87.222178 41.392156 87.376653 
Q 40.959 87.531529 40.959 87.735082 
Q 40.959 87.940243 41.41622 88.10236 
Q 41.87344 88.264478 42.746626 88.376713 
Q 43.623251 88.489351 44.895216 88.548486 
Q 46.170619 88.60762 47.803547 88.60762 
Q 48.769553 88.60762 49.68743 88.587909 
Q 50.605307 88.568599 51.519747 88.536015 
L 51.519747 88.230687 
Q 50.725628 88.274535 49.76306 88.302694 
Q 48.800492 88.331256 47.824173 88.331256 
Q 46.834103 88.331256 46.0778 88.291028 
Q 45.321496 88.250801 44.809272 88.176379 
Q 44.300486 88.10236 44.03578 87.994148 
Q 43.774512 87.885935 43.774512 87.750368 
Q 43.774512 87.619628 43.977339 87.514634 
Q 44.180165 87.40964 44.637385 87.336023 
Q 45.094605 87.262406 45.813093 87.223385 
Q 46.535019 87.184767 47.566342 87.184767 
Q 47.81386 87.184767 47.99606 87.186376 
Q 48.178261 87.188387 48.339835 87.192008 
Q 48.501409 87.19603 48.645794 87.200858 
Q 48.790179 87.206087 48.951753 87.212122 
L 48.951753 87.632099 
L 46.565959 87.632099 
z
" clip-path="url(#p04bc39dbe3)" style="fill: #f5b328"/>
   </g>
   <g id="matplotlib.axis_3">
    <g id="xtick_2">
     <g id="line2d_4">
      <g>
       <use xlink:href="#m3799b87a32" x="46.26" y="112.495304" style="stroke: #000000; stroke-width: 0.8"/>
      </g>
     </g>
    </g>
   </g>
   <g id="matplotlib.axis_4">
    <g id="ytick_1">
     <g id="line2d_5">
      <defs>
       <path id="m742c6885db" d="M 0 0 
L 3.5 0 
" style="stroke: #000000; stroke-width: 0.8"/>
      </defs>
      <g>
       <use xlink:href="#m742c6885db" x="51.84" y="109.085954" style="stroke: #000000; stroke-width: 0.8"/>
      </g>
     </g>
     <g id="text_1">
      <!-- −1 -->
      <g transform="translate(58.84 112.672673)scale(0.1 -0.1)">
       <defs>
        <path id="Helvetica-2212" d="M 3547 1894 
L 3547 1369 
L 288 1369 
L 288 1894 
L 3547 1894 
z
" transform="scale(0.015625)"/>
        <path id="Helvetica-31" d="M 613 3169 
L 613 3600 
Q 1222 3659 1462 3798 
Q 1703 3938 1822 4456 
L 2266 4456 
L 2266 0 
L 1666 0 
L 1666 3169 
L 613 3169 
z
" transform="scale(0.015625)"/>
       </defs>
       <use xlink:href="#Helvetica-2212"/>
       <use xlink:href="#Helvetica-31" x="58.398438"/>
      </g>
     </g>
    </g>
    <g id="ytick_2">
     <g id="line2d_6">
      <g>
       <use xlink:href="#m742c6885db" x="51.84" y="86.908" style="stroke: #000000; stroke-width: 0.8"/>
      </g>
     </g>
     <g id="text_2">
      <!-- 0 -->
      <g transform="translate(58.84 90.494719)scale(0.1 -0.1)">
       <defs>
        <path id="Helvetica-30" d="M 1731 4475 
Q 2600 4475 2988 3759 
Q 3288 3206 3288 2244 
Q 3288 1331 3016 734 
Q 2622 -122 1728 -122 
Q 922 -122 528 578 
Q 200 1163 200 2147 
Q 200 2909 397 3456 
Q 766 4475 1731 4475 
z
M 1725 391 
Q 2163 391 2422 778 
Q 2681 1166 2681 2222 
Q 2681 2984 2493 3476 
Q 2306 3969 1766 3969 
Q 1269 3969 1039 3501 
Q 809 3034 809 2125 
Q 809 1441 956 1025 
Q 1181 391 1725 391 
z
" transform="scale(0.015625)"/>
       </defs>
       <use xlink:href="#Helvetica-30"/>
      </g>
     </g>
    </g>
    <g id="text_3">
     <!-- log2_MRL_2hpf -->
     <g transform="translate(-67.4 95.743076)scale(0.1 -0.1)">
      <defs>
       <path id="Helvetica-6c" d="M 428 4591 
L 991 4591 
L 991 0 
L 428 0 
L 428 4591 
z
" transform="scale(0.015625)"/>
       <path id="Helvetica-6f" d="M 1741 363 
Q 2300 363 2508 786 
Q 2716 1209 2716 1728 
Q 2716 2197 2566 2491 
Q 2328 2953 1747 2953 
Q 1231 2953 997 2559 
Q 763 2166 763 1609 
Q 763 1075 997 719 
Q 1231 363 1741 363 
z
M 1763 3444 
Q 2409 3444 2856 3012 
Q 3303 2581 3303 1744 
Q 3303 934 2909 406 
Q 2516 -122 1688 -122 
Q 997 -122 590 345 
Q 184 813 184 1600 
Q 184 2444 612 2944 
Q 1041 3444 1763 3444 
z
M 1744 3428 
L 1744 3428 
z
" transform="scale(0.015625)"/>
       <path id="Helvetica-67" d="M 1594 3406 
Q 1988 3406 2281 3213 
Q 2441 3103 2606 2894 
L 2606 3316 
L 3125 3316 
L 3125 272 
Q 3125 -366 2938 -734 
Q 2588 -1416 1616 -1416 
Q 1075 -1416 706 -1173 
Q 338 -931 294 -416 
L 866 -416 
Q 906 -641 1028 -763 
Q 1219 -950 1628 -950 
Q 2275 -950 2475 -494 
Q 2594 -225 2584 466 
Q 2416 209 2178 84 
Q 1941 -41 1550 -41 
Q 1006 -41 598 345 
Q 191 731 191 1622 
Q 191 2463 602 2934 
Q 1013 3406 1594 3406 
z
M 2606 1688 
Q 2606 2309 2350 2609 
Q 2094 2909 1697 2909 
Q 1103 2909 884 2353 
Q 769 2056 769 1575 
Q 769 1009 998 714 
Q 1228 419 1616 419 
Q 2222 419 2469 966 
Q 2606 1275 2606 1688 
z
M 1659 3428 
L 1659 3428 
z
" transform="scale(0.015625)"/>
       <path id="Helvetica-32" d="M 200 0 
Q 231 578 439 1006 
Q 647 1434 1250 1784 
L 1850 2131 
Q 2253 2366 2416 2531 
Q 2672 2791 2672 3125 
Q 2672 3516 2437 3745 
Q 2203 3975 1813 3975 
Q 1234 3975 1013 3538 
Q 894 3303 881 2888 
L 309 2888 
Q 319 3472 525 3841 
Q 891 4491 1816 4491 
Q 2584 4491 2939 4075 
Q 3294 3659 3294 3150 
Q 3294 2613 2916 2231 
Q 2697 2009 2131 1694 
L 1703 1456 
Q 1397 1288 1222 1134 
Q 909 863 828 531 
L 3272 531 
L 3272 0 
L 200 0 
z
" transform="scale(0.015625)"/>
       <path id="Helvetica-5f" d="M 0 -800 
L 0 -484 
L 3559 -484 
L 3559 -800 
L 0 -800 
z
" transform="scale(0.015625)"/>
       <path id="Helvetica-4d" d="M 472 4591 
L 1363 4591 
L 2681 709 
L 3991 4591 
L 4872 4591 
L 4872 0 
L 4281 0 
L 4281 2709 
Q 4281 2850 4287 3175 
Q 4294 3500 4294 3872 
L 2984 0 
L 2369 0 
L 1050 3872 
L 1050 3731 
Q 1050 3563 1058 3217 
Q 1066 2872 1066 2709 
L 1066 0 
L 472 0 
L 472 4591 
z
" transform="scale(0.015625)"/>
       <path id="Helvetica-52" d="M 2622 2488 
Q 3059 2488 3314 2663 
Q 3569 2838 3569 3294 
Q 3569 3784 3213 3963 
Q 3022 4056 2703 4056 
L 1184 4056 
L 1184 2488 
L 2622 2488 
z
M 563 4591 
L 2688 4591 
Q 3213 4591 3553 4438 
Q 4200 4144 4200 3353 
Q 4200 2941 4029 2678 
Q 3859 2416 3553 2256 
Q 3822 2147 3958 1969 
Q 4094 1791 4109 1391 
L 4131 775 
Q 4141 513 4175 384 
Q 4231 166 4375 103 
L 4375 0 
L 3613 0 
Q 3581 59 3562 153 
Q 3544 247 3531 516 
L 3494 1281 
Q 3472 1731 3159 1884 
Q 2981 1969 2600 1969 
L 1184 1969 
L 1184 0 
L 563 0 
L 563 4591 
z
" transform="scale(0.015625)"/>
       <path id="Helvetica-4c" d="M 488 4591 
L 1109 4591 
L 1109 547 
L 3434 547 
L 3434 0 
L 488 0 
L 488 4591 
z
" transform="scale(0.015625)"/>
       <path id="Helvetica-68" d="M 413 4606 
L 975 4606 
L 975 2894 
Q 1175 3147 1334 3250 
Q 1606 3428 2013 3428 
Q 2741 3428 3000 2919 
Q 3141 2641 3141 2147 
L 3141 0 
L 2563 0 
L 2563 2109 
Q 2563 2478 2469 2650 
Q 2316 2925 1894 2925 
Q 1544 2925 1259 2684 
Q 975 2444 975 1775 
L 975 0 
L 413 0 
L 413 4606 
z
" transform="scale(0.015625)"/>
       <path id="Helvetica-70" d="M 1825 378 
Q 2219 378 2480 708 
Q 2741 1038 2741 1694 
Q 2741 2094 2625 2381 
Q 2406 2934 1825 2934 
Q 1241 2934 1025 2350 
Q 909 2038 909 1556 
Q 909 1169 1025 897 
Q 1244 378 1825 378 
z
M 369 3331 
L 916 3331 
L 916 2888 
Q 1084 3116 1284 3241 
Q 1569 3428 1953 3428 
Q 2522 3428 2919 2992 
Q 3316 2556 3316 1747 
Q 3316 653 2744 184 
Q 2381 -113 1900 -113 
Q 1522 -113 1266 53 
Q 1116 147 931 375 
L 931 -1334 
L 369 -1334 
L 369 3331 
z
" transform="scale(0.015625)"/>
       <path id="Helvetica-66" d="M 553 3856 
Q 566 4206 675 4369 
Q 872 4656 1434 4656 
Q 1488 4656 1544 4653 
Q 1600 4650 1672 4644 
L 1672 4131 
Q 1584 4138 1545 4139 
Q 1506 4141 1472 4141 
Q 1216 4141 1166 4008 
Q 1116 3875 1116 3331 
L 1672 3331 
L 1672 2888 
L 1109 2888 
L 1109 0 
L 553 0 
L 553 2888 
L 88 2888 
L 88 3331 
L 553 3331 
L 553 3856 
z
" transform="scale(0.015625)"/>
      </defs>
      <use xlink:href="#Helvetica-6c"/>
      <use xlink:href="#Helvetica-6f" x="22.216797"/>
      <use xlink:href="#Helvetica-67" x="77.832031"/>
      <use xlink:href="#Helvetica-32" x="133.447266"/>
      <use xlink:href="#Helvetica-5f" x="189.0625"/>
      <use xlink:href="#Helvetica-4d" x="244.677734"/>
      <use xlink:href="#Helvetica-52" x="327.978516"/>
      <use xlink:href="#Helvetica-4c" x="400.195312"/>
      <use xlink:href="#Helvetica-5f" x="455.810547"/>
      <use xlink:href="#Helvetica-32" x="511.425781"/>
      <use xlink:href="#Helvetica-68" x="567.041016"/>
      <use xlink:href="#Helvetica-70" x="622.65625"/>
      <use xlink:href="#Helvetica-66" x="678.271484"/>
     </g>
    </g>
   </g>
   <g id="patch_12">
    <path d="M 51.84 112.495304 
L 51.84 73.928348 
" style="fill: none; stroke: #000000; stroke-linejoin: miter; stroke-linecap: square"/>
   </g>
  </g>
  <g id="axes_3">
   <g id="patch_13">
    <path d="M 7.2 158.775652 
L 51.84 158.775652 
L 51.84 120.208696 
L 7.2 120.208696 
z
" style="fill: #ffffff"/>
   </g>
   <g id="line2d_7">
    <path d="M 7.2 133.188348 
L 51.84 133.188348 
" clip-path="url(#p92cc4e3e55)" style="fill: none; stroke: #000000; stroke-width: 0.5; stroke-linecap: square"/>
   </g>
   <g id="patch_14">
    <path d="M 18.081 133.971134 
Q 18.081 133.777302 17.706812 133.630187 
Q 17.336187 133.48357 16.637703 133.38566 
Q 15.942782 133.287749 14.937819 133.238049 
Q 13.93642 133.188348 12.689126 133.188348 
Q 11.288593 133.188348 10.28363 133.238049 
Q 9.282231 133.287749 8.658584 133.38069 
Q 8.034937 133.474127 7.756968 133.607822 
Q 7.479 133.741517 7.479 133.907517 
L 7.479 135.25391 
L 10.219483 135.25391 
L 10.219483 133.930877 
Q 10.219483 133.828493 10.347776 133.748972 
Q 10.47607 133.669948 10.793239 133.61478 
Q 11.110408 133.559612 11.587943 133.53178 
Q 12.065479 133.503948 12.792473 133.503948 
Q 13.469575 133.503948 13.93642 133.527804 
Q 14.406828 133.55166 14.71687 133.605337 
Q 15.030475 133.659014 15.183714 133.743008 
Q 15.340517 133.827002 15.340517 133.946284 
L 15.340517 135.25391 
L 18.081 135.25391 
L 18.081 133.971134 
z
" clip-path="url(#p92cc4e3e55)" style="fill: #e42638"/>
   </g>
   <g id="patch_15">
    <path d="M 29.241 142.885173 
Q 29.241 140.484054 28.866812 138.661667 
Q 28.496187 136.845436 27.797703 135.632563 
Q 27.102782 134.419691 26.097819 133.804019 
Q 25.09642 133.188348 23.849126 133.188348 
Q 22.448593 133.188348 21.44363 133.804019 
Q 20.442231 134.419691 19.818584 135.570996 
Q 19.194937 136.728459 18.916968 138.384615 
Q 18.639 140.040771 18.639 142.097113 
L 18.639 158.775652 
L 21.379483 158.775652 
L 21.379483 142.386479 
Q 21.379483 141.118196 21.507776 140.133122 
Q 21.63607 139.154204 21.953239 138.470809 
Q 22.270408 137.787413 22.747943 137.442637 
Q 23.225479 137.097861 23.952473 137.097861 
Q 24.629575 137.097861 25.09642 137.393384 
Q 25.566828 137.688906 25.87687 138.353831 
Q 26.190475 139.018756 26.343714 140.059241 
Q 26.500517 141.099726 26.500517 142.577337 
L 26.500517 158.775652 
L 29.241 158.775652 
L 29.241 142.885173 
z
" clip-path="url(#p92cc4e3e55)" style="fill: #e42638"/>
   </g>
   <g id="patch_16">
    <path d="M 35.405959 139.3435 
L 35.405959 141.514901 
L 40.401 141.514901 
L 40.401 134.063747 
Q 39.434994 133.615789 38.383045 133.403778 
Q 37.331095 133.188348 36.093508 133.188348 
Q 34.632467 133.188348 33.467072 133.636306 
Q 32.301677 134.087684 31.483494 134.973342 
Q 30.668749 135.859 30.232156 137.172099 
Q 29.799 138.488618 29.799 140.2189 
Q 29.799 141.96286 30.25622 143.34093 
Q 30.71344 144.719 31.586626 145.673049 
Q 32.463251 146.630517 33.735216 147.133188 
Q 35.010619 147.635858 36.643547 147.635858 
Q 37.609553 147.635858 38.52743 147.468301 
Q 39.445307 147.304164 40.359747 147.027182 
L 40.359747 144.43176 
Q 39.565628 144.804488 38.60306 145.043855 
Q 37.640492 145.286642 36.664173 145.286642 
Q 35.674103 145.286642 34.9178 144.944689 
Q 34.161496 144.602736 33.649272 143.970123 
Q 33.140486 143.34093 32.87578 142.421077 
Q 32.614512 141.501223 32.614512 140.348842 
Q 32.614512 139.237495 32.817339 138.344998 
Q 33.020165 137.452501 33.477385 136.826727 
Q 33.934605 136.200953 34.653093 135.869259 
Q 35.375019 135.540984 36.406342 135.540984 
Q 36.65386 135.540984 36.83606 135.554662 
Q 37.018261 135.57176 37.179835 135.602535 
Q 37.341409 135.636731 37.485794 135.677765 
Q 37.630179 135.722219 37.791753 135.773512 
L 37.791753 139.3435 
L 35.405959 139.3435 
z
" clip-path="url(#p92cc4e3e55)" style="fill: #f5b328"/>
   </g>
   <g id="patch_17">
    <path d="M 46.565959 133.91063 
L 46.565959 134.165434 
L 51.561 134.165434 
L 51.561 133.291072 
Q 50.594994 133.238506 49.543045 133.213628 
Q 48.491095 133.188348 47.253508 133.188348 
Q 45.792467 133.188348 44.627072 133.240914 
Q 43.461677 133.293881 42.643494 133.39781 
Q 41.828749 133.501738 41.392156 133.655825 
Q 40.959 133.810313 40.959 134.013354 
Q 40.959 134.218001 41.41622 134.379711 
Q 41.87344 134.541422 42.746626 134.653376 
Q 43.623251 134.765731 44.895216 134.824717 
Q 46.170619 134.883703 47.803547 134.883703 
Q 48.769553 134.883703 49.68743 134.864041 
Q 50.605307 134.84478 51.519747 134.812278 
L 51.519747 134.507716 
Q 50.725628 134.551454 49.76306 134.579543 
Q 48.800492 134.608033 47.824173 134.608033 
Q 46.834103 134.608033 46.0778 134.567906 
Q 45.321496 134.527779 44.809272 134.453545 
Q 44.300486 134.379711 44.03578 134.27177 
Q 43.774512 134.163829 43.774512 134.028602 
Q 43.774512 133.89819 43.977339 133.793459 
Q 44.180165 133.688729 44.637385 133.615297 
Q 45.094605 133.541865 45.813093 133.502942 
Q 46.535019 133.46442 47.566342 133.46442 
Q 47.81386 133.46442 47.99606 133.466025 
Q 48.178261 133.468031 48.339835 133.471643 
Q 48.501409 133.475656 48.645794 133.480471 
Q 48.790179 133.485687 48.951753 133.491706 
L 48.951753 133.91063 
L 46.565959 133.91063 
z
" clip-path="url(#p92cc4e3e55)" style="fill: #f5b328"/>
   </g>
   <g id="matplotlib.axis_5">
    <g id="xtick_3">
     <g id="line2d_8">
      <g>
       <use xlink:href="#m3799b87a32" x="46.26" y="158.775652" style="stroke: #000000; stroke-width: 0.8"/>
      </g>
     </g>
    </g>
   </g>
   <g id="matplotlib.axis_6">
    <g id="ytick_3">
     <g id="line2d_9">
      <g>
       <use xlink:href="#m742c6885db" x="51.84" y="155.366302" style="stroke: #000000; stroke-width: 0.8"/>
      </g>
     </g>
     <g id="text_4">
      <!-- −1 -->
      <g transform="translate(58.84 158.953021)scale(0.1 -0.1)">
       <use xlink:href="#Helvetica-2212"/>
       <use xlink:href="#Helvetica-31" x="58.398438"/>
      </g>
     </g>
    </g>
    <g id="ytick_4">
     <g id="line2d_10">
      <g>
       <use xlink:href="#m742c6885db" x="51.84" y="133.188348" style="stroke: #000000; stroke-width: 0.8"/>
      </g>
     </g>
     <g id="text_5">
      <!-- 0 -->
      <g transform="translate(58.84 136.775067)scale(0.1 -0.1)">
       <use xlink:href="#Helvetica-30"/>
      </g>
     </g>
    </g>
    <g id="text_6">
     <!-- log2_MRL_10hpf -->
     <g transform="translate(-72.960938 142.023424)scale(0.1 -0.1)">
      <use xlink:href="#Helvetica-6c"/>
      <use xlink:href="#Helvetica-6f" x="22.216797"/>
      <use xlink:href="#Helvetica-67" x="77.832031"/>
      <use xlink:href="#Helvetica-32" x="133.447266"/>
      <use xlink:href="#Helvetica-5f" x="189.0625"/>
      <use xlink:href="#Helvetica-4d" x="244.677734"/>
      <use xlink:href="#Helvetica-52" x="327.978516"/>
      <use xlink:href="#Helvetica-4c" x="400.195312"/>
      <use xlink:href="#Helvetica-5f" x="455.810547"/>
      <use xlink:href="#Helvetica-31" x="511.425781"/>
      <use xlink:href="#Helvetica-30" x="567.041016"/>
      <use xlink:href="#Helvetica-68" x="622.65625"/>
      <use xlink:href="#Helvetica-70" x="678.271484"/>
      <use xlink:href="#Helvetica-66" x="733.886719"/>
     </g>
    </g>
   </g>
   <g id="patch_18">
    <path d="M 51.84 158.775652 
L 51.84 120.208696 
" style="fill: none; stroke: #000000; stroke-linejoin: miter; stroke-linecap: square"/>
   </g>
  </g>
  <g id="axes_4">
   <g id="patch_19">
    <path d="M 7.2 205.056 
L 51.84 205.056 
L 51.84 166.489043 
L 7.2 166.489043 
z
" style="fill: #ffffff"/>
   </g>
   <g id="line2d_11">
    <path d="M 7.2 179.468696 
L 51.84 179.468696 
" clip-path="url(#pa5dcaced13)" style="fill: none; stroke: #000000; stroke-width: 0.5; stroke-linecap: square"/>
   </g>
   <g id="patch_20">
    <path d="M 46.565959 179.46688 
L 46.565959 179.466239 
L 51.561 179.466239 
L 51.561 179.468438 
Q 50.594994 179.46857 49.543045 179.468632 
Q 48.491095 179.468696 47.253508 179.468696 
Q 45.792467 179.468696 44.627072 179.468564 
Q 43.461677 179.46843 42.643494 179.468169 
Q 41.828749 179.467908 41.392156 179.467521 
Q 40.959 179.467132 40.959 179.466622 
Q 40.959 179.466107 41.41622 179.465701 
Q 41.87344 179.465294 42.746626 179.465013 
Q 43.623251 179.46473 44.895216 179.464582 
Q 46.170619 179.464434 47.803547 179.464434 
Q 48.769553 179.464434 49.68743 179.464483 
Q 50.605307 179.464532 51.519747 179.464613 
L 51.519747 179.465379 
Q 50.725628 179.465269 49.76306 179.465198 
Q 48.800492 179.465127 47.824173 179.465127 
Q 46.834103 179.465127 46.0778 179.465228 
Q 45.321496 179.465328 44.809272 179.465515 
Q 44.300486 179.465701 44.03578 179.465972 
Q 43.774512 179.466243 43.774512 179.466583 
Q 43.774512 179.466911 43.977339 179.467175 
Q 44.180165 179.467438 44.637385 179.467622 
Q 45.094605 179.467807 45.813093 179.467905 
Q 46.535019 179.468002 47.566342 179.468002 
Q 47.81386 179.468002 47.99606 179.467998 
Q 48.178261 179.467993 48.339835 179.467984 
Q 48.501409 179.467973 48.645794 179.467961 
Q 48.790179 179.467948 48.951753 179.467933 
L 48.951753 179.46688 
L 46.565959 179.46688 
z
" clip-path="url(#pa5dcaced13)" style="fill: #f5b328"/>
   </g>
   <g id="patch_21">
    <path d="M 18.081 180.124582 
Q 18.081 179.962172 17.706812 179.838907 
Q 17.336187 179.716059 16.637703 179.634021 
Q 15.942782 179.551983 14.937819 179.510339 
Q 13.93642 179.468696 12.689126 179.468696 
Q 11.288593 179.468696 10.28363 179.510339 
Q 9.282231 179.551983 8.658584 179.629856 
Q 8.034937 179.708146 7.756968 179.820167 
Q 7.479 179.932189 7.479 180.071278 
L 7.479 181.199402 
L 10.219483 181.199402 
L 10.219483 180.090851 
Q 10.219483 180.005065 10.347776 179.938435 
Q 10.47607 179.872222 10.793239 179.825998 
Q 11.110408 179.779773 11.587943 179.756453 
Q 12.065479 179.733132 12.792473 179.733132 
Q 13.469575 179.733132 13.93642 179.753121 
Q 14.406828 179.77311 14.71687 179.818085 
Q 15.030475 179.86306 15.183714 179.933438 
Q 15.340517 180.003815 15.340517 180.10376 
L 15.340517 181.199402 
L 18.081 181.199402 
L 18.081 180.124582 
z
" clip-path="url(#pa5dcaced13)" style="fill: #e42638"/>
   </g>
   <g id="patch_22">
    <path d="M 29.241 185.357612 
Q 29.241 183.899404 28.866812 182.792662 
Q 28.496187 181.689658 27.797703 180.953076 
Q 27.102782 180.216495 26.097819 179.842595 
Q 25.09642 179.468696 23.849126 179.468696 
Q 22.448593 179.468696 21.44363 179.842595 
Q 20.442231 180.216495 19.818584 180.915687 
Q 19.194937 181.618617 18.916968 182.624407 
Q 18.639 183.630196 18.639 184.87902 
L 18.639 195.007956 
L 21.379483 195.007956 
L 21.379483 185.054753 
Q 21.379483 184.28452 21.507776 183.686281 
Q 21.63607 183.091781 21.953239 182.676753 
Q 22.270408 182.261724 22.747943 182.052341 
Q 23.225479 181.842957 23.952473 181.842957 
Q 24.629575 181.842957 25.09642 182.022429 
Q 25.566828 182.201901 25.87687 182.605712 
Q 26.190475 183.009523 26.343714 183.641413 
Q 26.500517 184.273303 26.500517 185.170662 
L 26.500517 195.007956 
L 29.241 195.007956 
L 29.241 185.357612 
z
" clip-path="url(#pa5dcaced13)" style="fill: #e42638"/>
   </g>
   <g id="patch_23">
    <path d="M 35.405959 182.394721 
L 35.405959 183.426958 
L 40.401 183.426958 
L 40.401 179.884842 
Q 39.434994 179.671892 38.383045 179.571107 
Q 37.331095 179.468696 36.093508 179.468696 
Q 34.632467 179.468696 33.467072 179.681645 
Q 32.301677 179.896221 31.483494 180.317243 
Q 30.668749 180.738266 30.232156 181.362484 
Q 29.799 181.988329 29.799 182.810867 
Q 29.799 183.639907 30.25622 184.295012 
Q 30.71344 184.950116 31.586626 185.40365 
Q 32.463251 185.85881 33.735216 186.097768 
Q 35.010619 186.336727 36.643547 186.336727 
Q 37.609553 186.336727 38.52743 186.257074 
Q 39.445307 186.179047 40.359747 186.047376 
L 40.359747 184.813569 
Q 39.565628 184.990756 38.60306 185.104545 
Q 37.640492 185.219961 36.664173 185.219961 
Q 35.674103 185.219961 34.9178 185.057404 
Q 34.161496 184.894847 33.649272 184.594117 
Q 33.140486 184.295012 32.87578 183.857734 
Q 32.614512 183.420455 32.614512 182.872638 
Q 32.614512 182.344328 32.817339 181.920055 
Q 33.020165 181.495781 33.477385 181.198302 
Q 33.934605 180.900823 34.653093 180.743142 
Q 35.375019 180.587088 36.406342 180.587088 
Q 36.65386 180.587088 36.83606 180.59359 
Q 37.018261 180.601718 37.179835 180.616348 
Q 37.341409 180.632604 37.485794 180.65211 
Q 37.630179 180.673243 37.791753 180.697626 
L 37.791753 182.394721 
L 35.405959 182.394721 
z
" clip-path="url(#pa5dcaced13)" style="fill: #f5b328"/>
   </g>
   <g id="matplotlib.axis_7">
    <g id="xtick_4">
     <g id="line2d_12">
      <g>
       <use xlink:href="#m3799b87a32" x="46.26" y="205.056" style="stroke: #000000; stroke-width: 0.8"/>
      </g>
     </g>
     <g id="text_7">
      <!-- -1 -->
      <g transform="translate(41.814688 219.229438)scale(0.1 -0.1)">
       <defs>
        <path id="Helvetica-2d" d="M 266 2072 
L 1834 2072 
L 1834 1494 
L 266 1494 
L 266 2072 
z
" transform="scale(0.015625)"/>
       </defs>
       <use xlink:href="#Helvetica-2d"/>
       <use xlink:href="#Helvetica-31" x="33.300781"/>
      </g>
     </g>
    </g>
   </g>
   <g id="matplotlib.axis_8">
    <g id="ytick_5">
     <g id="line2d_13">
      <g>
       <use xlink:href="#m742c6885db" x="51.84" y="201.64665" style="stroke: #000000; stroke-width: 0.8"/>
      </g>
     </g>
     <g id="text_8">
      <!-- −1 -->
      <g transform="translate(58.84 205.233369)scale(0.1 -0.1)">
       <use xlink:href="#Helvetica-2212"/>
       <use xlink:href="#Helvetica-31" x="58.398438"/>
      </g>
     </g>
    </g>
    <g id="ytick_6">
     <g id="line2d_14">
      <g>
       <use xlink:href="#m742c6885db" x="51.84" y="179.468696" style="stroke: #000000; stroke-width: 0.8"/>
      </g>
     </g>
     <g id="text_9">
      <!-- 0 -->
      <g transform="translate(58.84 183.055415)scale(0.1 -0.1)">
       <use xlink:href="#Helvetica-30"/>
      </g>
     </g>
    </g>
    <g id="text_10">
     <!-- Δlog2_MRL_10-2hpf -->
     <g transform="translate(-89.073437 188.303772)scale(0.1 -0.1)">
      <defs>
       <path id="Helvetica-394" d="M 922 500 
L 3672 500 
L 2278 3941 
L 922 500 
z
M 1966 4519 
L 2631 4519 
L 4494 0 
L 128 0 
L 1966 4519 
z
" transform="scale(0.015625)"/>
      </defs>
      <use xlink:href="#Helvetica-394"/>
      <use xlink:href="#Helvetica-6c" x="72.216797"/>
      <use xlink:href="#Helvetica-6f" x="94.433594"/>
      <use xlink:href="#Helvetica-67" x="150.048828"/>
      <use xlink:href="#Helvetica-32" x="205.664062"/>
      <use xlink:href="#Helvetica-5f" x="261.279297"/>
      <use xlink:href="#Helvetica-4d" x="316.894531"/>
      <use xlink:href="#Helvetica-52" x="400.195312"/>
      <use xlink:href="#Helvetica-4c" x="472.412109"/>
      <use xlink:href="#Helvetica-5f" x="528.027344"/>
      <use xlink:href="#Helvetica-31" x="583.642578"/>
      <use xlink:href="#Helvetica-30" x="639.257812"/>
      <use xlink:href="#Helvetica-2d" x="694.873047"/>
      <use xlink:href="#Helvetica-32" x="728.173828"/>
      <use xlink:href="#Helvetica-68" x="783.789062"/>
      <use xlink:href="#Helvetica-70" x="839.404297"/>
      <use xlink:href="#Helvetica-66" x="895.019531"/>
     </g>
    </g>
   </g>
   <g id="patch_24">
    <path d="M 51.84 205.056 
L 51.84 166.489043 
" style="fill: none; stroke: #000000; stroke-linejoin: miter; stroke-linecap: square"/>
   </g>
  </g>
 </g>
 <defs>
  <clipPath id="pc2a3e990fa">
   <rect x="7.2" y="27.648" width="44.64" height="38.566957"/>
  </clipPath>
  <clipPath id="p04bc39dbe3">
   <rect x="7.2" y="73.928348" width="44.64" height="38.566957"/>
  </clipPath>
  <clipPath id="p92cc4e3e55">
   <rect x="7.2" y="120.208696" width="44.64" height="38.566957"/>
  </clipPath>
  <clipPath id="pa5dcaced13">
   <rect x="7.2" y="166.489043" width="44.64" height="38.566957"/>
  </clipPath>
 </defs>
</svg>
