<?xml version="1.0" encoding="utf-8" standalone="no"?>
<!DOCTYPE svg PUBLIC "-//W3C//DTD SVG 1.1//EN"
  "http://www.w3.org/Graphics/SVG/1.1/DTD/svg11.dtd">
<svg xmlns:xlink="http://www.w3.org/1999/xlink" width="57.6pt" height="230.4pt" viewBox="0 0 57.6 230.4" xmlns="http://www.w3.org/2000/svg" version="1.1">
 <metadata>
  <rdf:RDF xmlns:dc="http://purl.org/dc/elements/1.1/" xmlns:cc="http://creativecommons.org/ns#" xmlns:rdf="http://www.w3.org/1999/02/22-rdf-syntax-ns#">
   <cc:Work>
    <dc:type rdf:resource="http://purl.org/dc/dcmitype/StillImage"/>
    <dc:date>2023-11-22T21:47:42.815934</dc:date>
    <dc:format>image/svg+xml</dc:format>
    <dc:creator>
     <cc:Agent>
      <dc:title>Matplotlib v3.5.1, https://matplotlib.org/</dc:title>
     </cc:Agent>
    </dc:creator>
   </cc:Work>
  </rdf:RDF>
 </metadata>
 <defs>
  <style type="text/css">*{stroke-linejoin: round; stroke-linecap: butt}</style>
 </defs>
 <g id="figure_1">
  <g id="patch_1">
   <path d="M 0 230.4 
L 57.6 230.4 
L 57.6 0 
L 0 0 
z
" style="fill: #ffffff"/>
  </g>
  <g id="axes_1">
   <g id="patch_2">
    <path d="M 7.2 66.214957 
L 51.84 66.214957 
L 51.84 27.648 
L 7.2 27.648 
z
" style="fill: #ffffff"/>
   </g>
   <g id="line2d_1">
    <path d="M 7.2 66.214957 
L 51.84 66.214957 
" clip-path="url(#pfdf068ec7a)" style="fill: none; stroke: #000000; stroke-width: 0.5; stroke-linecap: square"/>
   </g>
   <g id="patch_3">
    <path d="M 18.081 51.599231 
Q 18.081 55.218363 17.706812 57.965191 
Q 17.336187 60.70274 16.637703 62.530866 
Q 15.942782 64.358991 14.937819 65.286974 
Q 13.93642 66.214957 12.689126 66.214957 
Q 11.288593 66.214957 10.28363 65.286974 
Q 9.282231 64.358991 8.658584 62.623664 
Q 8.034937 60.879057 7.756968 58.382783 
Q 7.479 55.88651 7.479 52.787048 
L 7.479 27.648 
L 10.219483 27.648 
L 10.219483 52.350897 
Q 10.219483 54.262541 10.347776 55.747313 
Q 10.47607 57.222805 10.793239 58.252866 
Q 11.110408 59.282927 11.587943 59.802597 
Q 12.065479 60.322267 12.792473 60.322267 
Q 13.469575 60.322267 13.93642 59.876835 
Q 14.406828 59.431404 14.71687 58.429183 
Q 15.030475 57.426961 15.183714 55.858671 
Q 15.340517 54.29038 15.340517 52.063222 
L 15.340517 27.648 
L 18.081 27.648 
L 18.081 51.599231 
z
" clip-path="url(#pfdf068ec7a)" style="fill: #e42638"/>
   </g>
   <g id="patch_4">
    <path d="M 29.241 51.599231 
Q 29.241 55.218363 28.866812 57.965191 
Q 28.496187 60.70274 27.797703 62.530866 
Q 27.102782 64.358991 26.097819 65.286974 
Q 25.09642 66.214957 23.849126 66.214957 
Q 22.448593 66.214957 21.44363 65.286974 
Q 20.442231 64.358991 19.818584 62.623664 
Q 19.194937 60.879057 18.916968 58.382783 
Q 18.639 55.88651 18.639 52.787048 
L 18.639 27.648 
L 21.379483 27.648 
L 21.379483 52.350897 
Q 21.379483 54.262541 21.507776 55.747313 
Q 21.63607 57.222805 21.953239 58.252866 
Q 22.270408 59.282927 22.747943 59.802597 
Q 23.225479 60.322267 23.952473 60.322267 
Q 24.629575 60.322267 25.09642 59.876835 
Q 25.566828 59.431404 25.87687 58.429183 
Q 26.190475 57.426961 26.343714 55.858671 
Q 26.500517 54.29038 26.500517 52.063222 
L 26.500517 27.648 
L 29.241 27.648 
L 29.241 51.599231 
z
" clip-path="url(#pfdf068ec7a)" style="fill: #e42638"/>
   </g>
   <g id="patch_5">
    <path d="M 40.401 51.599231 
Q 40.401 55.218363 40.026812 57.965191 
Q 39.656187 60.70274 38.957703 62.530866 
Q 38.262782 64.358991 37.257819 65.286974 
Q 36.25642 66.214957 35.009126 66.214957 
Q 33.608593 66.214957 32.60363 65.286974 
Q 31.602231 64.358991 30.978584 62.623664 
Q 30.354937 60.879057 30.076968 58.382783 
Q 29.799 55.88651 29.799 52.787048 
L 29.799 27.648 
L 32.539483 27.648 
L 32.539483 52.350897 
Q 32.539483 54.262541 32.667776 55.747313 
Q 32.79607 57.222805 33.113239 58.252866 
Q 33.430408 59.282927 33.907943 59.802597 
Q 34.385479 60.322267 35.112473 60.322267 
Q 35.789575 60.322267 36.25642 59.876835 
Q 36.726828 59.431404 37.03687 58.429183 
Q 37.350475 57.426961 37.503714 55.858671 
Q 37.660517 54.29038 37.660517 52.063222 
L 37.660517 27.648 
L 40.401 27.648 
L 40.401 51.599231 
z
" clip-path="url(#pfdf068ec7a)" style="fill: #e42638"/>
   </g>
   <g id="patch_6">
    <path d="M 51.561 51.599231 
Q 51.561 55.218363 51.186812 57.965191 
Q 50.816187 60.70274 50.117703 62.530866 
Q 49.422782 64.358991 48.417819 65.286974 
Q 47.41642 66.214957 46.169126 66.214957 
Q 44.768593 66.214957 43.76363 65.286974 
Q 42.762231 64.358991 42.138584 62.623664 
Q 41.514937 60.879057 41.236968 58.382783 
Q 40.959 55.88651 40.959 52.787048 
L 40.959 27.648 
L 43.699483 27.648 
L 43.699483 52.350897 
Q 43.699483 54.262541 43.827776 55.747313 
Q 43.95607 57.222805 44.273239 58.252866 
Q 44.590408 59.282927 45.067943 59.802597 
Q 45.545479 60.322267 46.272473 60.322267 
Q 46.949575 60.322267 47.41642 59.876835 
Q 47.886828 59.431404 48.19687 58.429183 
Q 48.510475 57.426961 48.663714 55.858671 
Q 48.820517 54.29038 48.820517 52.063222 
L 48.820517 27.648 
L 51.561 27.648 
L 51.561 51.599231 
z
" clip-path="url(#pfdf068ec7a)" style="fill: #e42638"/>
   </g>
   <g id="matplotlib.axis_1">
    <g id="xtick_1">
     <g id="line2d_2">
      <defs>
       <path id="m2a739f940a" d="M 0 0 
L 0 3.5 
" style="stroke: #000000; stroke-width: 0.8"/>
      </defs>
      <g>
       <use xlink:href="#m2a739f940a" x="46.26" y="66.214957" style="stroke: #000000; stroke-width: 0.8"/>
      </g>
     </g>
    </g>
   </g>
   <g id="matplotlib.axis_2"/>
  </g>
  <g id="axes_2">
   <g id="patch_7">
    <path d="M 7.2 112.495304 
L 51.84 112.495304 
L 51.84 73.928348 
L 7.2 73.928348 
z
" style="fill: #ffffff"/>
   </g>
   <g id="line2d_3">
    <path d="M 7.2 89.063767 
L 51.84 89.063767 
" clip-path="url(#p264cd0c2ef)" style="fill: none; stroke: #000000; stroke-width: 0.5; stroke-linecap: square"/>
   </g>
   <g id="patch_8">
    <path d="M 18.081 88.823811 
Q 18.081 88.883228 17.706812 88.928325 
Q 17.336187 88.973269 16.637703 89.003283 
Q 15.942782 89.033297 14.937819 89.048532 
Q 13.93642 89.063767 12.689126 89.063767 
Q 11.288593 89.063767 10.28363 89.048532 
Q 9.282231 89.033297 8.658584 89.004806 
Q 8.034937 88.976164 7.756968 88.935181 
Q 7.479 88.894198 7.479 88.843312 
L 7.479 88.430586 
L 10.219483 88.430586 
L 10.219483 88.836151 
Q 10.219483 88.867536 10.347776 88.891913 
Q 10.47607 88.916137 10.793239 88.933048 
Q 11.110408 88.949959 11.587943 88.958491 
Q 12.065479 88.967023 12.792473 88.967023 
Q 13.469575 88.967023 13.93642 88.95971 
Q 14.406828 88.952397 14.71687 88.935943 
Q 15.030475 88.919489 15.183714 88.893741 
Q 15.340517 88.867993 15.340517 88.831428 
L 15.340517 88.430586 
L 18.081 88.430586 
L 18.081 88.823811 
z
" clip-path="url(#p264cd0c2ef)" style="fill: #e42638"/>
   </g>
   <g id="patch_9">
    <path d="M 29.241 92.473205 
Q 29.241 91.628963 28.866812 90.988205 
Q 28.496187 90.349612 27.797703 89.923162 
Q 27.102782 89.496712 26.097819 89.280239 
Q 25.09642 89.063767 23.849126 89.063767 
Q 22.448593 89.063767 21.44363 89.280239 
Q 20.442231 89.496712 19.818584 89.901515 
Q 19.194937 90.308483 18.916968 90.890793 
Q 18.639 91.473103 18.639 92.19612 
L 18.639 98.060353 
L 21.379483 98.060353 
L 21.379483 92.297862 
Q 21.379483 91.85193 21.507776 91.505574 
Q 21.63607 91.161383 21.953239 90.921099 
Q 22.270408 90.680815 22.747943 90.55959 
Q 23.225479 90.438366 23.952473 90.438366 
Q 24.629575 90.438366 25.09642 90.542273 
Q 25.566828 90.646179 25.87687 90.879969 
Q 26.190475 91.113759 26.343714 91.479597 
Q 26.500517 91.845435 26.500517 92.364969 
L 26.500517 98.060353 
L 29.241 98.060353 
L 29.241 92.473205 
z
" clip-path="url(#p264cd0c2ef)" style="fill: #e42638"/>
   </g>
   <g id="patch_10">
    <path d="M 40.401 89.501347 
Q 40.401 89.392994 40.026812 89.310757 
Q 39.656187 89.228797 38.957703 89.174065 
Q 38.262782 89.119333 37.257819 89.09155 
Q 36.25642 89.063767 35.009126 89.063767 
Q 33.608593 89.063767 32.60363 89.09155 
Q 31.602231 89.119333 30.978584 89.171287 
Q 30.354937 89.223518 30.076968 89.298254 
Q 29.799 89.37299 29.799 89.465785 
L 29.799 90.218421 
L 32.539483 90.218421 
L 32.539483 89.478843 
Q 32.539483 89.42161 32.667776 89.377157 
Q 32.79607 89.332983 33.113239 89.302144 
Q 33.430408 89.271305 33.907943 89.255747 
Q 34.385479 89.240188 35.112473 89.240188 
Q 35.789575 89.240188 36.25642 89.253524 
Q 36.726828 89.26686 37.03687 89.296865 
Q 37.350475 89.326871 37.503714 89.373824 
Q 37.660517 89.420776 37.660517 89.487455 
L 37.660517 90.218421 
L 40.401 90.218421 
L 40.401 89.501347 
z
" clip-path="url(#p264cd0c2ef)" style="fill: #e42638"/>
   </g>
   <g id="patch_11">
    <path d="M 51.561 91.238738 
Q 51.561 90.700174 51.186812 90.291417 
Q 50.816187 89.884042 50.117703 89.611998 
Q 49.422782 89.339954 48.417819 89.201861 
Q 47.41642 89.063767 46.169126 89.063767 
Q 44.768593 89.063767 43.76363 89.201861 
Q 42.762231 89.339954 42.138584 89.598189 
Q 41.514937 89.857804 41.236968 90.229275 
Q 40.959 90.600747 40.959 91.061979 
L 40.959 94.802928 
L 43.699483 94.802928 
L 43.699483 91.126882 
Q 43.699483 90.84241 43.827776 90.621461 
Q 43.95607 90.401892 44.273239 90.248608 
Q 44.590408 90.095325 45.067943 90.017993 
Q 45.545479 89.94066 46.272473 89.94066 
Q 46.949575 89.94066 47.41642 90.006945 
Q 47.886828 90.07323 48.19687 90.222371 
Q 48.510475 90.371512 48.663714 90.604889 
Q 48.820517 90.838267 48.820517 91.169691 
L 48.820517 94.802928 
L 51.561 94.802928 
L 51.561 91.238738 
z
" clip-path="url(#p264cd0c2ef)" style="fill: #e42638"/>
   </g>
   <g id="matplotlib.axis_3">
    <g id="xtick_2">
     <g id="line2d_4">
      <g>
       <use xlink:href="#m2a739f940a" x="46.26" y="112.495304" style="stroke: #000000; stroke-width: 0.8"/>
      </g>
     </g>
    </g>
   </g>
   <g id="matplotlib.axis_4">
    <g id="ytick_1">
     <g id="line2d_5">
      <defs>
       <path id="mb713187119" d="M 0 0 
L 3.5 0 
" style="stroke: #000000; stroke-width: 0.8"/>
      </defs>
      <g>
       <use xlink:href="#mb713187119" x="51.84" y="107.520383" style="stroke: #000000; stroke-width: 0.8"/>
      </g>
     </g>
     <g id="text_1">
      <!-- −0.5 -->
      <g transform="translate(58.84 111.107102)scale(0.1 -0.1)">
       <defs>
        <path id="Helvetica-2212" d="M 3547 1894 
L 3547 1369 
L 288 1369 
L 288 1894 
L 3547 1894 
z
" transform="scale(0.015625)"/>
        <path id="Helvetica-30" d="M 1731 4475 
Q 2600 4475 2988 3759 
Q 3288 3206 3288 2244 
Q 3288 1331 3016 734 
Q 2622 -122 1728 -122 
Q 922 -122 528 578 
Q 200 1163 200 2147 
Q 200 2909 397 3456 
Q 766 4475 1731 4475 
z
M 1725 391 
Q 2163 391 2422 778 
Q 2681 1166 2681 2222 
Q 2681 2984 2493 3476 
Q 2306 3969 1766 3969 
Q 1269 3969 1039 3501 
Q 809 3034 809 2125 
Q 809 1441 956 1025 
Q 1181 391 1725 391 
z
" transform="scale(0.015625)"/>
        <path id="Helvetica-2e" d="M 547 681 
L 1200 681 
L 1200 0 
L 547 0 
L 547 681 
z
" transform="scale(0.015625)"/>
        <path id="Helvetica-35" d="M 791 1141 
Q 847 659 1238 475 
Q 1438 381 1700 381 
Q 2200 381 2440 700 
Q 2681 1019 2681 1406 
Q 2681 1875 2395 2131 
Q 2109 2388 1709 2388 
Q 1419 2388 1211 2275 
Q 1003 2163 856 1963 
L 369 1991 
L 709 4400 
L 3034 4400 
L 3034 3856 
L 1131 3856 
L 941 2613 
Q 1097 2731 1238 2791 
Q 1488 2894 1816 2894 
Q 2431 2894 2859 2497 
Q 3288 2100 3288 1491 
Q 3288 856 2895 371 
Q 2503 -113 1644 -113 
Q 1097 -113 676 195 
Q 256 503 206 1141 
L 791 1141 
z
" transform="scale(0.015625)"/>
       </defs>
       <use xlink:href="#Helvetica-2212"/>
       <use xlink:href="#Helvetica-30" x="58.398438"/>
       <use xlink:href="#Helvetica-2e" x="114.013672"/>
       <use xlink:href="#Helvetica-35" x="141.796875"/>
      </g>
     </g>
    </g>
    <g id="ytick_2">
     <g id="line2d_6">
      <g>
       <use xlink:href="#mb713187119" x="51.84" y="89.063767" style="stroke: #000000; stroke-width: 0.8"/>
      </g>
     </g>
     <g id="text_2">
      <!-- 0.0 -->
      <g transform="translate(58.84 92.650486)scale(0.1 -0.1)">
       <use xlink:href="#Helvetica-30"/>
       <use xlink:href="#Helvetica-2e" x="55.615234"/>
       <use xlink:href="#Helvetica-30" x="83.398438"/>
      </g>
     </g>
    </g>
    <g id="text_3">
     <!-- log2_MRL_2hpf -->
     <g transform="translate(-67.4 95.743076)scale(0.1 -0.1)">
      <defs>
       <path id="Helvetica-6c" d="M 428 4591 
L 991 4591 
L 991 0 
L 428 0 
L 428 4591 
z
" transform="scale(0.015625)"/>
       <path id="Helvetica-6f" d="M 1741 363 
Q 2300 363 2508 786 
Q 2716 1209 2716 1728 
Q 2716 2197 2566 2491 
Q 2328 2953 1747 2953 
Q 1231 2953 997 2559 
Q 763 2166 763 1609 
Q 763 1075 997 719 
Q 1231 363 1741 363 
z
M 1763 3444 
Q 2409 3444 2856 3012 
Q 3303 2581 3303 1744 
Q 3303 934 2909 406 
Q 2516 -122 1688 -122 
Q 997 -122 590 345 
Q 184 813 184 1600 
Q 184 2444 612 2944 
Q 1041 3444 1763 3444 
z
M 1744 3428 
L 1744 3428 
z
" transform="scale(0.015625)"/>
       <path id="Helvetica-67" d="M 1594 3406 
Q 1988 3406 2281 3213 
Q 2441 3103 2606 2894 
L 2606 3316 
L 3125 3316 
L 3125 272 
Q 3125 -366 2938 -734 
Q 2588 -1416 1616 -1416 
Q 1075 -1416 706 -1173 
Q 338 -931 294 -416 
L 866 -416 
Q 906 -641 1028 -763 
Q 1219 -950 1628 -950 
Q 2275 -950 2475 -494 
Q 2594 -225 2584 466 
Q 2416 209 2178 84 
Q 1941 -41 1550 -41 
Q 1006 -41 598 345 
Q 191 731 191 1622 
Q 191 2463 602 2934 
Q 1013 3406 1594 3406 
z
M 2606 1688 
Q 2606 2309 2350 2609 
Q 2094 2909 1697 2909 
Q 1103 2909 884 2353 
Q 769 2056 769 1575 
Q 769 1009 998 714 
Q 1228 419 1616 419 
Q 2222 419 2469 966 
Q 2606 1275 2606 1688 
z
M 1659 3428 
L 1659 3428 
z
" transform="scale(0.015625)"/>
       <path id="Helvetica-32" d="M 200 0 
Q 231 578 439 1006 
Q 647 1434 1250 1784 
L 1850 2131 
Q 2253 2366 2416 2531 
Q 2672 2791 2672 3125 
Q 2672 3516 2437 3745 
Q 2203 3975 1813 3975 
Q 1234 3975 1013 3538 
Q 894 3303 881 2888 
L 309 2888 
Q 319 3472 525 3841 
Q 891 4491 1816 4491 
Q 2584 4491 2939 4075 
Q 3294 3659 3294 3150 
Q 3294 2613 2916 2231 
Q 2697 2009 2131 1694 
L 1703 1456 
Q 1397 1288 1222 1134 
Q 909 863 828 531 
L 3272 531 
L 3272 0 
L 200 0 
z
" transform="scale(0.015625)"/>
       <path id="Helvetica-5f" d="M 0 -800 
L 0 -484 
L 3559 -484 
L 3559 -800 
L 0 -800 
z
" transform="scale(0.015625)"/>
       <path id="Helvetica-4d" d="M 472 4591 
L 1363 4591 
L 2681 709 
L 3991 4591 
L 4872 4591 
L 4872 0 
L 4281 0 
L 4281 2709 
Q 4281 2850 4287 3175 
Q 4294 3500 4294 3872 
L 2984 0 
L 2369 0 
L 1050 3872 
L 1050 3731 
Q 1050 3563 1058 3217 
Q 1066 2872 1066 2709 
L 1066 0 
L 472 0 
L 472 4591 
z
" transform="scale(0.015625)"/>
       <path id="Helvetica-52" d="M 2622 2488 
Q 3059 2488 3314 2663 
Q 3569 2838 3569 3294 
Q 3569 3784 3213 3963 
Q 3022 4056 2703 4056 
L 1184 4056 
L 1184 2488 
L 2622 2488 
z
M 563 4591 
L 2688 4591 
Q 3213 4591 3553 4438 
Q 4200 4144 4200 3353 
Q 4200 2941 4029 2678 
Q 3859 2416 3553 2256 
Q 3822 2147 3958 1969 
Q 4094 1791 4109 1391 
L 4131 775 
Q 4141 513 4175 384 
Q 4231 166 4375 103 
L 4375 0 
L 3613 0 
Q 3581 59 3562 153 
Q 3544 247 3531 516 
L 3494 1281 
Q 3472 1731 3159 1884 
Q 2981 1969 2600 1969 
L 1184 1969 
L 1184 0 
L 563 0 
L 563 4591 
z
" transform="scale(0.015625)"/>
       <path id="Helvetica-4c" d="M 488 4591 
L 1109 4591 
L 1109 547 
L 3434 547 
L 3434 0 
L 488 0 
L 488 4591 
z
" transform="scale(0.015625)"/>
       <path id="Helvetica-68" d="M 413 4606 
L 975 4606 
L 975 2894 
Q 1175 3147 1334 3250 
Q 1606 3428 2013 3428 
Q 2741 3428 3000 2919 
Q 3141 2641 3141 2147 
L 3141 0 
L 2563 0 
L 2563 2109 
Q 2563 2478 2469 2650 
Q 2316 2925 1894 2925 
Q 1544 2925 1259 2684 
Q 975 2444 975 1775 
L 975 0 
L 413 0 
L 413 4606 
z
" transform="scale(0.015625)"/>
       <path id="Helvetica-70" d="M 1825 378 
Q 2219 378 2480 708 
Q 2741 1038 2741 1694 
Q 2741 2094 2625 2381 
Q 2406 2934 1825 2934 
Q 1241 2934 1025 2350 
Q 909 2038 909 1556 
Q 909 1169 1025 897 
Q 1244 378 1825 378 
z
M 369 3331 
L 916 3331 
L 916 2888 
Q 1084 3116 1284 3241 
Q 1569 3428 1953 3428 
Q 2522 3428 2919 2992 
Q 3316 2556 3316 1747 
Q 3316 653 2744 184 
Q 2381 -113 1900 -113 
Q 1522 -113 1266 53 
Q 1116 147 931 375 
L 931 -1334 
L 369 -1334 
L 369 3331 
z
" transform="scale(0.015625)"/>
       <path id="Helvetica-66" d="M 553 3856 
Q 566 4206 675 4369 
Q 872 4656 1434 4656 
Q 1488 4656 1544 4653 
Q 1600 4650 1672 4644 
L 1672 4131 
Q 1584 4138 1545 4139 
Q 1506 4141 1472 4141 
Q 1216 4141 1166 4008 
Q 1116 3875 1116 3331 
L 1672 3331 
L 1672 2888 
L 1109 2888 
L 1109 0 
L 553 0 
L 553 2888 
L 88 2888 
L 88 3331 
L 553 3331 
L 553 3856 
z
" transform="scale(0.015625)"/>
      </defs>
      <use xlink:href="#Helvetica-6c"/>
      <use xlink:href="#Helvetica-6f" x="22.216797"/>
      <use xlink:href="#Helvetica-67" x="77.832031"/>
      <use xlink:href="#Helvetica-32" x="133.447266"/>
      <use xlink:href="#Helvetica-5f" x="189.0625"/>
      <use xlink:href="#Helvetica-4d" x="244.677734"/>
      <use xlink:href="#Helvetica-52" x="327.978516"/>
      <use xlink:href="#Helvetica-4c" x="400.195312"/>
      <use xlink:href="#Helvetica-5f" x="455.810547"/>
      <use xlink:href="#Helvetica-32" x="511.425781"/>
      <use xlink:href="#Helvetica-68" x="567.041016"/>
      <use xlink:href="#Helvetica-70" x="622.65625"/>
      <use xlink:href="#Helvetica-66" x="678.271484"/>
     </g>
    </g>
   </g>
   <g id="patch_12">
    <path d="M 51.84 112.495304 
L 51.84 73.928348 
" style="fill: none; stroke: #000000; stroke-linejoin: miter; stroke-linecap: square"/>
   </g>
  </g>
  <g id="axes_3">
   <g id="patch_13">
    <path d="M 7.2 158.775652 
L 51.84 158.775652 
L 51.84 120.208696 
L 7.2 120.208696 
z
" style="fill: #ffffff"/>
   </g>
   <g id="line2d_7">
    <path d="M 7.2 135.344115 
L 51.84 135.344115 
" clip-path="url(#p9580f7f380)" style="fill: none; stroke: #000000; stroke-width: 0.5; stroke-linecap: square"/>
   </g>
   <g id="patch_14">
    <path d="M 18.081 136.081956 
Q 18.081 135.899252 17.706812 135.760585 
Q 17.336187 135.622386 16.637703 135.530098 
Q 15.942782 135.437809 14.937819 135.390962 
Q 13.93642 135.344115 12.689126 135.344115 
Q 11.288593 135.344115 10.28363 135.390962 
Q 9.282231 135.437809 8.658584 135.525413 
Q 8.034937 135.613486 7.756968 135.739504 
Q 7.479 135.865523 7.479 136.021992 
L 7.479 137.291078 
L 10.219483 137.291078 
L 10.219483 136.04401 
Q 10.219483 135.947505 10.347776 135.87255 
Q 10.47607 135.798063 10.793239 135.746063 
Q 11.110408 135.694062 11.587943 135.667828 
Q 12.065479 135.641594 12.792473 135.641594 
Q 13.469575 135.641594 13.93642 135.66408 
Q 14.406828 135.686567 14.71687 135.737162 
Q 15.030475 135.787757 15.183714 135.866928 
Q 15.340517 135.9461 15.340517 136.058532 
L 15.340517 137.291078 
L 18.081 137.291078 
L 18.081 136.081956 
z
" clip-path="url(#p9580f7f380)" style="fill: #e42638"/>
   </g>
   <g id="patch_15">
    <path d="M 29.241 144.223969 
Q 29.241 142.025148 28.866812 140.356299 
Q 28.496187 138.693088 27.797703 137.582402 
Q 27.102782 136.471716 26.097819 135.907915 
Q 25.09642 135.344115 23.849126 135.344115 
Q 22.448593 135.344115 21.44363 135.907915 
Q 20.442231 136.471716 19.818584 137.526022 
Q 19.194937 138.585966 18.916968 140.102589 
Q 18.639 141.619212 18.639 143.502304 
L 18.639 158.775652 
L 21.379483 158.775652 
L 21.379483 143.76729 
Q 21.379483 142.605862 21.507776 141.703782 
Q 21.63607 140.807339 21.953239 140.181521 
Q 22.270408 139.555703 22.747943 139.239975 
Q 23.225479 138.924246 23.952473 138.924246 
Q 24.629575 138.924246 25.09642 139.194871 
Q 25.566828 139.465495 25.87687 140.074399 
Q 26.190475 140.683303 26.343714 141.636126 
Q 26.500517 142.588948 26.500517 143.942068 
L 26.500517 158.775652 
L 29.241 158.775652 
L 29.241 144.223969 
z
" clip-path="url(#p9580f7f380)" style="fill: #e42638"/>
   </g>
   <g id="patch_16">
    <path d="M 40.401 137.442433 
Q 40.401 136.922849 40.026812 136.528499 
Q 39.656187 136.135481 38.957703 135.873024 
Q 38.262782 135.610568 37.257819 135.477342 
Q 36.25642 135.344115 35.009126 135.344115 
Q 33.608593 135.344115 32.60363 135.477342 
Q 31.602231 135.610568 30.978584 135.859702 
Q 30.354937 136.110168 30.076968 136.468547 
Q 29.799 136.826926 29.799 137.271903 
L 29.799 140.881009 
L 32.539483 140.881009 
L 32.539483 137.334519 
Q 32.539483 137.060073 32.667776 136.84691 
Q 32.79607 136.63508 33.113239 136.487199 
Q 33.430408 136.339317 33.907943 136.26471 
Q 34.385479 136.190103 35.112473 136.190103 
Q 35.789575 136.190103 36.25642 136.254052 
Q 36.726828 136.318001 37.03687 136.461886 
Q 37.350475 136.60577 37.503714 136.830923 
Q 37.660517 137.056076 37.660517 137.375819 
L 37.660517 140.881009 
L 40.401 140.881009 
L 40.401 137.442433 
z
" clip-path="url(#p9580f7f380)" style="fill: #e42638"/>
   </g>
   <g id="patch_17">
    <path d="M 51.561 140.541041 
Q 51.561 139.254183 51.186812 138.277491 
Q 50.816187 137.304099 50.117703 136.65407 
Q 49.422782 136.004042 48.417819 135.674079 
Q 47.41642 135.344115 46.169126 135.344115 
Q 44.768593 135.344115 43.76363 135.674079 
Q 42.762231 136.004042 42.138584 136.621074 
Q 41.514937 137.241405 41.236968 138.129007 
Q 40.959 139.016609 40.959 140.118688 
L 40.959 149.0574 
L 43.699483 149.0574 
L 43.699483 140.27377 
Q 43.699483 139.594046 43.827776 139.066104 
Q 43.95607 138.541462 44.273239 138.175202 
Q 44.590408 137.808943 45.067943 137.624163 
Q 45.545479 137.439384 46.272473 137.439384 
Q 46.949575 137.439384 47.41642 137.597766 
Q 47.886828 137.756149 48.19687 138.112509 
Q 48.510475 138.46887 48.663714 139.026508 
Q 48.820517 139.584147 48.820517 140.376059 
L 48.820517 149.0574 
L 51.561 149.0574 
L 51.561 140.541041 
z
" clip-path="url(#p9580f7f380)" style="fill: #e42638"/>
   </g>
   <g id="matplotlib.axis_5">
    <g id="xtick_3">
     <g id="line2d_8">
      <g>
       <use xlink:href="#m2a739f940a" x="46.26" y="158.775652" style="stroke: #000000; stroke-width: 0.8"/>
      </g>
     </g>
    </g>
   </g>
   <g id="matplotlib.axis_6">
    <g id="ytick_3">
     <g id="line2d_9">
      <g>
       <use xlink:href="#mb713187119" x="51.84" y="153.800731" style="stroke: #000000; stroke-width: 0.8"/>
      </g>
     </g>
     <g id="text_4">
      <!-- −0.5 -->
      <g transform="translate(58.84 157.387449)scale(0.1 -0.1)">
       <use xlink:href="#Helvetica-2212"/>
       <use xlink:href="#Helvetica-30" x="58.398438"/>
       <use xlink:href="#Helvetica-2e" x="114.013672"/>
       <use xlink:href="#Helvetica-35" x="141.796875"/>
      </g>
     </g>
    </g>
    <g id="ytick_4">
     <g id="line2d_10">
      <g>
       <use xlink:href="#mb713187119" x="51.84" y="135.344115" style="stroke: #000000; stroke-width: 0.8"/>
      </g>
     </g>
     <g id="text_5">
      <!-- 0.0 -->
      <g transform="translate(58.84 138.930834)scale(0.1 -0.1)">
       <use xlink:href="#Helvetica-30"/>
       <use xlink:href="#Helvetica-2e" x="55.615234"/>
       <use xlink:href="#Helvetica-30" x="83.398438"/>
      </g>
     </g>
    </g>
    <g id="text_6">
     <!-- log2_MRL_10hpf -->
     <g transform="translate(-72.960938 142.023424)scale(0.1 -0.1)">
      <defs>
       <path id="Helvetica-31" d="M 613 3169 
L 613 3600 
Q 1222 3659 1462 3798 
Q 1703 3938 1822 4456 
L 2266 4456 
L 2266 0 
L 1666 0 
L 1666 3169 
L 613 3169 
z
" transform="scale(0.015625)"/>
      </defs>
      <use xlink:href="#Helvetica-6c"/>
      <use xlink:href="#Helvetica-6f" x="22.216797"/>
      <use xlink:href="#Helvetica-67" x="77.832031"/>
      <use xlink:href="#Helvetica-32" x="133.447266"/>
      <use xlink:href="#Helvetica-5f" x="189.0625"/>
      <use xlink:href="#Helvetica-4d" x="244.677734"/>
      <use xlink:href="#Helvetica-52" x="327.978516"/>
      <use xlink:href="#Helvetica-4c" x="400.195312"/>
      <use xlink:href="#Helvetica-5f" x="455.810547"/>
      <use xlink:href="#Helvetica-31" x="511.425781"/>
      <use xlink:href="#Helvetica-30" x="567.041016"/>
      <use xlink:href="#Helvetica-68" x="622.65625"/>
      <use xlink:href="#Helvetica-70" x="678.271484"/>
      <use xlink:href="#Helvetica-66" x="733.886719"/>
     </g>
    </g>
   </g>
   <g id="patch_18">
    <path d="M 51.84 158.775652 
L 51.84 120.208696 
" style="fill: none; stroke: #000000; stroke-linejoin: miter; stroke-linecap: square"/>
   </g>
  </g>
  <g id="axes_4">
   <g id="patch_19">
    <path d="M 7.2 205.056 
L 51.84 205.056 
L 51.84 166.489043 
L 7.2 166.489043 
z
" style="fill: #ffffff"/>
   </g>
   <g id="line2d_11">
    <path d="M 7.2 181.624463 
L 51.84 181.624463 
" clip-path="url(#pb7111bd16f)" style="fill: none; stroke: #000000; stroke-width: 0.5; stroke-linecap: square"/>
   </g>
   <g id="patch_20">
    <path d="M 18.081 182.609723 
Q 18.081 182.365754 17.706812 182.180587 
Q 17.336187 181.996047 16.637703 181.872811 
Q 15.942782 181.749575 14.937819 181.687019 
Q 13.93642 181.624463 12.689126 181.624463 
Q 11.288593 181.624463 10.28363 181.687019 
Q 9.282231 181.749575 8.658584 181.866555 
Q 8.034937 181.984161 7.756968 182.152437 
Q 7.479 182.320713 7.479 182.529651 
L 7.479 184.224298 
L 10.219483 184.224298 
L 10.219483 182.559052 
Q 10.219483 182.430187 10.347776 182.330097 
Q 10.47607 182.230632 10.793239 182.161195 
Q 11.110408 182.091758 11.587943 182.056726 
Q 12.065479 182.021695 12.792473 182.021695 
Q 13.469575 182.021695 13.93642 182.051722 
Q 14.406828 182.081749 14.71687 182.149309 
Q 15.030475 182.21687 15.183714 182.32259 
Q 15.340517 182.42831 15.340517 182.578445 
L 15.340517 184.224298 
L 18.081 184.224298 
L 18.081 182.609723 
z
" clip-path="url(#pb7111bd16f)" style="fill: #e42638"/>
   </g>
   <g id="patch_21">
    <path d="M 29.241 187.094879 
Q 29.241 185.7403 28.866812 184.712209 
Q 28.496187 183.687591 27.797703 183.003355 
Q 27.102782 182.319119 26.097819 181.971791 
Q 25.09642 181.624463 23.849126 181.624463 
Q 22.448593 181.624463 21.44363 181.971791 
Q 20.442231 182.319119 19.818584 182.968622 
Q 19.194937 183.621599 18.916968 184.555911 
Q 18.639 185.490223 18.639 186.650299 
L 18.639 196.059414 
L 21.379483 196.059414 
L 21.379483 186.813543 
Q 21.379483 186.098047 21.507776 185.542323 
Q 21.63607 184.990071 21.953239 184.604537 
Q 22.270408 184.219003 22.747943 184.024499 
Q 23.225479 183.829996 23.952473 183.829996 
Q 24.629575 183.829996 25.09642 183.996713 
Q 25.566828 184.163431 25.87687 184.538545 
Q 26.190475 184.913659 26.343714 185.500643 
Q 26.500517 186.087628 26.500517 186.921215 
L 26.500517 196.059414 
L 29.241 196.059414 
L 29.241 187.094879 
z
" clip-path="url(#pb7111bd16f)" style="fill: #e42638"/>
   </g>
   <g id="patch_22">
    <path d="M 40.401 183.285201 
Q 40.401 182.873971 40.026812 182.561857 
Q 39.656187 182.250798 38.957703 182.043074 
Q 38.262782 181.83535 37.257819 181.729907 
Q 36.25642 181.624463 35.009126 181.624463 
Q 33.608593 181.624463 32.60363 181.729907 
Q 31.602231 181.83535 30.978584 182.03253 
Q 30.354937 182.230764 30.076968 182.514408 
Q 29.799 182.798051 29.799 183.150233 
L 29.799 186.006703 
L 32.539483 186.006703 
L 32.539483 183.199792 
Q 32.539483 182.982578 32.667776 182.813868 
Q 32.79607 182.646212 33.113239 182.52917 
Q 33.430408 182.412127 33.907943 182.353079 
Q 34.385479 182.29403 35.112473 182.29403 
Q 35.789575 182.29403 36.25642 182.344643 
Q 36.726828 182.395256 37.03687 182.509136 
Q 37.350475 182.623015 37.503714 182.801215 
Q 37.660517 182.979414 37.660517 183.232479 
L 37.660517 186.006703 
L 40.401 186.006703 
L 40.401 183.285201 
z
" clip-path="url(#pb7111bd16f)" style="fill: #e42638"/>
   </g>
   <g id="patch_23">
    <path d="M 51.561 184.646418 
Q 51.561 183.898124 51.186812 183.330189 
Q 50.816187 182.764172 50.117703 182.386187 
Q 49.422782 182.008203 48.417819 181.816333 
Q 47.41642 181.624463 46.169126 181.624463 
Q 44.768593 181.624463 43.76363 181.816333 
Q 42.762231 182.008203 42.138584 182.367 
Q 41.514937 182.727716 41.236968 183.243847 
Q 40.959 183.759978 40.959 184.400824 
L 40.959 189.598587 
L 43.699483 189.598587 
L 43.699483 184.491003 
Q 43.699483 184.095751 43.827776 183.788758 
Q 43.95607 183.483685 44.273239 183.270709 
Q 44.590408 183.057733 45.067943 182.950286 
Q 45.545479 182.842838 46.272473 182.842838 
Q 46.949575 182.842838 47.41642 182.934936 
Q 47.886828 183.027034 48.19687 183.234254 
Q 48.510475 183.441473 48.663714 183.765734 
Q 48.820517 184.089995 48.820517 184.550483 
L 48.820517 189.598587 
L 51.561 189.598587 
L 51.561 184.646418 
z
" clip-path="url(#pb7111bd16f)" style="fill: #e42638"/>
   </g>
   <g id="matplotlib.axis_7">
    <g id="xtick_4">
     <g id="line2d_12">
      <g>
       <use xlink:href="#m2a739f940a" x="46.26" y="205.056" style="stroke: #000000; stroke-width: 0.8"/>
      </g>
     </g>
     <g id="text_7">
      <!-- -1 -->
      <g transform="translate(41.814688 219.229438)scale(0.1 -0.1)">
       <defs>
        <path id="Helvetica-2d" d="M 266 2072 
L 1834 2072 
L 1834 1494 
L 266 1494 
L 266 2072 
z
" transform="scale(0.015625)"/>
       </defs>
       <use xlink:href="#Helvetica-2d"/>
       <use xlink:href="#Helvetica-31" x="33.300781"/>
      </g>
     </g>
    </g>
   </g>
   <g id="matplotlib.axis_8">
    <g id="ytick_5">
     <g id="line2d_13">
      <g>
       <use xlink:href="#mb713187119" x="51.84" y="200.081079" style="stroke: #000000; stroke-width: 0.8"/>
      </g>
     </g>
     <g id="text_8">
      <!-- −0.5 -->
      <g transform="translate(58.84 203.667797)scale(0.1 -0.1)">
       <use xlink:href="#Helvetica-2212"/>
       <use xlink:href="#Helvetica-30" x="58.398438"/>
       <use xlink:href="#Helvetica-2e" x="114.013672"/>
       <use xlink:href="#Helvetica-35" x="141.796875"/>
      </g>
     </g>
    </g>
    <g id="ytick_6">
     <g id="line2d_14">
      <g>
       <use xlink:href="#mb713187119" x="51.84" y="181.624463" style="stroke: #000000; stroke-width: 0.8"/>
      </g>
     </g>
     <g id="text_9">
      <!-- 0.0 -->
      <g transform="translate(58.84 185.211182)scale(0.1 -0.1)">
       <use xlink:href="#Helvetica-30"/>
       <use xlink:href="#Helvetica-2e" x="55.615234"/>
       <use xlink:href="#Helvetica-30" x="83.398438"/>
      </g>
     </g>
    </g>
    <g id="text_10">
     <!-- Δlog2_MRL_10-2hpf -->
     <g transform="translate(-89.073437 188.303772)scale(0.1 -0.1)">
      <defs>
       <path id="Helvetica-394" d="M 922 500 
L 3672 500 
L 2278 3941 
L 922 500 
z
M 1966 4519 
L 2631 4519 
L 4494 0 
L 128 0 
L 1966 4519 
z
" transform="scale(0.015625)"/>
      </defs>
      <use xlink:href="#Helvetica-394"/>
      <use xlink:href="#Helvetica-6c" x="72.216797"/>
      <use xlink:href="#Helvetica-6f" x="94.433594"/>
      <use xlink:href="#Helvetica-67" x="150.048828"/>
      <use xlink:href="#Helvetica-32" x="205.664062"/>
      <use xlink:href="#Helvetica-5f" x="261.279297"/>
      <use xlink:href="#Helvetica-4d" x="316.894531"/>
      <use xlink:href="#Helvetica-52" x="400.195312"/>
      <use xlink:href="#Helvetica-4c" x="472.412109"/>
      <use xlink:href="#Helvetica-5f" x="528.027344"/>
      <use xlink:href="#Helvetica-31" x="583.642578"/>
      <use xlink:href="#Helvetica-30" x="639.257812"/>
      <use xlink:href="#Helvetica-2d" x="694.873047"/>
      <use xlink:href="#Helvetica-32" x="728.173828"/>
      <use xlink:href="#Helvetica-68" x="783.789062"/>
      <use xlink:href="#Helvetica-70" x="839.404297"/>
      <use xlink:href="#Helvetica-66" x="895.019531"/>
     </g>
    </g>
   </g>
   <g id="patch_24">
    <path d="M 51.84 205.056 
L 51.84 166.489043 
" style="fill: none; stroke: #000000; stroke-linejoin: miter; stroke-linecap: square"/>
   </g>
  </g>
 </g>
 <defs>
  <clipPath id="pfdf068ec7a">
   <rect x="7.2" y="27.648" width="44.64" height="38.566957"/>
  </clipPath>
  <clipPath id="p264cd0c2ef">
   <rect x="7.2" y="73.928348" width="44.64" height="38.566957"/>
  </clipPath>
  <clipPath id="p9580f7f380">
   <rect x="7.2" y="120.208696" width="44.64" height="38.566957"/>
  </clipPath>
  <clipPath id="pb7111bd16f">
   <rect x="7.2" y="166.489043" width="44.64" height="38.566957"/>
  </clipPath>
 </defs>
</svg>
