<?xml version="1.0" encoding="utf-8" standalone="no"?>
<!DOCTYPE svg PUBLIC "-//W3C//DTD SVG 1.1//EN"
  "http://www.w3.org/Graphics/SVG/1.1/DTD/svg11.dtd">
<svg xmlns:xlink="http://www.w3.org/1999/xlink" width="57.6pt" height="230.4pt" viewBox="0 0 57.6 230.4" xmlns="http://www.w3.org/2000/svg" version="1.1">
 <metadata>
  <rdf:RDF xmlns:dc="http://purl.org/dc/elements/1.1/" xmlns:cc="http://creativecommons.org/ns#" xmlns:rdf="http://www.w3.org/1999/02/22-rdf-syntax-ns#">
   <cc:Work>
    <dc:type rdf:resource="http://purl.org/dc/dcmitype/StillImage"/>
    <dc:date>2023-11-22T21:47:03.924096</dc:date>
    <dc:format>image/svg+xml</dc:format>
    <dc:creator>
     <cc:Agent>
      <dc:title>Matplotlib v3.5.1, https://matplotlib.org/</dc:title>
     </cc:Agent>
    </dc:creator>
   </cc:Work>
  </rdf:RDF>
 </metadata>
 <defs>
  <style type="text/css">*{stroke-linejoin: round; stroke-linecap: butt}</style>
 </defs>
 <g id="figure_1">
  <g id="patch_1">
   <path d="M 0 230.4 
L 57.6 230.4 
L 57.6 0 
L 0 0 
z
" style="fill: #ffffff"/>
  </g>
  <g id="axes_1">
   <g id="patch_2">
    <path d="M 7.2 66.214957 
L 51.84 66.214957 
L 51.84 27.648 
L 7.2 27.648 
z
" style="fill: #ffffff"/>
   </g>
   <g id="line2d_1">
    <path d="M 7.2 66.214957 
L 51.84 66.214957 
" clip-path="url(#p355d1abba7)" style="fill: none; stroke: #000000; stroke-width: 0.5; stroke-linecap: square"/>
   </g>
   <g id="patch_3">
    <path d="M 15.501069 66.214957 
L 14.818146 58.603554 
L 10.492967 58.603554 
L 9.791833 66.214957 
L 7.479 66.214957 
L 11.148573 27.648 
L 14.411427 27.648 
L 18.081 66.214957 
L 15.501069 66.214957 
z
M 12.684391 34.73057 
L 11.054481 52.673082 
L 14.296089 52.673082 
L 12.684391 34.73057 
z
" clip-path="url(#p355d1abba7)" style="fill: #0f9447"/>
   </g>
   <g id="patch_4">
    <path d="M 24.245959 49.784064 
L 24.245959 43.98761 
L 29.241 43.98761 
L 29.241 63.878118 
Q 28.274994 65.073922 27.223045 65.639875 
Q 26.171095 66.214957 24.933508 66.214957 
Q 23.472467 66.214957 22.307072 65.019153 
Q 21.141677 63.814221 20.323494 61.449998 
Q 19.508749 59.085775 19.072156 55.580518 
Q 18.639 52.066132 18.639 47.447226 
Q 18.639 42.791806 19.09622 39.113112 
Q 19.55344 35.434417 20.426626 32.887629 
Q 21.303251 30.331712 22.575216 28.989856 
Q 23.850619 27.648 25.483547 27.648 
Q 26.449553 27.648 27.36743 28.095285 
Q 28.285307 28.533443 29.199747 29.272833 
L 29.199747 36.201192 
Q 28.405628 35.206211 27.44306 34.567231 
Q 26.480492 33.919124 25.504173 33.919124 
Q 24.514103 33.919124 23.7578 34.831951 
Q 23.001496 35.744779 22.489272 37.433509 
Q 21.980486 39.113112 21.71578 41.568617 
Q 21.454512 44.024123 21.454512 47.100351 
Q 21.454512 50.06704 21.657339 52.44952 
Q 21.860165 54.831999 22.317385 56.502473 
Q 22.774605 58.172947 23.493093 59.05839 
Q 24.215019 59.934704 25.246342 59.934704 
Q 25.49386 59.934704 25.67606 59.898191 
Q 25.858261 59.85255 26.019835 59.770395 
Q 26.181409 59.679113 26.325794 59.569573 
Q 26.470179 59.450906 26.631753 59.313982 
L 26.631753 49.784064 
L 24.245959 49.784064 
z
" clip-path="url(#p355d1abba7)" style="fill: #f5b328"/>
   </g>
   <g id="patch_5">
    <path d="M 40.401 51.599231 
Q 40.401 55.218363 40.026812 57.965191 
Q 39.656187 60.70274 38.957703 62.530866 
Q 38.262782 64.358991 37.257819 65.286974 
Q 36.25642 66.214957 35.009126 66.214957 
Q 33.608593 66.214957 32.60363 65.286974 
Q 31.602231 64.358991 30.978584 62.623664 
Q 30.354937 60.879057 30.076968 58.382783 
Q 29.799 55.88651 29.799 52.787048 
L 29.799 27.648 
L 32.539483 27.648 
L 32.539483 52.350897 
Q 32.539483 54.262541 32.667776 55.747313 
Q 32.79607 57.222805 33.113239 58.252866 
Q 33.430408 59.282927 33.907943 59.802597 
Q 34.385479 60.322267 35.112473 60.322267 
Q 35.789575 60.322267 36.25642 59.876835 
Q 36.726828 59.431404 37.03687 58.429183 
Q 37.350475 57.426961 37.503714 55.858671 
Q 37.660517 54.29038 37.660517 52.063222 
L 37.660517 27.648 
L 40.401 27.648 
L 40.401 51.599231 
z
" clip-path="url(#p355d1abba7)" style="fill: #e42638"/>
   </g>
   <g id="patch_6">
    <path d="M 51.561 64.239284 
Q 50.560395 65.240904 49.622328 65.72793 
Q 48.68426 66.214957 47.672619 66.214957 
Q 46.053993 66.214957 44.806915 65.029553 
Q 43.559838 63.834961 42.702702 61.482533 
Q 41.845566 59.120915 41.400443 55.638219 
Q 40.959 52.146334 40.959 47.52418 
Q 40.959 42.782567 41.440909 39.097709 
Q 41.926497 35.403661 42.82042 32.86745 
Q 43.718022 30.322049 44.998207 28.989619 
Q 46.282072 27.648 47.882305 27.648 
Q 48.397322 27.648 48.849802 27.712324 
Q 49.30596 27.767459 49.743724 27.923675 
Q 50.181489 28.079891 50.626611 28.337188 
Q 51.075412 28.594485 51.561 28.998808 
L 51.561 36.010147 
Q 50.582467 34.8615 49.695901 34.374474 
Q 48.813015 33.878259 48.088312 33.878259 
Q 47.017811 33.878259 46.26 34.843122 
Q 45.502189 35.807985 45.012922 37.544739 
Q 44.523656 39.281492 44.291898 41.679866 
Q 44.063819 44.07824 44.063819 46.945262 
Q 44.063819 49.996067 44.299255 52.394441 
Q 44.534692 54.783626 45.027637 56.456055 
Q 45.524261 58.119296 46.293108 59.001456 
Q 47.065634 59.874428 48.12142 59.874428 
Q 48.500325 59.874428 48.941769 59.690644 
Q 49.386891 59.497672 49.839371 59.194429 
Q 50.295529 58.891186 50.736972 58.477673 
Q 51.178416 58.064161 51.561 57.63227 
L 51.561 64.239284 
z
" clip-path="url(#p355d1abba7)" style="fill: #233f99"/>
   </g>
   <g id="matplotlib.axis_1">
    <g id="xtick_1">
     <g id="line2d_2">
      <defs>
       <path id="m389e1f5a00" d="M 0 0 
L 0 3.5 
" style="stroke: #000000; stroke-width: 0.8"/>
      </defs>
      <g>
       <use xlink:href="#m389e1f5a00" x="46.26" y="66.214957" style="stroke: #000000; stroke-width: 0.8"/>
      </g>
     </g>
    </g>
   </g>
   <g id="matplotlib.axis_2"/>
  </g>
  <g id="axes_2">
   <g id="patch_7">
    <path d="M 7.2 112.495304 
L 51.84 112.495304 
L 51.84 73.928348 
L 7.2 73.928348 
z
" style="fill: #ffffff"/>
   </g>
   <g id="line2d_3">
    <path d="M 7.2 103.728357 
L 51.84 103.728357 
" clip-path="url(#pdceb79e10d)" style="fill: none; stroke: #000000; stroke-width: 0.5; stroke-linecap: square"/>
   </g>
   <g id="patch_8">
    <path d="M 15.501069 103.728357 
L 14.818146 102.462581 
L 10.492967 102.462581 
L 9.791833 103.728357 
L 7.479 103.728357 
L 11.148573 97.314674 
L 14.411427 97.314674 
L 18.081 103.728357 
L 15.501069 103.728357 
z
M 12.684391 98.492505 
L 11.054481 101.476344 
L 14.296089 101.476344 
L 12.684391 98.492505 
z
" clip-path="url(#pdceb79e10d)" style="fill: #0f9447"/>
   </g>
   <g id="patch_9">
    <path d="M 24.245959 98.327176 
L 24.245959 96.42176 
L 29.241 96.42176 
L 29.241 102.960189 
Q 28.274994 103.353275 27.223045 103.539315 
Q 26.171095 103.728357 24.933508 103.728357 
Q 23.472467 103.728357 22.307072 103.335271 
Q 21.141677 102.939184 20.323494 102.162014 
Q 19.508749 101.384844 19.072156 100.232593 
Q 18.639 99.07734 18.639 97.559008 
Q 18.639 96.028674 19.09622 94.81941 
Q 19.55344 93.610146 20.426626 92.772963 
Q 21.303251 91.932779 22.575216 91.491683 
Q 23.850619 91.050586 25.483547 91.050586 
Q 26.449553 91.050586 27.36743 91.197618 
Q 28.285307 91.34165 29.199747 91.584703 
L 29.199747 93.862201 
Q 28.405628 93.535129 27.44306 93.325083 
Q 26.480492 93.112037 25.504173 93.112037 
Q 24.514103 93.112037 23.7578 93.412102 
Q 23.001496 93.712168 22.489272 94.267289 
Q 21.980486 94.81941 21.71578 95.626586 
Q 21.454512 96.433763 21.454512 97.444984 
Q 21.454512 98.420197 21.657339 99.203368 
Q 21.860165 99.986539 22.317385 100.535659 
Q 22.774605 101.084779 23.493093 101.375843 
Q 24.215019 101.663905 25.246342 101.663905 
Q 25.49386 101.663905 25.67606 101.651903 
Q 25.858261 101.6369 26.019835 101.609894 
Q 26.181409 101.579887 26.325794 101.543879 
Q 26.470179 101.504871 26.631753 101.459861 
L 26.631753 98.327176 
L 24.245959 98.327176 
z
" clip-path="url(#pdceb79e10d)" style="fill: #f5b328"/>
   </g>
   <g id="patch_10">
    <path d="M 40.401 101.690297 
Q 40.401 102.194959 40.026812 102.577985 
Q 39.656187 102.959717 38.957703 103.214636 
Q 38.262782 103.469555 37.257819 103.598956 
Q 36.25642 103.728357 35.009126 103.728357 
Q 33.608593 103.728357 32.60363 103.598956 
Q 31.602231 103.469555 30.978584 103.227576 
Q 30.354937 102.984303 30.076968 102.636215 
Q 29.799 102.288127 29.799 101.855929 
L 29.799 98.350466 
L 32.539483 98.350466 
L 32.539483 101.795111 
Q 32.539483 102.061676 32.667776 102.268717 
Q 32.79607 102.474464 33.113239 102.618099 
Q 33.430408 102.761734 33.907943 102.834198 
Q 34.385479 102.906663 35.112473 102.906663 
Q 35.789575 102.906663 36.25642 102.84455 
Q 36.726828 102.782438 37.03687 102.642685 
Q 37.350475 102.502933 37.503714 102.284245 
Q 37.660517 102.065558 37.660517 101.754997 
L 37.660517 98.350466 
L 40.401 98.350466 
L 40.401 101.690297 
z
" clip-path="url(#pdceb79e10d)" style="fill: #e42638"/>
   </g>
   <g id="patch_11">
    <path d="M 51.561 103.557149 
Q 50.560395 103.643947 49.622328 103.686152 
Q 48.68426 103.728357 47.672619 103.728357 
Q 46.053993 103.728357 44.806915 103.625632 
Q 43.559838 103.522111 42.702702 103.318255 
Q 41.845566 103.113603 41.400443 102.8118 
Q 40.959 102.509201 40.959 102.108655 
Q 40.959 101.697757 41.440909 101.378435 
Q 41.926497 101.058317 42.82042 100.838535 
Q 43.718022 100.617956 44.998207 100.50249 
Q 46.282072 100.386229 47.882305 100.386229 
Q 48.397322 100.386229 48.849802 100.391803 
Q 49.30596 100.396581 49.743724 100.410118 
Q 50.181489 100.423655 50.626611 100.445952 
Q 51.075412 100.468249 51.561 100.503287 
L 51.561 101.110874 
Q 50.582467 101.011335 49.695901 100.96913 
Q 48.813015 100.926129 48.088312 100.926129 
Q 47.017811 100.926129 46.26 101.009742 
Q 45.502189 101.093355 45.012922 101.243858 
Q 44.523656 101.394362 44.291898 101.602199 
Q 44.063819 101.810037 44.063819 102.058487 
Q 44.063819 102.322863 44.299255 102.530701 
Q 44.534692 102.737743 45.027637 102.882672 
Q 45.524261 103.026804 46.293108 103.10325 
Q 47.065634 103.1789 48.12142 103.1789 
Q 48.500325 103.1789 48.941769 103.162974 
Q 49.386891 103.146251 49.839371 103.119973 
Q 50.295529 103.093695 50.736972 103.057861 
Q 51.178416 103.022026 51.561 102.9846 
L 51.561 103.557149 
z
" clip-path="url(#pdceb79e10d)" style="fill: #233f99"/>
   </g>
   <g id="matplotlib.axis_3">
    <g id="xtick_2">
     <g id="line2d_4">
      <g>
       <use xlink:href="#m389e1f5a00" x="46.26" y="112.495304" style="stroke: #000000; stroke-width: 0.8"/>
      </g>
     </g>
    </g>
   </g>
   <g id="matplotlib.axis_4">
    <g id="ytick_1">
     <g id="line2d_5">
      <defs>
       <path id="m86e101ab9f" d="M 0 0 
L 3.5 0 
" style="stroke: #000000; stroke-width: 0.8"/>
      </defs>
      <g>
       <use xlink:href="#m86e101ab9f" x="51.84" y="103.728357" style="stroke: #000000; stroke-width: 0.8"/>
      </g>
     </g>
     <g id="text_1">
      <!-- 0.0 -->
      <g transform="translate(58.84 107.315075)scale(0.1 -0.1)">
       <defs>
        <path id="Helvetica-30" d="M 1731 4475 
Q 2600 4475 2988 3759 
Q 3288 3206 3288 2244 
Q 3288 1331 3016 734 
Q 2622 -122 1728 -122 
Q 922 -122 528 578 
Q 200 1163 200 2147 
Q 200 2909 397 3456 
Q 766 4475 1731 4475 
z
M 1725 391 
Q 2163 391 2422 778 
Q 2681 1166 2681 2222 
Q 2681 2984 2493 3476 
Q 2306 3969 1766 3969 
Q 1269 3969 1039 3501 
Q 809 3034 809 2125 
Q 809 1441 956 1025 
Q 1181 391 1725 391 
z
" transform="scale(0.015625)"/>
        <path id="Helvetica-2e" d="M 547 681 
L 1200 681 
L 1200 0 
L 547 0 
L 547 681 
z
" transform="scale(0.015625)"/>
       </defs>
       <use xlink:href="#Helvetica-30"/>
       <use xlink:href="#Helvetica-2e" x="55.615234"/>
       <use xlink:href="#Helvetica-30" x="83.398438"/>
      </g>
     </g>
    </g>
    <g id="ytick_2">
     <g id="line2d_6">
      <g>
       <use xlink:href="#m86e101ab9f" x="51.84" y="77.683881" style="stroke: #000000; stroke-width: 0.8"/>
      </g>
     </g>
     <g id="text_2">
      <!-- 0.5 -->
      <g transform="translate(58.84 81.270599)scale(0.1 -0.1)">
       <defs>
        <path id="Helvetica-35" d="M 791 1141 
Q 847 659 1238 475 
Q 1438 381 1700 381 
Q 2200 381 2440 700 
Q 2681 1019 2681 1406 
Q 2681 1875 2395 2131 
Q 2109 2388 1709 2388 
Q 1419 2388 1211 2275 
Q 1003 2163 856 1963 
L 369 1991 
L 709 4400 
L 3034 4400 
L 3034 3856 
L 1131 3856 
L 941 2613 
Q 1097 2731 1238 2791 
Q 1488 2894 1816 2894 
Q 2431 2894 2859 2497 
Q 3288 2100 3288 1491 
Q 3288 856 2895 371 
Q 2503 -113 1644 -113 
Q 1097 -113 676 195 
Q 256 503 206 1141 
L 791 1141 
z
" transform="scale(0.015625)"/>
       </defs>
       <use xlink:href="#Helvetica-30"/>
       <use xlink:href="#Helvetica-2e" x="55.615234"/>
       <use xlink:href="#Helvetica-35" x="83.398438"/>
      </g>
     </g>
    </g>
    <g id="text_3">
     <!-- log2_MRL_2hpf -->
     <g transform="translate(-67.4 95.743076)scale(0.1 -0.1)">
      <defs>
       <path id="Helvetica-6c" d="M 428 4591 
L 991 4591 
L 991 0 
L 428 0 
L 428 4591 
z
" transform="scale(0.015625)"/>
       <path id="Helvetica-6f" d="M 1741 363 
Q 2300 363 2508 786 
Q 2716 1209 2716 1728 
Q 2716 2197 2566 2491 
Q 2328 2953 1747 2953 
Q 1231 2953 997 2559 
Q 763 2166 763 1609 
Q 763 1075 997 719 
Q 1231 363 1741 363 
z
M 1763 3444 
Q 2409 3444 2856 3012 
Q 3303 2581 3303 1744 
Q 3303 934 2909 406 
Q 2516 -122 1688 -122 
Q 997 -122 590 345 
Q 184 813 184 1600 
Q 184 2444 612 2944 
Q 1041 3444 1763 3444 
z
M 1744 3428 
L 1744 3428 
z
" transform="scale(0.015625)"/>
       <path id="Helvetica-67" d="M 1594 3406 
Q 1988 3406 2281 3213 
Q 2441 3103 2606 2894 
L 2606 3316 
L 3125 3316 
L 3125 272 
Q 3125 -366 2938 -734 
Q 2588 -1416 1616 -1416 
Q 1075 -1416 706 -1173 
Q 338 -931 294 -416 
L 866 -416 
Q 906 -641 1028 -763 
Q 1219 -950 1628 -950 
Q 2275 -950 2475 -494 
Q 2594 -225 2584 466 
Q 2416 209 2178 84 
Q 1941 -41 1550 -41 
Q 1006 -41 598 345 
Q 191 731 191 1622 
Q 191 2463 602 2934 
Q 1013 3406 1594 3406 
z
M 2606 1688 
Q 2606 2309 2350 2609 
Q 2094 2909 1697 2909 
Q 1103 2909 884 2353 
Q 769 2056 769 1575 
Q 769 1009 998 714 
Q 1228 419 1616 419 
Q 2222 419 2469 966 
Q 2606 1275 2606 1688 
z
M 1659 3428 
L 1659 3428 
z
" transform="scale(0.015625)"/>
       <path id="Helvetica-32" d="M 200 0 
Q 231 578 439 1006 
Q 647 1434 1250 1784 
L 1850 2131 
Q 2253 2366 2416 2531 
Q 2672 2791 2672 3125 
Q 2672 3516 2437 3745 
Q 2203 3975 1813 3975 
Q 1234 3975 1013 3538 
Q 894 3303 881 2888 
L 309 2888 
Q 319 3472 525 3841 
Q 891 4491 1816 4491 
Q 2584 4491 2939 4075 
Q 3294 3659 3294 3150 
Q 3294 2613 2916 2231 
Q 2697 2009 2131 1694 
L 1703 1456 
Q 1397 1288 1222 1134 
Q 909 863 828 531 
L 3272 531 
L 3272 0 
L 200 0 
z
" transform="scale(0.015625)"/>
       <path id="Helvetica-5f" d="M 0 -800 
L 0 -484 
L 3559 -484 
L 3559 -800 
L 0 -800 
z
" transform="scale(0.015625)"/>
       <path id="Helvetica-4d" d="M 472 4591 
L 1363 4591 
L 2681 709 
L 3991 4591 
L 4872 4591 
L 4872 0 
L 4281 0 
L 4281 2709 
Q 4281 2850 4287 3175 
Q 4294 3500 4294 3872 
L 2984 0 
L 2369 0 
L 1050 3872 
L 1050 3731 
Q 1050 3563 1058 3217 
Q 1066 2872 1066 2709 
L 1066 0 
L 472 0 
L 472 4591 
z
" transform="scale(0.015625)"/>
       <path id="Helvetica-52" d="M 2622 2488 
Q 3059 2488 3314 2663 
Q 3569 2838 3569 3294 
Q 3569 3784 3213 3963 
Q 3022 4056 2703 4056 
L 1184 4056 
L 1184 2488 
L 2622 2488 
z
M 563 4591 
L 2688 4591 
Q 3213 4591 3553 4438 
Q 4200 4144 4200 3353 
Q 4200 2941 4029 2678 
Q 3859 2416 3553 2256 
Q 3822 2147 3958 1969 
Q 4094 1791 4109 1391 
L 4131 775 
Q 4141 513 4175 384 
Q 4231 166 4375 103 
L 4375 0 
L 3613 0 
Q 3581 59 3562 153 
Q 3544 247 3531 516 
L 3494 1281 
Q 3472 1731 3159 1884 
Q 2981 1969 2600 1969 
L 1184 1969 
L 1184 0 
L 563 0 
L 563 4591 
z
" transform="scale(0.015625)"/>
       <path id="Helvetica-4c" d="M 488 4591 
L 1109 4591 
L 1109 547 
L 3434 547 
L 3434 0 
L 488 0 
L 488 4591 
z
" transform="scale(0.015625)"/>
       <path id="Helvetica-68" d="M 413 4606 
L 975 4606 
L 975 2894 
Q 1175 3147 1334 3250 
Q 1606 3428 2013 3428 
Q 2741 3428 3000 2919 
Q 3141 2641 3141 2147 
L 3141 0 
L 2563 0 
L 2563 2109 
Q 2563 2478 2469 2650 
Q 2316 2925 1894 2925 
Q 1544 2925 1259 2684 
Q 975 2444 975 1775 
L 975 0 
L 413 0 
L 413 4606 
z
" transform="scale(0.015625)"/>
       <path id="Helvetica-70" d="M 1825 378 
Q 2219 378 2480 708 
Q 2741 1038 2741 1694 
Q 2741 2094 2625 2381 
Q 2406 2934 1825 2934 
Q 1241 2934 1025 2350 
Q 909 2038 909 1556 
Q 909 1169 1025 897 
Q 1244 378 1825 378 
z
M 369 3331 
L 916 3331 
L 916 2888 
Q 1084 3116 1284 3241 
Q 1569 3428 1953 3428 
Q 2522 3428 2919 2992 
Q 3316 2556 3316 1747 
Q 3316 653 2744 184 
Q 2381 -113 1900 -113 
Q 1522 -113 1266 53 
Q 1116 147 931 375 
L 931 -1334 
L 369 -1334 
L 369 3331 
z
" transform="scale(0.015625)"/>
       <path id="Helvetica-66" d="M 553 3856 
Q 566 4206 675 4369 
Q 872 4656 1434 4656 
Q 1488 4656 1544 4653 
Q 1600 4650 1672 4644 
L 1672 4131 
Q 1584 4138 1545 4139 
Q 1506 4141 1472 4141 
Q 1216 4141 1166 4008 
Q 1116 3875 1116 3331 
L 1672 3331 
L 1672 2888 
L 1109 2888 
L 1109 0 
L 553 0 
L 553 2888 
L 88 2888 
L 88 3331 
L 553 3331 
L 553 3856 
z
" transform="scale(0.015625)"/>
      </defs>
      <use xlink:href="#Helvetica-6c"/>
      <use xlink:href="#Helvetica-6f" x="22.216797"/>
      <use xlink:href="#Helvetica-67" x="77.832031"/>
      <use xlink:href="#Helvetica-32" x="133.447266"/>
      <use xlink:href="#Helvetica-5f" x="189.0625"/>
      <use xlink:href="#Helvetica-4d" x="244.677734"/>
      <use xlink:href="#Helvetica-52" x="327.978516"/>
      <use xlink:href="#Helvetica-4c" x="400.195312"/>
      <use xlink:href="#Helvetica-5f" x="455.810547"/>
      <use xlink:href="#Helvetica-32" x="511.425781"/>
      <use xlink:href="#Helvetica-68" x="567.041016"/>
      <use xlink:href="#Helvetica-70" x="622.65625"/>
      <use xlink:href="#Helvetica-66" x="678.271484"/>
     </g>
    </g>
   </g>
   <g id="patch_12">
    <path d="M 51.84 112.495304 
L 51.84 73.928348 
" style="fill: none; stroke: #000000; stroke-linejoin: miter; stroke-linecap: square"/>
   </g>
  </g>
  <g id="axes_3">
   <g id="patch_13">
    <path d="M 7.2 158.775652 
L 51.84 158.775652 
L 51.84 120.208696 
L 7.2 120.208696 
z
" style="fill: #ffffff"/>
   </g>
   <g id="line2d_7">
    <path d="M 7.2 150.008704 
L 51.84 150.008704 
" clip-path="url(#p389b45a4fc)" style="fill: none; stroke: #000000; stroke-width: 0.5; stroke-linecap: square"/>
   </g>
   <g id="patch_14">
    <path d="M 15.501069 150.008704 
L 14.818146 147.587849 
L 10.492967 147.587849 
L 9.791833 150.008704 
L 7.479 150.008704 
L 11.148573 137.742234 
L 14.411427 137.742234 
L 18.081 150.008704 
L 15.501069 150.008704 
z
M 12.684391 139.994891 
L 11.054481 145.701623 
L 14.296089 145.701623 
L 12.684391 139.994891 
z
" clip-path="url(#p389b45a4fc)" style="fill: #0f9447"/>
   </g>
   <g id="patch_15">
    <path d="M 24.245959 137.312843 
L 24.245959 132.834025 
L 29.241 132.834025 
L 29.241 148.203071 
Q 28.274994 149.127047 27.223045 149.564349 
Q 26.171095 150.008704 24.933508 150.008704 
Q 23.472467 150.008704 22.307072 149.084728 
Q 21.141677 148.153698 20.323494 146.326905 
Q 19.508749 144.500111 19.072156 141.791661 
Q 18.639 139.076157 18.639 135.507209 
Q 18.639 131.910048 19.09622 129.067586 
Q 19.55344 126.225123 20.426626 124.257265 
Q 21.303251 122.282353 22.575216 121.245524 
Q 23.850619 120.208696 25.483547 120.208696 
Q 26.449553 120.208696 27.36743 120.554305 
Q 28.285307 120.892862 29.199747 121.464175 
L 29.199747 126.817597 
Q 28.405628 126.048792 27.44306 125.555064 
Q 26.480492 125.054283 25.504173 125.054283 
Q 24.514103 125.054283 23.7578 125.759609 
Q 23.001496 126.464934 22.489272 127.769787 
Q 21.980486 129.067586 21.71578 130.964912 
Q 21.454512 132.862238 21.454512 135.239185 
Q 21.454512 137.531494 21.657339 139.372394 
Q 21.860165 141.213294 22.317385 142.504039 
Q 22.774605 143.794785 23.493093 144.478951 
Q 24.215019 145.156064 25.246342 145.156064 
Q 25.49386 145.156064 25.67606 145.127851 
Q 25.858261 145.092585 26.019835 145.029105 
Q 26.181409 144.958573 26.325794 144.873934 
Q 26.470179 144.782241 26.631753 144.676442 
L 26.631753 137.312843 
L 24.245959 137.312843 
z
" clip-path="url(#p389b45a4fc)" style="fill: #f5b328"/>
   </g>
   <g id="patch_16">
    <path d="M 40.401 146.456966 
Q 40.401 147.336444 40.026812 148.003945 
Q 39.656187 148.669192 38.957703 149.113441 
Q 38.262782 149.55769 37.257819 149.783197 
Q 36.25642 150.008704 35.009126 150.008704 
Q 33.608593 150.008704 32.60363 149.783197 
Q 31.602231 149.55769 30.978584 149.135992 
Q 30.354937 148.712038 30.076968 148.105424 
Q 29.799 147.498809 29.799 146.745615 
L 29.799 140.636625 
L 32.539483 140.636625 
L 32.539483 146.639627 
Q 32.539483 147.104172 32.667776 147.464983 
Q 32.79607 147.82354 33.113239 148.073853 
Q 33.430408 148.324166 33.907943 148.45045 
Q 34.385479 148.576734 35.112473 148.576734 
Q 35.789575 148.576734 36.25642 148.46849 
Q 36.726828 148.360247 37.03687 148.116699 
Q 37.350475 147.873151 37.503714 147.492044 
Q 37.660517 147.110937 37.660517 146.56972 
L 37.660517 140.636625 
L 40.401 140.636625 
L 40.401 146.456966 
z
" clip-path="url(#p389b45a4fc)" style="fill: #e42638"/>
   </g>
   <g id="patch_17">
    <path d="M 51.561 149.616734 
Q 50.560395 149.815454 49.622328 149.912079 
Q 48.68426 150.008704 47.672619 150.008704 
Q 46.053993 150.008704 44.806915 149.773522 
Q 43.559838 149.536517 42.702702 149.069799 
Q 41.845566 148.601258 41.400443 147.910296 
Q 40.959 147.217512 40.959 146.300484 
Q 40.959 145.359755 41.440909 144.628685 
Q 41.926497 143.895792 42.82042 143.392612 
Q 43.718022 142.887608 44.998207 142.623256 
Q 46.282072 142.357081 47.882305 142.357081 
Q 48.397322 142.357081 48.849802 142.369843 
Q 49.30596 142.380781 49.743724 142.411774 
Q 50.181489 142.442767 50.626611 142.493815 
Q 51.075412 142.544862 51.561 142.625079 
L 51.561 144.016118 
Q 50.582467 143.788228 49.695901 143.691603 
Q 48.813015 143.593154 48.088312 143.593154 
Q 47.017811 143.593154 46.26 143.784582 
Q 45.502189 143.976009 45.012922 144.320578 
Q 44.523656 144.665147 44.291898 145.140981 
Q 44.063819 145.616815 44.063819 146.185627 
Q 44.063819 146.790902 44.299255 147.266736 
Q 44.534692 147.740746 45.027637 148.072554 
Q 45.524261 148.402538 46.293108 148.577557 
Q 47.065634 148.750753 48.12142 148.750753 
Q 48.500325 148.750753 48.941769 148.714291 
Q 49.386891 148.676006 49.839371 148.615843 
Q 50.295529 148.55568 50.736972 148.47364 
Q 51.178416 148.391599 51.561 148.305913 
L 51.561 149.616734 
z
" clip-path="url(#p389b45a4fc)" style="fill: #233f99"/>
   </g>
   <g id="matplotlib.axis_5">
    <g id="xtick_3">
     <g id="line2d_8">
      <g>
       <use xlink:href="#m389e1f5a00" x="46.26" y="158.775652" style="stroke: #000000; stroke-width: 0.8"/>
      </g>
     </g>
    </g>
   </g>
   <g id="matplotlib.axis_6">
    <g id="ytick_3">
     <g id="line2d_9">
      <g>
       <use xlink:href="#m86e101ab9f" x="51.84" y="150.008704" style="stroke: #000000; stroke-width: 0.8"/>
      </g>
     </g>
     <g id="text_4">
      <!-- 0.0 -->
      <g transform="translate(58.84 153.595423)scale(0.1 -0.1)">
       <use xlink:href="#Helvetica-30"/>
       <use xlink:href="#Helvetica-2e" x="55.615234"/>
       <use xlink:href="#Helvetica-30" x="83.398438"/>
      </g>
     </g>
    </g>
    <g id="ytick_4">
     <g id="line2d_10">
      <g>
       <use xlink:href="#m86e101ab9f" x="51.84" y="123.964228" style="stroke: #000000; stroke-width: 0.8"/>
      </g>
     </g>
     <g id="text_5">
      <!-- 0.5 -->
      <g transform="translate(58.84 127.550947)scale(0.1 -0.1)">
       <use xlink:href="#Helvetica-30"/>
       <use xlink:href="#Helvetica-2e" x="55.615234"/>
       <use xlink:href="#Helvetica-35" x="83.398438"/>
      </g>
     </g>
    </g>
    <g id="text_6">
     <!-- log2_MRL_10hpf -->
     <g transform="translate(-72.960938 142.023424)scale(0.1 -0.1)">
      <defs>
       <path id="Helvetica-31" d="M 613 3169 
L 613 3600 
Q 1222 3659 1462 3798 
Q 1703 3938 1822 4456 
L 2266 4456 
L 2266 0 
L 1666 0 
L 1666 3169 
L 613 3169 
z
" transform="scale(0.015625)"/>
      </defs>
      <use xlink:href="#Helvetica-6c"/>
      <use xlink:href="#Helvetica-6f" x="22.216797"/>
      <use xlink:href="#Helvetica-67" x="77.832031"/>
      <use xlink:href="#Helvetica-32" x="133.447266"/>
      <use xlink:href="#Helvetica-5f" x="189.0625"/>
      <use xlink:href="#Helvetica-4d" x="244.677734"/>
      <use xlink:href="#Helvetica-52" x="327.978516"/>
      <use xlink:href="#Helvetica-4c" x="400.195312"/>
      <use xlink:href="#Helvetica-5f" x="455.810547"/>
      <use xlink:href="#Helvetica-31" x="511.425781"/>
      <use xlink:href="#Helvetica-30" x="567.041016"/>
      <use xlink:href="#Helvetica-68" x="622.65625"/>
      <use xlink:href="#Helvetica-70" x="678.271484"/>
      <use xlink:href="#Helvetica-66" x="733.886719"/>
     </g>
    </g>
   </g>
   <g id="patch_18">
    <path d="M 51.84 158.775652 
L 51.84 120.208696 
" style="fill: none; stroke: #000000; stroke-linejoin: miter; stroke-linecap: square"/>
   </g>
  </g>
  <g id="axes_4">
   <g id="patch_19">
    <path d="M 7.2 205.056 
L 51.84 205.056 
L 51.84 166.489043 
L 7.2 166.489043 
z
" style="fill: #ffffff"/>
   </g>
   <g id="line2d_11">
    <path d="M 7.2 196.289052 
L 51.84 196.289052 
" clip-path="url(#pca74733f90)" style="fill: none; stroke: #000000; stroke-width: 0.5; stroke-linecap: square"/>
   </g>
   <g id="patch_20">
    <path d="M 15.501069 196.289052 
L 14.818146 194.936625 
L 10.492967 194.936625 
L 9.791833 196.289052 
L 7.479 196.289052 
L 11.148573 189.436309 
L 14.411427 189.436309 
L 18.081 196.289052 
L 15.501069 196.289052 
z
M 12.684391 190.694771 
L 11.054481 193.882874 
L 14.296089 193.882874 
L 12.684391 190.694771 
z
" clip-path="url(#pca74733f90)" style="fill: #0f9447"/>
   </g>
   <g id="patch_21">
    <path d="M 24.245959 188.4019 
L 24.245959 185.619487 
L 29.241 185.619487 
L 29.241 195.167324 
Q 28.274994 195.741333 27.223045 196.013002 
Q 26.171095 196.289052 24.933508 196.289052 
Q 23.472467 196.289052 22.307072 195.715043 
Q 21.141677 195.136652 20.323494 194.001778 
Q 19.508749 192.866904 19.072156 191.184312 
Q 18.639 189.497337 18.639 187.280171 
Q 18.639 185.045478 19.09622 183.279632 
Q 19.55344 181.513786 20.426626 180.291278 
Q 21.303251 179.064387 22.575216 178.42027 
Q 23.850619 177.776152 25.483547 177.776152 
Q 26.449553 177.776152 27.36743 177.990858 
Q 28.285307 178.201182 29.199747 178.556104 
L 29.199747 181.881853 
Q 28.405628 181.404243 27.44306 181.09752 
Q 26.480492 180.786416 25.504173 180.786416 
Q 24.514103 180.786416 23.7578 181.224591 
Q 23.001496 181.662766 22.489272 182.47339 
Q 21.980486 183.279632 21.71578 184.458323 
Q 21.454512 185.637014 21.454512 187.113665 
Q 21.454512 188.537734 21.657339 189.681371 
Q 21.860165 190.825008 22.317385 191.626869 
Q 22.774605 192.428729 23.493093 192.853759 
Q 24.215019 193.274407 25.246342 193.274407 
Q 25.49386 193.274407 25.67606 193.25688 
Q 25.858261 193.234971 26.019835 193.195536 
Q 26.181409 193.151718 26.325794 193.099137 
Q 26.470179 193.042174 26.631753 192.976448 
L 26.631753 188.4019 
L 24.245959 188.4019 
z
" clip-path="url(#pca74733f90)" style="fill: #f5b328"/>
   </g>
   <g id="patch_22">
    <path d="M 40.401 194.519265 
Q 40.401 194.957498 40.026812 195.290106 
Q 39.656187 195.62159 38.957703 195.842953 
Q 38.262782 196.064317 37.257819 196.176685 
Q 36.25642 196.289052 35.009126 196.289052 
Q 33.608593 196.289052 32.60363 196.176685 
Q 31.602231 196.064317 30.978584 195.85419 
Q 30.354937 195.642939 30.076968 195.340671 
Q 29.799 195.038402 29.799 194.663095 
L 29.799 191.619061 
L 32.539483 191.619061 
L 32.539483 194.610282 
Q 32.539483 194.841759 32.667776 195.021547 
Q 32.79607 195.200212 33.113239 195.324939 
Q 33.430408 195.449667 33.907943 195.512593 
Q 34.385479 195.575519 35.112473 195.575519 
Q 35.789575 195.575519 36.25642 195.521582 
Q 36.726828 195.467646 37.03687 195.346289 
Q 37.350475 195.224932 37.503714 195.035031 
Q 37.660517 194.84513 37.660517 194.575448 
L 37.660517 191.619061 
L 40.401 191.619061 
L 40.401 194.519265 
z
" clip-path="url(#pca74733f90)" style="fill: #e42638"/>
   </g>
   <g id="patch_23">
    <path d="M 51.561 196.043806 
Q 50.560395 196.16814 49.622328 196.228596 
Q 48.68426 196.289052 47.672619 196.289052 
Q 46.053993 196.289052 44.806915 196.141904 
Q 43.559838 195.993616 42.702702 195.701601 
Q 41.845566 195.408446 41.400443 194.976128 
Q 40.959 194.542669 40.959 193.968907 
Q 40.959 193.380315 41.440909 192.922902 
Q 41.926497 192.464349 42.82042 192.149521 
Q 43.718022 191.833552 44.998207 191.668153 
Q 46.282072 191.501614 47.882305 191.501614 
Q 48.397322 191.501614 48.849802 191.509598 
Q 49.30596 191.516443 49.743724 191.535834 
Q 50.181489 191.555226 50.626611 191.587165 
Q 51.075412 191.619104 51.561 191.669294 
L 51.561 192.539633 
Q 50.582467 192.397048 49.695901 192.336592 
Q 48.813015 192.274995 48.088312 192.274995 
Q 47.017811 192.274995 46.26 192.394767 
Q 45.502189 192.514538 45.012922 192.730127 
Q 44.523656 192.945716 44.291898 193.243434 
Q 44.063819 193.541151 44.063819 193.897044 
Q 44.063819 194.27575 44.299255 194.573468 
Q 44.534692 194.870045 45.027637 195.077649 
Q 45.524261 195.284112 46.293108 195.393618 
Q 47.065634 195.501982 48.12142 195.501982 
Q 48.500325 195.501982 48.941769 195.479169 
Q 49.386891 195.455214 49.839371 195.417572 
Q 50.295529 195.379929 50.736972 195.328599 
Q 51.178416 195.277268 51.561 195.223656 
L 51.561 196.043806 
z
" clip-path="url(#pca74733f90)" style="fill: #233f99"/>
   </g>
   <g id="matplotlib.axis_7">
    <g id="xtick_4">
     <g id="line2d_12">
      <g>
       <use xlink:href="#m389e1f5a00" x="46.26" y="205.056" style="stroke: #000000; stroke-width: 0.8"/>
      </g>
     </g>
     <g id="text_7">
      <!-- -1 -->
      <g transform="translate(41.814688 219.229438)scale(0.1 -0.1)">
       <defs>
        <path id="Helvetica-2d" d="M 266 2072 
L 1834 2072 
L 1834 1494 
L 266 1494 
L 266 2072 
z
" transform="scale(0.015625)"/>
       </defs>
       <use xlink:href="#Helvetica-2d"/>
       <use xlink:href="#Helvetica-31" x="33.300781"/>
      </g>
     </g>
    </g>
   </g>
   <g id="matplotlib.axis_8">
    <g id="ytick_5">
     <g id="line2d_13">
      <g>
       <use xlink:href="#m86e101ab9f" x="51.84" y="196.289052" style="stroke: #000000; stroke-width: 0.8"/>
      </g>
     </g>
     <g id="text_8">
      <!-- 0.0 -->
      <g transform="translate(58.84 199.875771)scale(0.1 -0.1)">
       <use xlink:href="#Helvetica-30"/>
       <use xlink:href="#Helvetica-2e" x="55.615234"/>
       <use xlink:href="#Helvetica-30" x="83.398438"/>
      </g>
     </g>
    </g>
    <g id="ytick_6">
     <g id="line2d_14">
      <g>
       <use xlink:href="#m86e101ab9f" x="51.84" y="170.244576" style="stroke: #000000; stroke-width: 0.8"/>
      </g>
     </g>
     <g id="text_9">
      <!-- 0.5 -->
      <g transform="translate(58.84 173.831295)scale(0.1 -0.1)">
       <use xlink:href="#Helvetica-30"/>
       <use xlink:href="#Helvetica-2e" x="55.615234"/>
       <use xlink:href="#Helvetica-35" x="83.398438"/>
      </g>
     </g>
    </g>
    <g id="text_10">
     <!-- Δlog2_MRL_10-2hpf -->
     <g transform="translate(-89.073437 188.303772)scale(0.1 -0.1)">
      <defs>
       <path id="Helvetica-394" d="M 922 500 
L 3672 500 
L 2278 3941 
L 922 500 
z
M 1966 4519 
L 2631 4519 
L 4494 0 
L 128 0 
L 1966 4519 
z
" transform="scale(0.015625)"/>
      </defs>
      <use xlink:href="#Helvetica-394"/>
      <use xlink:href="#Helvetica-6c" x="72.216797"/>
      <use xlink:href="#Helvetica-6f" x="94.433594"/>
      <use xlink:href="#Helvetica-67" x="150.048828"/>
      <use xlink:href="#Helvetica-32" x="205.664062"/>
      <use xlink:href="#Helvetica-5f" x="261.279297"/>
      <use xlink:href="#Helvetica-4d" x="316.894531"/>
      <use xlink:href="#Helvetica-52" x="400.195312"/>
      <use xlink:href="#Helvetica-4c" x="472.412109"/>
      <use xlink:href="#Helvetica-5f" x="528.027344"/>
      <use xlink:href="#Helvetica-31" x="583.642578"/>
      <use xlink:href="#Helvetica-30" x="639.257812"/>
      <use xlink:href="#Helvetica-2d" x="694.873047"/>
      <use xlink:href="#Helvetica-32" x="728.173828"/>
      <use xlink:href="#Helvetica-68" x="783.789062"/>
      <use xlink:href="#Helvetica-70" x="839.404297"/>
      <use xlink:href="#Helvetica-66" x="895.019531"/>
     </g>
    </g>
   </g>
   <g id="patch_24">
    <path d="M 51.84 205.056 
L 51.84 166.489043 
" style="fill: none; stroke: #000000; stroke-linejoin: miter; stroke-linecap: square"/>
   </g>
  </g>
 </g>
 <defs>
  <clipPath id="p355d1abba7">
   <rect x="7.2" y="27.648" width="44.64" height="38.566957"/>
  </clipPath>
  <clipPath id="pdceb79e10d">
   <rect x="7.2" y="73.928348" width="44.64" height="38.566957"/>
  </clipPath>
  <clipPath id="p389b45a4fc">
   <rect x="7.2" y="120.208696" width="44.64" height="38.566957"/>
  </clipPath>
  <clipPath id="pca74733f90">
   <rect x="7.2" y="166.489043" width="44.64" height="38.566957"/>
  </clipPath>
 </defs>
</svg>
