<?xml version="1.0" encoding="utf-8" standalone="no"?>
<!DOCTYPE svg PUBLIC "-//W3C//DTD SVG 1.1//EN"
  "http://www.w3.org/Graphics/SVG/1.1/DTD/svg11.dtd">
<svg xmlns:xlink="http://www.w3.org/1999/xlink" width="57.6pt" height="230.4pt" viewBox="0 0 57.6 230.4" xmlns="http://www.w3.org/2000/svg" version="1.1">
 <metadata>
  <rdf:RDF xmlns:dc="http://purl.org/dc/elements/1.1/" xmlns:cc="http://creativecommons.org/ns#" xmlns:rdf="http://www.w3.org/1999/02/22-rdf-syntax-ns#">
   <cc:Work>
    <dc:type rdf:resource="http://purl.org/dc/dcmitype/StillImage"/>
    <dc:date>2023-11-22T21:46:58.599448</dc:date>
    <dc:format>image/svg+xml</dc:format>
    <dc:creator>
     <cc:Agent>
      <dc:title>Matplotlib v3.5.1, https://matplotlib.org/</dc:title>
     </cc:Agent>
    </dc:creator>
   </cc:Work>
  </rdf:RDF>
 </metadata>
 <defs>
  <style type="text/css">*{stroke-linejoin: round; stroke-linecap: butt}</style>
 </defs>
 <g id="figure_1">
  <g id="patch_1">
   <path d="M 0 230.4 
L 57.6 230.4 
L 57.6 0 
L 0 0 
z
" style="fill: #ffffff"/>
  </g>
  <g id="axes_1">
   <g id="patch_2">
    <path d="M 7.2 66.214957 
L 51.84 66.214957 
L 51.84 27.648 
L 7.2 27.648 
z
" style="fill: #ffffff"/>
   </g>
   <g id="line2d_1">
    <path d="M 7.2 66.214957 
L 51.84 66.214957 
" clip-path="url(#p6b9125884e)" style="fill: none; stroke: #000000; stroke-width: 0.5; stroke-linecap: square"/>
   </g>
   <g id="patch_3">
    <path d="M 15.501069 66.214957 
L 14.818146 58.603554 
L 10.492967 58.603554 
L 9.791833 66.214957 
L 7.479 66.214957 
L 11.148573 27.648 
L 14.411427 27.648 
L 18.081 66.214957 
L 15.501069 66.214957 
z
M 12.684391 34.73057 
L 11.054481 52.673082 
L 14.296089 52.673082 
L 12.684391 34.73057 
z
" clip-path="url(#p6b9125884e)" style="fill: #0f9447"/>
   </g>
   <g id="patch_4">
    <path d="M 26.661069 66.214957 
L 25.978146 58.603554 
L 21.652967 58.603554 
L 20.951833 66.214957 
L 18.639 66.214957 
L 22.308573 27.648 
L 25.571427 27.648 
L 29.241 66.214957 
L 26.661069 66.214957 
z
M 23.844391 34.73057 
L 22.214481 52.673082 
L 25.456089 52.673082 
L 23.844391 34.73057 
z
" clip-path="url(#p6b9125884e)" style="fill: #0f9447"/>
   </g>
   <g id="patch_5">
    <path d="M 40.401 64.239284 
Q 39.400395 65.240904 38.462328 65.72793 
Q 37.52426 66.214957 36.512619 66.214957 
Q 34.893993 66.214957 33.646915 65.029553 
Q 32.399838 63.834961 31.542702 61.482533 
Q 30.685566 59.120915 30.240443 55.638219 
Q 29.799 52.146334 29.799 47.52418 
Q 29.799 42.782567 30.280909 39.097709 
Q 30.766497 35.403661 31.66042 32.86745 
Q 32.558022 30.322049 33.838207 28.989619 
Q 35.122072 27.648 36.722305 27.648 
Q 37.237322 27.648 37.689802 27.712324 
Q 38.14596 27.767459 38.583724 27.923675 
Q 39.021489 28.079891 39.466611 28.337188 
Q 39.915412 28.594485 40.401 28.998808 
L 40.401 36.010147 
Q 39.422467 34.8615 38.535901 34.374474 
Q 37.653015 33.878259 36.928312 33.878259 
Q 35.857811 33.878259 35.1 34.843122 
Q 34.342189 35.807985 33.852922 37.544739 
Q 33.363656 39.281492 33.131898 41.679866 
Q 32.903819 44.07824 32.903819 46.945262 
Q 32.903819 49.996067 33.139255 52.394441 
Q 33.374692 54.783626 33.867637 56.456055 
Q 34.364261 58.119296 35.133108 59.001456 
Q 35.905634 59.874428 36.96142 59.874428 
Q 37.340325 59.874428 37.781769 59.690644 
Q 38.226891 59.497672 38.679371 59.194429 
Q 39.135529 58.891186 39.576972 58.477673 
Q 40.018416 58.064161 40.401 57.63227 
L 40.401 64.239284 
z
" clip-path="url(#p6b9125884e)" style="fill: #233f99"/>
   </g>
   <g id="patch_6">
    <path d="M 51.561 64.239284 
Q 50.560395 65.240904 49.622328 65.72793 
Q 48.68426 66.214957 47.672619 66.214957 
Q 46.053993 66.214957 44.806915 65.029553 
Q 43.559838 63.834961 42.702702 61.482533 
Q 41.845566 59.120915 41.400443 55.638219 
Q 40.959 52.146334 40.959 47.52418 
Q 40.959 42.782567 41.440909 39.097709 
Q 41.926497 35.403661 42.82042 32.86745 
Q 43.718022 30.322049 44.998207 28.989619 
Q 46.282072 27.648 47.882305 27.648 
Q 48.397322 27.648 48.849802 27.712324 
Q 49.30596 27.767459 49.743724 27.923675 
Q 50.181489 28.079891 50.626611 28.337188 
Q 51.075412 28.594485 51.561 28.998808 
L 51.561 36.010147 
Q 50.582467 34.8615 49.695901 34.374474 
Q 48.813015 33.878259 48.088312 33.878259 
Q 47.017811 33.878259 46.26 34.843122 
Q 45.502189 35.807985 45.012922 37.544739 
Q 44.523656 39.281492 44.291898 41.679866 
Q 44.063819 44.07824 44.063819 46.945262 
Q 44.063819 49.996067 44.299255 52.394441 
Q 44.534692 54.783626 45.027637 56.456055 
Q 45.524261 58.119296 46.293108 59.001456 
Q 47.065634 59.874428 48.12142 59.874428 
Q 48.500325 59.874428 48.941769 59.690644 
Q 49.386891 59.497672 49.839371 59.194429 
Q 50.295529 58.891186 50.736972 58.477673 
Q 51.178416 58.064161 51.561 57.63227 
L 51.561 64.239284 
z
" clip-path="url(#p6b9125884e)" style="fill: #233f99"/>
   </g>
   <g id="matplotlib.axis_1">
    <g id="xtick_1">
     <g id="line2d_2">
      <defs>
       <path id="mfeb698be68" d="M 0 0 
L 0 3.5 
" style="stroke: #000000; stroke-width: 0.8"/>
      </defs>
      <g>
       <use xlink:href="#mfeb698be68" x="46.26" y="66.214957" style="stroke: #000000; stroke-width: 0.8"/>
      </g>
     </g>
    </g>
   </g>
   <g id="matplotlib.axis_2"/>
  </g>
  <g id="axes_2">
   <g id="patch_7">
    <path d="M 7.2 112.495304 
L 51.84 112.495304 
L 51.84 73.928348 
L 7.2 73.928348 
z
" style="fill: #ffffff"/>
   </g>
   <g id="line2d_3">
    <path d="M 7.2 103.578527 
L 51.84 103.578527 
" clip-path="url(#pba8fed177e)" style="fill: none; stroke: #000000; stroke-width: 0.5; stroke-linecap: square"/>
   </g>
   <g id="patch_8">
    <path d="M 15.501069 103.578527 
L 14.818146 102.553895 
L 10.492967 102.553895 
L 9.791833 103.578527 
L 7.479 103.578527 
L 11.148573 98.386716 
L 14.411427 98.386716 
L 18.081 103.578527 
L 15.501069 103.578527 
z
M 12.684391 99.340158 
L 11.054481 101.755546 
L 14.296089 101.755546 
L 12.684391 99.340158 
z
" clip-path="url(#pba8fed177e)" style="fill: #0f9447"/>
   </g>
   <g id="patch_9">
    <path d="M 26.661069 103.578527 
L 25.978146 100.987347 
L 21.652967 100.987347 
L 20.951833 103.578527 
L 18.639 103.578527 
L 22.308573 90.449025 
L 25.571427 90.449025 
L 29.241 103.578527 
L 26.661069 103.578527 
z
M 23.844391 92.860172 
L 22.214481 98.968413 
L 25.456089 98.968413 
L 23.844391 92.860172 
z
" clip-path="url(#pba8fed177e)" style="fill: #0f9447"/>
   </g>
   <g id="patch_10">
    <path d="M 40.401 103.422722 
Q 39.400395 103.501712 38.462328 103.54012 
Q 37.52426 103.578527 36.512619 103.578527 
Q 34.893993 103.578527 33.646915 103.485044 
Q 32.399838 103.390837 31.542702 103.20532 
Q 30.685566 103.019079 30.240443 102.744427 
Q 29.799 102.469051 29.799 102.10454 
Q 29.799 101.730608 30.280909 101.440014 
Q 30.766497 101.148695 31.66042 100.948685 
Q 32.558022 100.74795 33.838207 100.642872 
Q 35.122072 100.53707 36.722305 100.53707 
Q 37.237322 100.53707 37.689802 100.542143 
Q 38.14596 100.546491 38.583724 100.55881 
Q 39.021489 100.57113 39.466611 100.591421 
Q 39.915412 100.611712 40.401 100.643597 
L 40.401 101.196524 
Q 39.422467 101.105939 38.535901 101.067532 
Q 37.653015 101.028399 36.928312 101.028399 
Q 35.857811 101.028399 35.1 101.10449 
Q 34.342189 101.180581 33.852922 101.317544 
Q 33.363656 101.454508 33.131898 101.643647 
Q 32.903819 101.832787 32.903819 102.058886 
Q 32.903819 102.299478 33.139255 102.488617 
Q 33.374692 102.677033 33.867637 102.808923 
Q 34.364261 102.940089 35.133108 103.009658 
Q 35.905634 103.078502 36.96142 103.078502 
Q 37.340325 103.078502 37.781769 103.064009 
Q 38.226891 103.048791 38.679371 103.024876 
Q 39.135529 103.000962 39.576972 102.968352 
Q 40.018416 102.935741 40.401 102.901682 
L 40.401 103.422722 
z
" clip-path="url(#pba8fed177e)" style="fill: #233f99"/>
   </g>
   <g id="patch_11">
    <path d="M 51.561 103.509083 
Q 50.560395 103.54429 49.622328 103.561409 
Q 48.68426 103.578527 47.672619 103.578527 
Q 46.053993 103.578527 44.806915 103.536861 
Q 43.559838 103.494871 42.702702 103.412184 
Q 41.845566 103.329174 41.400443 103.206759 
Q 40.959 103.08402 40.959 102.921553 
Q 40.959 102.754887 41.440909 102.625366 
Q 41.926497 102.495521 42.82042 102.406374 
Q 43.718022 102.316904 44.998207 102.27007 
Q 46.282072 102.222912 47.882305 102.222912 
Q 48.397322 102.222912 48.849802 102.225173 
Q 49.30596 102.227111 49.743724 102.232602 
Q 50.181489 102.238093 50.626611 102.247137 
Q 51.075412 102.256181 51.561 102.270393 
L 51.561 102.516839 
Q 50.582467 102.476464 49.695901 102.459346 
Q 48.813015 102.441904 48.088312 102.441904 
Q 47.017811 102.441904 46.26 102.475818 
Q 45.502189 102.509733 45.012922 102.570779 
Q 44.523656 102.631826 44.291898 102.716128 
Q 44.063819 102.80043 44.063819 102.901204 
Q 44.063819 103.008439 44.299255 103.092741 
Q 44.534692 103.17672 45.027637 103.235505 
Q 45.524261 103.293968 46.293108 103.324975 
Q 47.065634 103.35566 48.12142 103.35566 
Q 48.500325 103.35566 48.941769 103.3492 
Q 49.386891 103.342417 49.839371 103.331758 
Q 50.295529 103.321099 50.736972 103.306565 
Q 51.178416 103.29203 51.561 103.276849 
L 51.561 103.509083 
z
" clip-path="url(#pba8fed177e)" style="fill: #233f99"/>
   </g>
   <g id="matplotlib.axis_3">
    <g id="xtick_2">
     <g id="line2d_4">
      <g>
       <use xlink:href="#mfeb698be68" x="46.26" y="112.495304" style="stroke: #000000; stroke-width: 0.8"/>
      </g>
     </g>
    </g>
   </g>
   <g id="matplotlib.axis_4">
    <g id="ytick_1">
     <g id="line2d_5">
      <defs>
       <path id="ma5b45ee6d5" d="M 0 0 
L 3.5 0 
" style="stroke: #000000; stroke-width: 0.8"/>
      </defs>
      <g>
       <use xlink:href="#ma5b45ee6d5" x="51.84" y="103.578527" style="stroke: #000000; stroke-width: 0.8"/>
      </g>
     </g>
     <g id="text_1">
      <!-- 0.0 -->
      <g transform="translate(58.84 107.165246)scale(0.1 -0.1)">
       <defs>
        <path id="Helvetica-30" d="M 1731 4475 
Q 2600 4475 2988 3759 
Q 3288 3206 3288 2244 
Q 3288 1331 3016 734 
Q 2622 -122 1728 -122 
Q 922 -122 528 578 
Q 200 1163 200 2147 
Q 200 2909 397 3456 
Q 766 4475 1731 4475 
z
M 1725 391 
Q 2163 391 2422 778 
Q 2681 1166 2681 2222 
Q 2681 2984 2493 3476 
Q 2306 3969 1766 3969 
Q 1269 3969 1039 3501 
Q 809 3034 809 2125 
Q 809 1441 956 1025 
Q 1181 391 1725 391 
z
" transform="scale(0.015625)"/>
        <path id="Helvetica-2e" d="M 547 681 
L 1200 681 
L 1200 0 
L 547 0 
L 547 681 
z
" transform="scale(0.015625)"/>
       </defs>
       <use xlink:href="#Helvetica-30"/>
       <use xlink:href="#Helvetica-2e" x="55.615234"/>
       <use xlink:href="#Helvetica-30" x="83.398438"/>
      </g>
     </g>
    </g>
    <g id="ytick_2">
     <g id="line2d_6">
      <g>
       <use xlink:href="#ma5b45ee6d5" x="51.84" y="81.157149" style="stroke: #000000; stroke-width: 0.8"/>
      </g>
     </g>
     <g id="text_2">
      <!-- 0.5 -->
      <g transform="translate(58.84 84.743868)scale(0.1 -0.1)">
       <defs>
        <path id="Helvetica-35" d="M 791 1141 
Q 847 659 1238 475 
Q 1438 381 1700 381 
Q 2200 381 2440 700 
Q 2681 1019 2681 1406 
Q 2681 1875 2395 2131 
Q 2109 2388 1709 2388 
Q 1419 2388 1211 2275 
Q 1003 2163 856 1963 
L 369 1991 
L 709 4400 
L 3034 4400 
L 3034 3856 
L 1131 3856 
L 941 2613 
Q 1097 2731 1238 2791 
Q 1488 2894 1816 2894 
Q 2431 2894 2859 2497 
Q 3288 2100 3288 1491 
Q 3288 856 2895 371 
Q 2503 -113 1644 -113 
Q 1097 -113 676 195 
Q 256 503 206 1141 
L 791 1141 
z
" transform="scale(0.015625)"/>
       </defs>
       <use xlink:href="#Helvetica-30"/>
       <use xlink:href="#Helvetica-2e" x="55.615234"/>
       <use xlink:href="#Helvetica-35" x="83.398438"/>
      </g>
     </g>
    </g>
    <g id="text_3">
     <!-- log2_MRL_2hpf -->
     <g transform="translate(-67.4 95.743076)scale(0.1 -0.1)">
      <defs>
       <path id="Helvetica-6c" d="M 428 4591 
L 991 4591 
L 991 0 
L 428 0 
L 428 4591 
z
" transform="scale(0.015625)"/>
       <path id="Helvetica-6f" d="M 1741 363 
Q 2300 363 2508 786 
Q 2716 1209 2716 1728 
Q 2716 2197 2566 2491 
Q 2328 2953 1747 2953 
Q 1231 2953 997 2559 
Q 763 2166 763 1609 
Q 763 1075 997 719 
Q 1231 363 1741 363 
z
M 1763 3444 
Q 2409 3444 2856 3012 
Q 3303 2581 3303 1744 
Q 3303 934 2909 406 
Q 2516 -122 1688 -122 
Q 997 -122 590 345 
Q 184 813 184 1600 
Q 184 2444 612 2944 
Q 1041 3444 1763 3444 
z
M 1744 3428 
L 1744 3428 
z
" transform="scale(0.015625)"/>
       <path id="Helvetica-67" d="M 1594 3406 
Q 1988 3406 2281 3213 
Q 2441 3103 2606 2894 
L 2606 3316 
L 3125 3316 
L 3125 272 
Q 3125 -366 2938 -734 
Q 2588 -1416 1616 -1416 
Q 1075 -1416 706 -1173 
Q 338 -931 294 -416 
L 866 -416 
Q 906 -641 1028 -763 
Q 1219 -950 1628 -950 
Q 2275 -950 2475 -494 
Q 2594 -225 2584 466 
Q 2416 209 2178 84 
Q 1941 -41 1550 -41 
Q 1006 -41 598 345 
Q 191 731 191 1622 
Q 191 2463 602 2934 
Q 1013 3406 1594 3406 
z
M 2606 1688 
Q 2606 2309 2350 2609 
Q 2094 2909 1697 2909 
Q 1103 2909 884 2353 
Q 769 2056 769 1575 
Q 769 1009 998 714 
Q 1228 419 1616 419 
Q 2222 419 2469 966 
Q 2606 1275 2606 1688 
z
M 1659 3428 
L 1659 3428 
z
" transform="scale(0.015625)"/>
       <path id="Helvetica-32" d="M 200 0 
Q 231 578 439 1006 
Q 647 1434 1250 1784 
L 1850 2131 
Q 2253 2366 2416 2531 
Q 2672 2791 2672 3125 
Q 2672 3516 2437 3745 
Q 2203 3975 1813 3975 
Q 1234 3975 1013 3538 
Q 894 3303 881 2888 
L 309 2888 
Q 319 3472 525 3841 
Q 891 4491 1816 4491 
Q 2584 4491 2939 4075 
Q 3294 3659 3294 3150 
Q 3294 2613 2916 2231 
Q 2697 2009 2131 1694 
L 1703 1456 
Q 1397 1288 1222 1134 
Q 909 863 828 531 
L 3272 531 
L 3272 0 
L 200 0 
z
" transform="scale(0.015625)"/>
       <path id="Helvetica-5f" d="M 0 -800 
L 0 -484 
L 3559 -484 
L 3559 -800 
L 0 -800 
z
" transform="scale(0.015625)"/>
       <path id="Helvetica-4d" d="M 472 4591 
L 1363 4591 
L 2681 709 
L 3991 4591 
L 4872 4591 
L 4872 0 
L 4281 0 
L 4281 2709 
Q 4281 2850 4287 3175 
Q 4294 3500 4294 3872 
L 2984 0 
L 2369 0 
L 1050 3872 
L 1050 3731 
Q 1050 3563 1058 3217 
Q 1066 2872 1066 2709 
L 1066 0 
L 472 0 
L 472 4591 
z
" transform="scale(0.015625)"/>
       <path id="Helvetica-52" d="M 2622 2488 
Q 3059 2488 3314 2663 
Q 3569 2838 3569 3294 
Q 3569 3784 3213 3963 
Q 3022 4056 2703 4056 
L 1184 4056 
L 1184 2488 
L 2622 2488 
z
M 563 4591 
L 2688 4591 
Q 3213 4591 3553 4438 
Q 4200 4144 4200 3353 
Q 4200 2941 4029 2678 
Q 3859 2416 3553 2256 
Q 3822 2147 3958 1969 
Q 4094 1791 4109 1391 
L 4131 775 
Q 4141 513 4175 384 
Q 4231 166 4375 103 
L 4375 0 
L 3613 0 
Q 3581 59 3562 153 
Q 3544 247 3531 516 
L 3494 1281 
Q 3472 1731 3159 1884 
Q 2981 1969 2600 1969 
L 1184 1969 
L 1184 0 
L 563 0 
L 563 4591 
z
" transform="scale(0.015625)"/>
       <path id="Helvetica-4c" d="M 488 4591 
L 1109 4591 
L 1109 547 
L 3434 547 
L 3434 0 
L 488 0 
L 488 4591 
z
" transform="scale(0.015625)"/>
       <path id="Helvetica-68" d="M 413 4606 
L 975 4606 
L 975 2894 
Q 1175 3147 1334 3250 
Q 1606 3428 2013 3428 
Q 2741 3428 3000 2919 
Q 3141 2641 3141 2147 
L 3141 0 
L 2563 0 
L 2563 2109 
Q 2563 2478 2469 2650 
Q 2316 2925 1894 2925 
Q 1544 2925 1259 2684 
Q 975 2444 975 1775 
L 975 0 
L 413 0 
L 413 4606 
z
" transform="scale(0.015625)"/>
       <path id="Helvetica-70" d="M 1825 378 
Q 2219 378 2480 708 
Q 2741 1038 2741 1694 
Q 2741 2094 2625 2381 
Q 2406 2934 1825 2934 
Q 1241 2934 1025 2350 
Q 909 2038 909 1556 
Q 909 1169 1025 897 
Q 1244 378 1825 378 
z
M 369 3331 
L 916 3331 
L 916 2888 
Q 1084 3116 1284 3241 
Q 1569 3428 1953 3428 
Q 2522 3428 2919 2992 
Q 3316 2556 3316 1747 
Q 3316 653 2744 184 
Q 2381 -113 1900 -113 
Q 1522 -113 1266 53 
Q 1116 147 931 375 
L 931 -1334 
L 369 -1334 
L 369 3331 
z
" transform="scale(0.015625)"/>
       <path id="Helvetica-66" d="M 553 3856 
Q 566 4206 675 4369 
Q 872 4656 1434 4656 
Q 1488 4656 1544 4653 
Q 1600 4650 1672 4644 
L 1672 4131 
Q 1584 4138 1545 4139 
Q 1506 4141 1472 4141 
Q 1216 4141 1166 4008 
Q 1116 3875 1116 3331 
L 1672 3331 
L 1672 2888 
L 1109 2888 
L 1109 0 
L 553 0 
L 553 2888 
L 88 2888 
L 88 3331 
L 553 3331 
L 553 3856 
z
" transform="scale(0.015625)"/>
      </defs>
      <use xlink:href="#Helvetica-6c"/>
      <use xlink:href="#Helvetica-6f" x="22.216797"/>
      <use xlink:href="#Helvetica-67" x="77.832031"/>
      <use xlink:href="#Helvetica-32" x="133.447266"/>
      <use xlink:href="#Helvetica-5f" x="189.0625"/>
      <use xlink:href="#Helvetica-4d" x="244.677734"/>
      <use xlink:href="#Helvetica-52" x="327.978516"/>
      <use xlink:href="#Helvetica-4c" x="400.195312"/>
      <use xlink:href="#Helvetica-5f" x="455.810547"/>
      <use xlink:href="#Helvetica-32" x="511.425781"/>
      <use xlink:href="#Helvetica-68" x="567.041016"/>
      <use xlink:href="#Helvetica-70" x="622.65625"/>
      <use xlink:href="#Helvetica-66" x="678.271484"/>
     </g>
    </g>
   </g>
   <g id="patch_12">
    <path d="M 51.84 112.495304 
L 51.84 73.928348 
" style="fill: none; stroke: #000000; stroke-linejoin: miter; stroke-linecap: square"/>
   </g>
  </g>
  <g id="axes_3">
   <g id="patch_13">
    <path d="M 7.2 158.775652 
L 51.84 158.775652 
L 51.84 120.208696 
L 7.2 120.208696 
z
" style="fill: #ffffff"/>
   </g>
   <g id="line2d_7">
    <path d="M 7.2 149.858875 
L 51.84 149.858875 
" clip-path="url(#p01f344e61c)" style="fill: none; stroke: #000000; stroke-width: 0.5; stroke-linecap: square"/>
   </g>
   <g id="patch_14">
    <path d="M 15.501069 149.858875 
L 14.818146 147.821001 
L 10.492967 147.821001 
L 9.791833 149.858875 
L 7.479 149.858875 
L 11.148573 139.532972 
L 14.411427 139.532972 
L 18.081 149.858875 
L 15.501069 149.858875 
z
M 12.684391 141.429257 
L 11.054481 146.233179 
L 14.296089 146.233179 
L 12.684391 141.429257 
z
" clip-path="url(#p01f344e61c)" style="fill: #0f9447"/>
   </g>
   <g id="patch_15">
    <path d="M 26.661069 149.858875 
L 25.978146 144.007248 
L 21.652967 144.007248 
L 20.951833 149.858875 
L 18.639 149.858875 
L 22.308573 120.208696 
L 25.571427 120.208696 
L 29.241 149.858875 
L 26.661069 149.858875 
z
M 23.844391 125.653758 
L 22.214481 139.447916 
L 25.456089 139.447916 
L 23.844391 125.653758 
z
" clip-path="url(#p01f344e61c)" style="fill: #0f9447"/>
   </g>
   <g id="patch_16">
    <path d="M 40.401 149.543867 
Q 39.400395 149.703569 38.462328 149.781222 
Q 37.52426 149.858875 36.512619 149.858875 
Q 34.893993 149.858875 33.646915 149.66987 
Q 32.399838 149.4794 31.542702 149.104321 
Q 30.685566 148.727777 30.240443 148.172484 
Q 29.799 147.615726 29.799 146.878754 
Q 29.799 146.122734 30.280909 145.535208 
Q 30.766497 144.946216 31.66042 144.541834 
Q 32.558022 144.135987 33.838207 143.923539 
Q 35.122072 143.709627 36.722305 143.709627 
Q 37.237322 143.709627 37.689802 143.719883 
Q 38.14596 143.728674 38.583724 143.753582 
Q 39.021489 143.778489 39.466611 143.819514 
Q 39.915412 143.860538 40.401 143.925005 
L 40.401 145.042917 
Q 39.422467 144.859772 38.535901 144.782119 
Q 37.653015 144.703001 36.928312 144.703001 
Q 35.857811 144.703001 35.1 144.856842 
Q 34.342189 145.010683 33.852922 145.287597 
Q 33.363656 145.564511 33.131898 145.946916 
Q 32.903819 146.329321 32.903819 146.786449 
Q 32.903819 147.27288 33.139255 147.655285 
Q 33.374692 148.036225 33.867637 148.302882 
Q 34.364261 148.568075 35.133108 148.70873 
Q 35.905634 148.847919 36.96142 148.847919 
Q 37.340325 148.847919 37.781769 148.818616 
Q 38.226891 148.787848 38.679371 148.739498 
Q 39.135529 148.691148 39.576972 148.625216 
Q 40.018416 148.559284 40.401 148.490422 
L 40.401 149.543867 
z
" clip-path="url(#p01f344e61c)" style="fill: #233f99"/>
   </g>
   <g id="patch_17">
    <path d="M 51.561 149.696404 
Q 50.560395 149.778773 49.622328 149.818824 
Q 48.68426 149.858875 47.672619 149.858875 
Q 46.053993 149.858875 44.806915 149.761392 
Q 43.559838 149.663154 42.702702 149.4697 
Q 41.845566 149.27549 41.400443 148.989088 
Q 40.959 148.701929 40.959 148.321822 
Q 40.959 147.931891 41.440909 147.628864 
Q 41.926497 147.32508 42.82042 147.116513 
Q 43.718022 146.907189 44.998207 146.797616 
Q 46.282072 146.687287 47.882305 146.687287 
Q 48.397322 146.687287 48.849802 146.692576 
Q 49.30596 146.69711 49.743724 146.709957 
Q 50.181489 146.722803 50.626611 146.743963 
Q 51.075412 146.765122 51.561 146.798371 
L 51.561 147.374955 
Q 50.582467 147.280495 49.695901 147.240444 
Q 48.813015 147.199638 48.088312 147.199638 
Q 47.017811 147.199638 46.26 147.278984 
Q 45.502189 147.35833 45.012922 147.501154 
Q 44.523656 147.643977 44.291898 147.84121 
Q 44.063819 148.038442 44.063819 148.274214 
Q 44.063819 148.5251 44.299255 148.722333 
Q 44.534692 148.918809 45.027637 149.056343 
Q 45.524261 149.193121 46.293108 149.265666 
Q 47.065634 149.337456 48.12142 149.337456 
Q 48.500325 149.337456 48.941769 149.322342 
Q 49.386891 149.306473 49.839371 149.281536 
Q 50.295529 149.256598 50.736972 149.222593 
Q 51.178416 149.188587 51.561 149.15307 
L 51.561 149.696404 
z
" clip-path="url(#p01f344e61c)" style="fill: #233f99"/>
   </g>
   <g id="matplotlib.axis_5">
    <g id="xtick_3">
     <g id="line2d_8">
      <g>
       <use xlink:href="#mfeb698be68" x="46.26" y="158.775652" style="stroke: #000000; stroke-width: 0.8"/>
      </g>
     </g>
    </g>
   </g>
   <g id="matplotlib.axis_6">
    <g id="ytick_3">
     <g id="line2d_9">
      <g>
       <use xlink:href="#ma5b45ee6d5" x="51.84" y="149.858875" style="stroke: #000000; stroke-width: 0.8"/>
      </g>
     </g>
     <g id="text_4">
      <!-- 0.0 -->
      <g transform="translate(58.84 153.445594)scale(0.1 -0.1)">
       <use xlink:href="#Helvetica-30"/>
       <use xlink:href="#Helvetica-2e" x="55.615234"/>
       <use xlink:href="#Helvetica-30" x="83.398438"/>
      </g>
     </g>
    </g>
    <g id="ytick_4">
     <g id="line2d_10">
      <g>
       <use xlink:href="#ma5b45ee6d5" x="51.84" y="127.437497" style="stroke: #000000; stroke-width: 0.8"/>
      </g>
     </g>
     <g id="text_5">
      <!-- 0.5 -->
      <g transform="translate(58.84 131.024216)scale(0.1 -0.1)">
       <use xlink:href="#Helvetica-30"/>
       <use xlink:href="#Helvetica-2e" x="55.615234"/>
       <use xlink:href="#Helvetica-35" x="83.398438"/>
      </g>
     </g>
    </g>
    <g id="text_6">
     <!-- log2_MRL_10hpf -->
     <g transform="translate(-72.960938 142.023424)scale(0.1 -0.1)">
      <defs>
       <path id="Helvetica-31" d="M 613 3169 
L 613 3600 
Q 1222 3659 1462 3798 
Q 1703 3938 1822 4456 
L 2266 4456 
L 2266 0 
L 1666 0 
L 1666 3169 
L 613 3169 
z
" transform="scale(0.015625)"/>
      </defs>
      <use xlink:href="#Helvetica-6c"/>
      <use xlink:href="#Helvetica-6f" x="22.216797"/>
      <use xlink:href="#Helvetica-67" x="77.832031"/>
      <use xlink:href="#Helvetica-32" x="133.447266"/>
      <use xlink:href="#Helvetica-5f" x="189.0625"/>
      <use xlink:href="#Helvetica-4d" x="244.677734"/>
      <use xlink:href="#Helvetica-52" x="327.978516"/>
      <use xlink:href="#Helvetica-4c" x="400.195312"/>
      <use xlink:href="#Helvetica-5f" x="455.810547"/>
      <use xlink:href="#Helvetica-31" x="511.425781"/>
      <use xlink:href="#Helvetica-30" x="567.041016"/>
      <use xlink:href="#Helvetica-68" x="622.65625"/>
      <use xlink:href="#Helvetica-70" x="678.271484"/>
      <use xlink:href="#Helvetica-66" x="733.886719"/>
     </g>
    </g>
   </g>
   <g id="patch_18">
    <path d="M 51.84 158.775652 
L 51.84 120.208696 
" style="fill: none; stroke: #000000; stroke-linejoin: miter; stroke-linecap: square"/>
   </g>
  </g>
  <g id="axes_4">
   <g id="patch_19">
    <path d="M 7.2 205.056 
L 51.84 205.056 
L 51.84 166.489043 
L 7.2 166.489043 
z
" style="fill: #ffffff"/>
   </g>
   <g id="line2d_11">
    <path d="M 7.2 196.139223 
L 51.84 196.139223 
" clip-path="url(#p31dd434e8d)" style="fill: none; stroke: #000000; stroke-width: 0.5; stroke-linecap: square"/>
   </g>
   <g id="patch_20">
    <path d="M 15.501069 196.139223 
L 14.818146 194.961848 
L 10.492967 194.961848 
L 9.791833 196.139223 
L 7.479 196.139223 
L 11.148573 190.173468 
L 14.411427 190.173468 
L 18.081 196.139223 
L 15.501069 196.139223 
z
M 12.684391 191.26904 
L 11.054481 194.044489 
L 14.296089 194.044489 
L 12.684391 191.26904 
z
" clip-path="url(#p31dd434e8d)" style="fill: #0f9447"/>
   </g>
   <g id="patch_21">
    <path d="M 26.661069 196.139223 
L 25.978146 192.734939 
L 21.652967 192.734939 
L 20.951833 196.139223 
L 18.639 196.139223 
L 22.308573 178.889724 
L 25.571427 178.889724 
L 29.241 196.139223 
L 26.661069 196.139223 
z
M 23.844391 182.057482 
L 22.214481 190.082469 
L 25.456089 190.082469 
L 23.844391 182.057482 
z
" clip-path="url(#p31dd434e8d)" style="fill: #0f9447"/>
   </g>
   <g id="patch_22">
    <path d="M 40.401 195.96058 
Q 39.400395 196.051148 38.462328 196.095186 
Q 37.52426 196.139223 36.512619 196.139223 
Q 34.893993 196.139223 33.646915 196.032037 
Q 32.399838 195.924021 31.542702 195.711311 
Q 30.685566 195.497771 30.240443 195.182862 
Q 29.799 194.867121 29.799 194.44918 
Q 29.799 194.020438 30.280909 193.687248 
Q 30.766497 193.353228 31.66042 193.123901 
Q 32.558022 192.893743 33.838207 192.773263 
Q 35.122072 192.651952 36.722305 192.651952 
Q 37.237322 192.651952 37.689802 192.657768 
Q 38.14596 192.662754 38.583724 192.676879 
Q 39.021489 192.691004 39.466611 192.714269 
Q 39.915412 192.737534 40.401 192.774094 
L 40.401 193.408067 
Q 39.422467 193.304205 38.535901 193.260168 
Q 37.653015 193.215299 36.928312 193.215299 
Q 35.857811 193.215299 35.1 193.302544 
Q 34.342189 193.389788 33.852922 193.546827 
Q 33.363656 193.703866 33.131898 193.92073 
Q 32.903819 194.137594 32.903819 194.396834 
Q 32.903819 194.672691 33.139255 194.889555 
Q 33.374692 195.105588 33.867637 195.256811 
Q 34.364261 195.407203 35.133108 195.48697 
Q 35.905634 195.565905 36.96142 195.565905 
Q 37.340325 195.565905 37.781769 195.549287 
Q 38.226891 195.531838 38.679371 195.504418 
Q 39.135529 195.476999 39.576972 195.439608 
Q 40.018416 195.402218 40.401 195.363166 
L 40.401 195.96058 
z
" clip-path="url(#p31dd434e8d)" style="fill: #233f99"/>
   </g>
   <g id="patch_23">
    <path d="M 51.561 196.039999 
Q 50.560395 196.090303 49.622328 196.114763 
Q 48.68426 196.139223 47.672619 196.139223 
Q 46.053993 196.139223 44.806915 196.079688 
Q 43.559838 196.019692 42.702702 195.901546 
Q 41.845566 195.782939 41.400443 195.608028 
Q 40.959 195.432655 40.959 195.200516 
Q 40.959 194.962378 41.440909 194.777313 
Q 41.926497 194.591787 42.82042 194.464411 
Q 43.718022 194.336574 44.998207 194.269655 
Q 46.282072 194.202275 47.882305 194.202275 
Q 48.397322 194.202275 48.849802 194.205505 
Q 49.30596 194.208274 49.743724 194.21612 
Q 50.181489 194.223966 50.626611 194.236888 
Q 51.075412 194.24981 51.561 194.270116 
L 51.561 194.622247 
Q 50.582467 194.564558 49.695901 194.540098 
Q 48.813015 194.515177 48.088312 194.515177 
Q 47.017811 194.515177 46.26 194.563635 
Q 45.502189 194.612094 45.012922 194.699319 
Q 44.523656 194.786544 44.291898 194.906997 
Q 44.063819 195.027451 44.063819 195.171441 
Q 44.063819 195.324662 44.299255 195.445115 
Q 44.534692 195.565107 45.027637 195.649102 
Q 45.524261 195.732635 46.293108 195.776939 
Q 47.065634 195.820783 48.12142 195.820783 
Q 48.500325 195.820783 48.941769 195.811552 
Q 49.386891 195.801861 49.839371 195.786631 
Q 50.295529 195.771401 50.736972 195.750633 
Q 51.178416 195.729866 51.561 195.708175 
L 51.561 196.039999 
z
" clip-path="url(#p31dd434e8d)" style="fill: #233f99"/>
   </g>
   <g id="matplotlib.axis_7">
    <g id="xtick_4">
     <g id="line2d_12">
      <g>
       <use xlink:href="#mfeb698be68" x="46.26" y="205.056" style="stroke: #000000; stroke-width: 0.8"/>
      </g>
     </g>
     <g id="text_7">
      <!-- -1 -->
      <g transform="translate(41.814688 219.229438)scale(0.1 -0.1)">
       <defs>
        <path id="Helvetica-2d" d="M 266 2072 
L 1834 2072 
L 1834 1494 
L 266 1494 
L 266 2072 
z
" transform="scale(0.015625)"/>
       </defs>
       <use xlink:href="#Helvetica-2d"/>
       <use xlink:href="#Helvetica-31" x="33.300781"/>
      </g>
     </g>
    </g>
   </g>
   <g id="matplotlib.axis_8">
    <g id="ytick_5">
     <g id="line2d_13">
      <g>
       <use xlink:href="#ma5b45ee6d5" x="51.84" y="196.139223" style="stroke: #000000; stroke-width: 0.8"/>
      </g>
     </g>
     <g id="text_8">
      <!-- 0.0 -->
      <g transform="translate(58.84 199.725942)scale(0.1 -0.1)">
       <use xlink:href="#Helvetica-30"/>
       <use xlink:href="#Helvetica-2e" x="55.615234"/>
       <use xlink:href="#Helvetica-30" x="83.398438"/>
      </g>
     </g>
    </g>
    <g id="ytick_6">
     <g id="line2d_14">
      <g>
       <use xlink:href="#ma5b45ee6d5" x="51.84" y="173.717845" style="stroke: #000000; stroke-width: 0.8"/>
      </g>
     </g>
     <g id="text_9">
      <!-- 0.5 -->
      <g transform="translate(58.84 177.304564)scale(0.1 -0.1)">
       <use xlink:href="#Helvetica-30"/>
       <use xlink:href="#Helvetica-2e" x="55.615234"/>
       <use xlink:href="#Helvetica-35" x="83.398438"/>
      </g>
     </g>
    </g>
    <g id="text_10">
     <!-- Δlog2_MRL_10-2hpf -->
     <g transform="translate(-89.073437 188.303772)scale(0.1 -0.1)">
      <defs>
       <path id="Helvetica-394" d="M 922 500 
L 3672 500 
L 2278 3941 
L 922 500 
z
M 1966 4519 
L 2631 4519 
L 4494 0 
L 128 0 
L 1966 4519 
z
" transform="scale(0.015625)"/>
      </defs>
      <use xlink:href="#Helvetica-394"/>
      <use xlink:href="#Helvetica-6c" x="72.216797"/>
      <use xlink:href="#Helvetica-6f" x="94.433594"/>
      <use xlink:href="#Helvetica-67" x="150.048828"/>
      <use xlink:href="#Helvetica-32" x="205.664062"/>
      <use xlink:href="#Helvetica-5f" x="261.279297"/>
      <use xlink:href="#Helvetica-4d" x="316.894531"/>
      <use xlink:href="#Helvetica-52" x="400.195312"/>
      <use xlink:href="#Helvetica-4c" x="472.412109"/>
      <use xlink:href="#Helvetica-5f" x="528.027344"/>
      <use xlink:href="#Helvetica-31" x="583.642578"/>
      <use xlink:href="#Helvetica-30" x="639.257812"/>
      <use xlink:href="#Helvetica-2d" x="694.873047"/>
      <use xlink:href="#Helvetica-32" x="728.173828"/>
      <use xlink:href="#Helvetica-68" x="783.789062"/>
      <use xlink:href="#Helvetica-70" x="839.404297"/>
      <use xlink:href="#Helvetica-66" x="895.019531"/>
     </g>
    </g>
   </g>
   <g id="patch_24">
    <path d="M 51.84 205.056 
L 51.84 166.489043 
" style="fill: none; stroke: #000000; stroke-linejoin: miter; stroke-linecap: square"/>
   </g>
  </g>
 </g>
 <defs>
  <clipPath id="p6b9125884e">
   <rect x="7.2" y="27.648" width="44.64" height="38.566957"/>
  </clipPath>
  <clipPath id="pba8fed177e">
   <rect x="7.2" y="73.928348" width="44.64" height="38.566957"/>
  </clipPath>
  <clipPath id="p01f344e61c">
   <rect x="7.2" y="120.208696" width="44.64" height="38.566957"/>
  </clipPath>
  <clipPath id="p31dd434e8d">
   <rect x="7.2" y="166.489043" width="44.64" height="38.566957"/>
  </clipPath>
 </defs>
</svg>
