<?xml version="1.0" encoding="utf-8" standalone="no"?>
<!DOCTYPE svg PUBLIC "-//W3C//DTD SVG 1.1//EN"
  "http://www.w3.org/Graphics/SVG/1.1/DTD/svg11.dtd">
<svg xmlns:xlink="http://www.w3.org/1999/xlink" width="57.6pt" height="230.4pt" viewBox="0 0 57.6 230.4" xmlns="http://www.w3.org/2000/svg" version="1.1">
 <metadata>
  <rdf:RDF xmlns:dc="http://purl.org/dc/elements/1.1/" xmlns:cc="http://creativecommons.org/ns#" xmlns:rdf="http://www.w3.org/1999/02/22-rdf-syntax-ns#">
   <cc:Work>
    <dc:type rdf:resource="http://purl.org/dc/dcmitype/StillImage"/>
    <dc:date>2023-11-22T21:47:34.575596</dc:date>
    <dc:format>image/svg+xml</dc:format>
    <dc:creator>
     <cc:Agent>
      <dc:title>Matplotlib v3.5.1, https://matplotlib.org/</dc:title>
     </cc:Agent>
    </dc:creator>
   </cc:Work>
  </rdf:RDF>
 </metadata>
 <defs>
  <style type="text/css">*{stroke-linejoin: round; stroke-linecap: butt}</style>
 </defs>
 <g id="figure_1">
  <g id="patch_1">
   <path d="M 0 230.4 
L 57.6 230.4 
L 57.6 0 
L 0 0 
z
" style="fill: #ffffff"/>
  </g>
  <g id="axes_1">
   <g id="patch_2">
    <path d="M 7.2 66.214957 
L 51.84 66.214957 
L 51.84 27.648 
L 7.2 27.648 
z
" style="fill: #ffffff"/>
   </g>
   <g id="line2d_1">
    <path d="M 7.2 66.214957 
L 51.84 66.214957 
" clip-path="url(#p1c69da1f46)" style="fill: none; stroke: #000000; stroke-width: 0.5; stroke-linecap: square"/>
   </g>
   <g id="patch_3">
    <path d="M 13.085959 49.784064 
L 13.085959 43.98761 
L 18.081 43.98761 
L 18.081 63.878118 
Q 17.114994 65.073922 16.063045 65.639875 
Q 15.011095 66.214957 13.773508 66.214957 
Q 12.312467 66.214957 11.147072 65.019153 
Q 9.981677 63.814221 9.163494 61.449998 
Q 8.348749 59.085775 7.912156 55.580518 
Q 7.479 52.066132 7.479 47.447226 
Q 7.479 42.791806 7.93622 39.113112 
Q 8.39344 35.434417 9.266626 32.887629 
Q 10.143251 30.331712 11.415216 28.989856 
Q 12.690619 27.648 14.323547 27.648 
Q 15.289553 27.648 16.20743 28.095285 
Q 17.125307 28.533443 18.039747 29.272833 
L 18.039747 36.201192 
Q 17.245628 35.206211 16.28306 34.567231 
Q 15.320492 33.919124 14.344173 33.919124 
Q 13.354103 33.919124 12.5978 34.831951 
Q 11.841496 35.744779 11.329272 37.433509 
Q 10.820486 39.113112 10.55578 41.568617 
Q 10.294512 44.024123 10.294512 47.100351 
Q 10.294512 50.06704 10.497339 52.44952 
Q 10.700165 54.831999 11.157385 56.502473 
Q 11.614605 58.172947 12.333093 59.05839 
Q 13.055019 59.934704 14.086342 59.934704 
Q 14.33386 59.934704 14.51606 59.898191 
Q 14.698261 59.85255 14.859835 59.770395 
Q 15.021409 59.679113 15.165794 59.569573 
Q 15.310179 59.450906 15.471753 59.313982 
L 15.471753 49.784064 
L 13.085959 49.784064 
z
" clip-path="url(#p1c69da1f46)" style="fill: #f5b328"/>
   </g>
   <g id="patch_4">
    <path d="M 26.661069 66.214957 
L 25.978146 58.603554 
L 21.652967 58.603554 
L 20.951833 66.214957 
L 18.639 66.214957 
L 22.308573 27.648 
L 25.571427 27.648 
L 29.241 66.214957 
L 26.661069 66.214957 
z
M 23.844391 34.73057 
L 22.214481 52.673082 
L 25.456089 52.673082 
L 23.844391 34.73057 
z
" clip-path="url(#p1c69da1f46)" style="fill: #0f9447"/>
   </g>
   <g id="patch_5">
    <path d="M 37.821069 66.214957 
L 37.138146 58.603554 
L 32.812967 58.603554 
L 32.111833 66.214957 
L 29.799 66.214957 
L 33.468573 27.648 
L 36.731427 27.648 
L 40.401 66.214957 
L 37.821069 66.214957 
z
M 35.004391 34.73057 
L 33.374481 52.673082 
L 36.616089 52.673082 
L 35.004391 34.73057 
z
" clip-path="url(#p1c69da1f46)" style="fill: #0f9447"/>
   </g>
   <g id="patch_6">
    <path d="M 46.565959 49.784064 
L 46.565959 43.98761 
L 51.561 43.98761 
L 51.561 63.878118 
Q 50.594994 65.073922 49.543045 65.639875 
Q 48.491095 66.214957 47.253508 66.214957 
Q 45.792467 66.214957 44.627072 65.019153 
Q 43.461677 63.814221 42.643494 61.449998 
Q 41.828749 59.085775 41.392156 55.580518 
Q 40.959 52.066132 40.959 47.447226 
Q 40.959 42.791806 41.41622 39.113112 
Q 41.87344 35.434417 42.746626 32.887629 
Q 43.623251 30.331712 44.895216 28.989856 
Q 46.170619 27.648 47.803547 27.648 
Q 48.769553 27.648 49.68743 28.095285 
Q 50.605307 28.533443 51.519747 29.272833 
L 51.519747 36.201192 
Q 50.725628 35.206211 49.76306 34.567231 
Q 48.800492 33.919124 47.824173 33.919124 
Q 46.834103 33.919124 46.0778 34.831951 
Q 45.321496 35.744779 44.809272 37.433509 
Q 44.300486 39.113112 44.03578 41.568617 
Q 43.774512 44.024123 43.774512 47.100351 
Q 43.774512 50.06704 43.977339 52.44952 
Q 44.180165 54.831999 44.637385 56.502473 
Q 45.094605 58.172947 45.813093 59.05839 
Q 46.535019 59.934704 47.566342 59.934704 
Q 47.81386 59.934704 47.99606 59.898191 
Q 48.178261 59.85255 48.339835 59.770395 
Q 48.501409 59.679113 48.645794 59.569573 
Q 48.790179 59.450906 48.951753 59.313982 
L 48.951753 49.784064 
L 46.565959 49.784064 
z
" clip-path="url(#p1c69da1f46)" style="fill: #f5b328"/>
   </g>
   <g id="matplotlib.axis_1">
    <g id="xtick_1">
     <g id="line2d_2">
      <defs>
       <path id="mac8ae92fc9" d="M 0 0 
L 0 3.5 
" style="stroke: #000000; stroke-width: 0.8"/>
      </defs>
      <g>
       <use xlink:href="#mac8ae92fc9" x="46.26" y="66.214957" style="stroke: #000000; stroke-width: 0.8"/>
      </g>
     </g>
    </g>
   </g>
   <g id="matplotlib.axis_2"/>
  </g>
  <g id="axes_2">
   <g id="patch_7">
    <path d="M 7.2 112.495304 
L 51.84 112.495304 
L 51.84 73.928348 
L 7.2 73.928348 
z
" style="fill: #ffffff"/>
   </g>
   <g id="line2d_3">
    <path d="M 7.2 93.211826 
L 51.84 93.211826 
" clip-path="url(#pb9e960deaa)" style="fill: none; stroke: #000000; stroke-width: 0.5; stroke-linecap: square"/>
   </g>
   <g id="patch_8">
    <path d="M 26.661069 93.211826 
L 25.978146 91.949323 
L 21.652967 91.949323 
L 20.951833 93.211826 
L 18.639 93.211826 
L 22.308573 86.814725 
L 25.571427 86.814725 
L 29.241 93.211826 
L 26.661069 93.211826 
z
M 23.844391 87.989511 
L 22.214481 90.965636 
L 25.456089 90.965636 
L 23.844391 87.989511 
z
" clip-path="url(#pb9e960deaa)" style="fill: #0f9447"/>
   </g>
   <g id="patch_9">
    <path d="M 37.821069 93.211826 
L 37.138146 93.065648 
L 32.812967 93.065648 
L 32.111833 93.211826 
L 29.799 93.211826 
L 33.468573 92.471141 
L 36.731427 92.471141 
L 40.401 93.211826 
L 37.821069 93.211826 
z
M 35.004391 92.607163 
L 33.374481 92.951752 
L 36.616089 92.951752 
L 35.004391 92.607163 
z
" clip-path="url(#pb9e960deaa)" style="fill: #0f9447"/>
   </g>
   <g id="patch_10">
    <path d="M 13.085959 94.060991 
L 13.085959 94.360557 
L 18.081 94.360557 
L 18.081 93.332596 
Q 17.114994 93.270796 16.063045 93.241547 
Q 15.011095 93.211826 13.773508 93.211826 
Q 12.312467 93.211826 11.147072 93.273626 
Q 9.981677 93.335898 9.163494 93.458084 
Q 8.348749 93.580269 7.912156 93.761424 
Q 7.479 93.943051 7.479 94.181761 
Q 7.479 94.422357 7.93622 94.612476 
Q 8.39344 94.802594 9.266626 94.934215 
Q 10.143251 95.066307 11.415216 95.135656 
Q 12.690619 95.205004 14.323547 95.205004 
Q 15.289553 95.205004 16.20743 95.181888 
Q 17.125307 95.159243 18.039747 95.121031 
L 18.039747 94.762967 
Q 17.245628 94.814388 16.28306 94.847411 
Q 15.320492 94.880906 14.344173 94.880906 
Q 13.354103 94.880906 12.5978 94.83373 
Q 11.841496 94.786555 11.329272 94.699279 
Q 10.820486 94.612476 10.55578 94.485573 
Q 10.294512 94.35867 10.294512 94.199687 
Q 10.294512 94.046366 10.497339 93.923237 
Q 10.700165 93.800108 11.157385 93.713777 
Q 11.614605 93.627445 12.333093 93.581684 
Q 13.055019 93.536396 14.086342 93.536396 
Q 14.33386 93.536396 14.51606 93.538283 
Q 14.698261 93.540641 14.859835 93.544887 
Q 15.021409 93.549605 15.165794 93.555266 
Q 15.310179 93.561399 15.471753 93.568475 
L 15.471753 94.060991 
L 13.085959 94.060991 
z
" clip-path="url(#pb9e960deaa)" style="fill: #f5b328"/>
   </g>
   <g id="patch_11">
    <path d="M 46.565959 93.523952 
L 46.565959 93.634064 
L 51.561 93.634064 
L 51.561 93.256217 
Q 50.594994 93.233502 49.543045 93.222751 
Q 48.491095 93.211826 47.253508 93.211826 
Q 45.792467 93.211826 44.627072 93.234542 
Q 43.461677 93.257431 42.643494 93.302343 
Q 41.828749 93.347254 41.392156 93.413841 
Q 40.959 93.480601 40.959 93.568344 
Q 40.959 93.656779 41.41622 93.726661 
Q 41.87344 93.796543 42.746626 93.844922 
Q 43.623251 93.893475 44.895216 93.918965 
Q 46.170619 93.944456 47.803547 93.944456 
Q 48.769553 93.944456 49.68743 93.935959 
Q 50.605307 93.927636 51.519747 93.91359 
L 51.519747 93.781977 
Q 50.725628 93.800878 49.76306 93.813016 
Q 48.800492 93.825328 47.824173 93.825328 
Q 46.834103 93.825328 46.0778 93.807987 
Q 45.321496 93.790647 44.809272 93.758567 
Q 44.300486 93.726661 44.03578 93.680015 
Q 43.774512 93.63337 43.774512 93.574933 
Q 43.774512 93.518577 43.977339 93.473319 
Q 44.180165 93.42806 44.637385 93.396327 
Q 45.094605 93.364595 45.813093 93.347774 
Q 46.535019 93.331128 47.566342 93.331128 
Q 47.81386 93.331128 47.99606 93.331821 
Q 48.178261 93.332688 48.339835 93.334249 
Q 48.501409 93.335983 48.645794 93.338064 
Q 48.790179 93.340318 48.951753 93.342919 
L 48.951753 93.523952 
L 46.565959 93.523952 
z
" clip-path="url(#pb9e960deaa)" style="fill: #f5b328"/>
   </g>
   <g id="matplotlib.axis_3">
    <g id="xtick_2">
     <g id="line2d_4">
      <g>
       <use xlink:href="#mac8ae92fc9" x="46.26" y="112.495304" style="stroke: #000000; stroke-width: 0.8"/>
      </g>
     </g>
    </g>
   </g>
   <g id="matplotlib.axis_4">
    <g id="ytick_1">
     <g id="line2d_5">
      <defs>
       <path id="m6b090aadcd" d="M 0 0 
L 3.5 0 
" style="stroke: #000000; stroke-width: 0.8"/>
      </defs>
      <g>
       <use xlink:href="#m6b090aadcd" x="51.84" y="102.980345" style="stroke: #000000; stroke-width: 0.8"/>
      </g>
     </g>
     <g id="text_1">
      <!-- −0.25 -->
      <g transform="translate(58.84 106.567064)scale(0.1 -0.1)">
       <defs>
        <path id="Helvetica-2212" d="M 3547 1894 
L 3547 1369 
L 288 1369 
L 288 1894 
L 3547 1894 
z
" transform="scale(0.015625)"/>
        <path id="Helvetica-30" d="M 1731 4475 
Q 2600 4475 2988 3759 
Q 3288 3206 3288 2244 
Q 3288 1331 3016 734 
Q 2622 -122 1728 -122 
Q 922 -122 528 578 
Q 200 1163 200 2147 
Q 200 2909 397 3456 
Q 766 4475 1731 4475 
z
M 1725 391 
Q 2163 391 2422 778 
Q 2681 1166 2681 2222 
Q 2681 2984 2493 3476 
Q 2306 3969 1766 3969 
Q 1269 3969 1039 3501 
Q 809 3034 809 2125 
Q 809 1441 956 1025 
Q 1181 391 1725 391 
z
" transform="scale(0.015625)"/>
        <path id="Helvetica-2e" d="M 547 681 
L 1200 681 
L 1200 0 
L 547 0 
L 547 681 
z
" transform="scale(0.015625)"/>
        <path id="Helvetica-32" d="M 200 0 
Q 231 578 439 1006 
Q 647 1434 1250 1784 
L 1850 2131 
Q 2253 2366 2416 2531 
Q 2672 2791 2672 3125 
Q 2672 3516 2437 3745 
Q 2203 3975 1813 3975 
Q 1234 3975 1013 3538 
Q 894 3303 881 2888 
L 309 2888 
Q 319 3472 525 3841 
Q 891 4491 1816 4491 
Q 2584 4491 2939 4075 
Q 3294 3659 3294 3150 
Q 3294 2613 2916 2231 
Q 2697 2009 2131 1694 
L 1703 1456 
Q 1397 1288 1222 1134 
Q 909 863 828 531 
L 3272 531 
L 3272 0 
L 200 0 
z
" transform="scale(0.015625)"/>
        <path id="Helvetica-35" d="M 791 1141 
Q 847 659 1238 475 
Q 1438 381 1700 381 
Q 2200 381 2440 700 
Q 2681 1019 2681 1406 
Q 2681 1875 2395 2131 
Q 2109 2388 1709 2388 
Q 1419 2388 1211 2275 
Q 1003 2163 856 1963 
L 369 1991 
L 709 4400 
L 3034 4400 
L 3034 3856 
L 1131 3856 
L 941 2613 
Q 1097 2731 1238 2791 
Q 1488 2894 1816 2894 
Q 2431 2894 2859 2497 
Q 3288 2100 3288 1491 
Q 3288 856 2895 371 
Q 2503 -113 1644 -113 
Q 1097 -113 676 195 
Q 256 503 206 1141 
L 791 1141 
z
" transform="scale(0.015625)"/>
       </defs>
       <use xlink:href="#Helvetica-2212"/>
       <use xlink:href="#Helvetica-30" x="58.398438"/>
       <use xlink:href="#Helvetica-2e" x="114.013672"/>
       <use xlink:href="#Helvetica-32" x="141.796875"/>
       <use xlink:href="#Helvetica-35" x="197.412109"/>
      </g>
     </g>
    </g>
    <g id="ytick_2">
     <g id="line2d_6">
      <g>
       <use xlink:href="#m6b090aadcd" x="51.84" y="93.211826" style="stroke: #000000; stroke-width: 0.8"/>
      </g>
     </g>
     <g id="text_2">
      <!-- 0.00 -->
      <g transform="translate(58.84 96.798545)scale(0.1 -0.1)">
       <use xlink:href="#Helvetica-30"/>
       <use xlink:href="#Helvetica-2e" x="55.615234"/>
       <use xlink:href="#Helvetica-30" x="83.398438"/>
       <use xlink:href="#Helvetica-30" x="139.013672"/>
      </g>
     </g>
    </g>
    <g id="ytick_3">
     <g id="line2d_7">
      <g>
       <use xlink:href="#m6b090aadcd" x="51.84" y="83.443307" style="stroke: #000000; stroke-width: 0.8"/>
      </g>
     </g>
     <g id="text_3">
      <!-- 0.25 -->
      <g transform="translate(58.84 87.030026)scale(0.1 -0.1)">
       <use xlink:href="#Helvetica-30"/>
       <use xlink:href="#Helvetica-2e" x="55.615234"/>
       <use xlink:href="#Helvetica-32" x="83.398438"/>
       <use xlink:href="#Helvetica-35" x="139.013672"/>
      </g>
     </g>
    </g>
    <g id="text_4">
     <!-- log2_MRL_2hpf -->
     <g transform="translate(-67.4 95.743076)scale(0.1 -0.1)">
      <defs>
       <path id="Helvetica-6c" d="M 428 4591 
L 991 4591 
L 991 0 
L 428 0 
L 428 4591 
z
" transform="scale(0.015625)"/>
       <path id="Helvetica-6f" d="M 1741 363 
Q 2300 363 2508 786 
Q 2716 1209 2716 1728 
Q 2716 2197 2566 2491 
Q 2328 2953 1747 2953 
Q 1231 2953 997 2559 
Q 763 2166 763 1609 
Q 763 1075 997 719 
Q 1231 363 1741 363 
z
M 1763 3444 
Q 2409 3444 2856 3012 
Q 3303 2581 3303 1744 
Q 3303 934 2909 406 
Q 2516 -122 1688 -122 
Q 997 -122 590 345 
Q 184 813 184 1600 
Q 184 2444 612 2944 
Q 1041 3444 1763 3444 
z
M 1744 3428 
L 1744 3428 
z
" transform="scale(0.015625)"/>
       <path id="Helvetica-67" d="M 1594 3406 
Q 1988 3406 2281 3213 
Q 2441 3103 2606 2894 
L 2606 3316 
L 3125 3316 
L 3125 272 
Q 3125 -366 2938 -734 
Q 2588 -1416 1616 -1416 
Q 1075 -1416 706 -1173 
Q 338 -931 294 -416 
L 866 -416 
Q 906 -641 1028 -763 
Q 1219 -950 1628 -950 
Q 2275 -950 2475 -494 
Q 2594 -225 2584 466 
Q 2416 209 2178 84 
Q 1941 -41 1550 -41 
Q 1006 -41 598 345 
Q 191 731 191 1622 
Q 191 2463 602 2934 
Q 1013 3406 1594 3406 
z
M 2606 1688 
Q 2606 2309 2350 2609 
Q 2094 2909 1697 2909 
Q 1103 2909 884 2353 
Q 769 2056 769 1575 
Q 769 1009 998 714 
Q 1228 419 1616 419 
Q 2222 419 2469 966 
Q 2606 1275 2606 1688 
z
M 1659 3428 
L 1659 3428 
z
" transform="scale(0.015625)"/>
       <path id="Helvetica-5f" d="M 0 -800 
L 0 -484 
L 3559 -484 
L 3559 -800 
L 0 -800 
z
" transform="scale(0.015625)"/>
       <path id="Helvetica-4d" d="M 472 4591 
L 1363 4591 
L 2681 709 
L 3991 4591 
L 4872 4591 
L 4872 0 
L 4281 0 
L 4281 2709 
Q 4281 2850 4287 3175 
Q 4294 3500 4294 3872 
L 2984 0 
L 2369 0 
L 1050 3872 
L 1050 3731 
Q 1050 3563 1058 3217 
Q 1066 2872 1066 2709 
L 1066 0 
L 472 0 
L 472 4591 
z
" transform="scale(0.015625)"/>
       <path id="Helvetica-52" d="M 2622 2488 
Q 3059 2488 3314 2663 
Q 3569 2838 3569 3294 
Q 3569 3784 3213 3963 
Q 3022 4056 2703 4056 
L 1184 4056 
L 1184 2488 
L 2622 2488 
z
M 563 4591 
L 2688 4591 
Q 3213 4591 3553 4438 
Q 4200 4144 4200 3353 
Q 4200 2941 4029 2678 
Q 3859 2416 3553 2256 
Q 3822 2147 3958 1969 
Q 4094 1791 4109 1391 
L 4131 775 
Q 4141 513 4175 384 
Q 4231 166 4375 103 
L 4375 0 
L 3613 0 
Q 3581 59 3562 153 
Q 3544 247 3531 516 
L 3494 1281 
Q 3472 1731 3159 1884 
Q 2981 1969 2600 1969 
L 1184 1969 
L 1184 0 
L 563 0 
L 563 4591 
z
" transform="scale(0.015625)"/>
       <path id="Helvetica-4c" d="M 488 4591 
L 1109 4591 
L 1109 547 
L 3434 547 
L 3434 0 
L 488 0 
L 488 4591 
z
" transform="scale(0.015625)"/>
       <path id="Helvetica-68" d="M 413 4606 
L 975 4606 
L 975 2894 
Q 1175 3147 1334 3250 
Q 1606 3428 2013 3428 
Q 2741 3428 3000 2919 
Q 3141 2641 3141 2147 
L 3141 0 
L 2563 0 
L 2563 2109 
Q 2563 2478 2469 2650 
Q 2316 2925 1894 2925 
Q 1544 2925 1259 2684 
Q 975 2444 975 1775 
L 975 0 
L 413 0 
L 413 4606 
z
" transform="scale(0.015625)"/>
       <path id="Helvetica-70" d="M 1825 378 
Q 2219 378 2480 708 
Q 2741 1038 2741 1694 
Q 2741 2094 2625 2381 
Q 2406 2934 1825 2934 
Q 1241 2934 1025 2350 
Q 909 2038 909 1556 
Q 909 1169 1025 897 
Q 1244 378 1825 378 
z
M 369 3331 
L 916 3331 
L 916 2888 
Q 1084 3116 1284 3241 
Q 1569 3428 1953 3428 
Q 2522 3428 2919 2992 
Q 3316 2556 3316 1747 
Q 3316 653 2744 184 
Q 2381 -113 1900 -113 
Q 1522 -113 1266 53 
Q 1116 147 931 375 
L 931 -1334 
L 369 -1334 
L 369 3331 
z
" transform="scale(0.015625)"/>
       <path id="Helvetica-66" d="M 553 3856 
Q 566 4206 675 4369 
Q 872 4656 1434 4656 
Q 1488 4656 1544 4653 
Q 1600 4650 1672 4644 
L 1672 4131 
Q 1584 4138 1545 4139 
Q 1506 4141 1472 4141 
Q 1216 4141 1166 4008 
Q 1116 3875 1116 3331 
L 1672 3331 
L 1672 2888 
L 1109 2888 
L 1109 0 
L 553 0 
L 553 2888 
L 88 2888 
L 88 3331 
L 553 3331 
L 553 3856 
z
" transform="scale(0.015625)"/>
      </defs>
      <use xlink:href="#Helvetica-6c"/>
      <use xlink:href="#Helvetica-6f" x="22.216797"/>
      <use xlink:href="#Helvetica-67" x="77.832031"/>
      <use xlink:href="#Helvetica-32" x="133.447266"/>
      <use xlink:href="#Helvetica-5f" x="189.0625"/>
      <use xlink:href="#Helvetica-4d" x="244.677734"/>
      <use xlink:href="#Helvetica-52" x="327.978516"/>
      <use xlink:href="#Helvetica-4c" x="400.195312"/>
      <use xlink:href="#Helvetica-5f" x="455.810547"/>
      <use xlink:href="#Helvetica-32" x="511.425781"/>
      <use xlink:href="#Helvetica-68" x="567.041016"/>
      <use xlink:href="#Helvetica-70" x="622.65625"/>
      <use xlink:href="#Helvetica-66" x="678.271484"/>
     </g>
    </g>
   </g>
   <g id="patch_12">
    <path d="M 51.84 112.495304 
L 51.84 73.928348 
" style="fill: none; stroke: #000000; stroke-linejoin: miter; stroke-linecap: square"/>
   </g>
  </g>
  <g id="axes_3">
   <g id="patch_13">
    <path d="M 7.2 158.775652 
L 51.84 158.775652 
L 51.84 120.208696 
L 7.2 120.208696 
z
" style="fill: #ffffff"/>
   </g>
   <g id="line2d_8">
    <path d="M 7.2 139.492174 
L 51.84 139.492174 
" clip-path="url(#p8ff7288ddb)" style="fill: none; stroke: #000000; stroke-width: 0.5; stroke-linecap: square"/>
   </g>
   <g id="patch_14">
    <path d="M 26.661069 139.492174 
L 25.978146 135.686473 
L 21.652967 135.686473 
L 20.951833 139.492174 
L 18.639 139.492174 
L 22.308573 120.208696 
L 25.571427 120.208696 
L 29.241 139.492174 
L 26.661069 139.492174 
z
M 23.844391 123.749981 
L 22.214481 132.721237 
L 25.456089 132.721237 
L 23.844391 123.749981 
z
" clip-path="url(#p8ff7288ddb)" style="fill: #0f9447"/>
   </g>
   <g id="patch_15">
    <path d="M 37.821069 139.492174 
L 37.138146 138.992062 
L 32.812967 138.992062 
L 32.111833 139.492174 
L 29.799 139.492174 
L 33.468573 136.958107 
L 36.731427 136.958107 
L 40.401 139.492174 
L 37.821069 139.492174 
z
M 35.004391 137.423472 
L 33.374481 138.602396 
L 36.616089 138.602396 
L 35.004391 137.423472 
z
" clip-path="url(#p8ff7288ddb)" style="fill: #0f9447"/>
   </g>
   <g id="patch_16">
    <path d="M 46.565959 139.252357 
L 46.565959 139.167755 
L 51.561 139.167755 
L 51.561 139.458067 
Q 50.594994 139.47552 49.543045 139.48378 
Q 48.491095 139.492174 47.253508 139.492174 
Q 45.792467 139.492174 44.627072 139.474721 
Q 43.461677 139.457134 42.643494 139.422627 
Q 41.828749 139.38812 41.392156 139.336959 
Q 40.959 139.285665 40.959 139.21825 
Q 40.959 139.150301 41.41622 139.096609 
Q 41.87344 139.042917 42.746626 139.005745 
Q 43.623251 138.96844 44.895216 138.948855 
Q 46.170619 138.92927 47.803547 138.92927 
Q 48.769553 138.92927 49.68743 138.935798 
Q 50.605307 138.942193 51.519747 138.952985 
L 51.519747 139.054108 
Q 50.725628 139.039586 49.76306 139.03026 
Q 48.800492 139.0208 47.824173 139.0208 
Q 46.834103 139.0208 46.0778 139.034123 
Q 45.321496 139.047446 44.809272 139.072094 
Q 44.300486 139.096609 44.03578 139.132448 
Q 43.774512 139.168288 43.774512 139.213187 
Q 43.774512 139.256487 43.977339 139.29126 
Q 44.180165 139.326034 44.637385 139.350415 
Q 45.094605 139.374797 45.813093 139.38772 
Q 46.535019 139.40051 47.566342 139.40051 
Q 47.81386 139.40051 47.99606 139.399978 
Q 48.178261 139.399311 48.339835 139.398112 
Q 48.501409 139.39678 48.645794 139.395181 
Q 48.790179 139.393449 48.951753 139.391451 
L 48.951753 139.252357 
L 46.565959 139.252357 
z
" clip-path="url(#p8ff7288ddb)" style="fill: #f5b328"/>
   </g>
   <g id="patch_17">
    <path d="M 13.085959 140.227255 
L 13.085959 140.486576 
L 18.081 140.486576 
L 18.081 139.596719 
Q 17.114994 139.543221 16.063045 139.517902 
Q 15.011095 139.492174 13.773508 139.492174 
Q 12.312467 139.492174 11.147072 139.545672 
Q 9.981677 139.599577 9.163494 139.705348 
Q 8.348749 139.811118 7.912156 139.967935 
Q 7.479 140.125161 7.479 140.3318 
Q 7.479 140.540073 7.93622 140.70465 
Q 8.39344 140.869227 9.266626 140.983164 
Q 10.143251 141.09751 11.415216 141.157542 
Q 12.690619 141.217574 14.323547 141.217574 
Q 15.289553 141.217574 16.20743 141.197563 
Q 17.125307 141.177961 18.039747 141.144882 
L 18.039747 140.834923 
Q 17.245628 140.879436 16.28306 140.908023 
Q 15.320492 140.937017 14.344173 140.937017 
Q 13.354103 140.937017 12.5978 140.89618 
Q 11.841496 140.855342 11.329272 140.779792 
Q 10.820486 140.70465 10.55578 140.594796 
Q 10.294512 140.484942 10.294512 140.347319 
Q 10.294512 140.214596 10.497339 140.108009 
Q 10.700165 140.001422 11.157385 139.926689 
Q 11.614605 139.851955 12.333093 139.812343 
Q 13.055019 139.773138 14.086342 139.773138 
Q 14.33386 139.773138 14.51606 139.774772 
Q 14.698261 139.776814 14.859835 139.780489 
Q 15.021409 139.784573 15.165794 139.789474 
Q 15.310179 139.794782 15.471753 139.800908 
L 15.471753 140.227255 
L 13.085959 140.227255 
z
" clip-path="url(#p8ff7288ddb)" style="fill: #f5b328"/>
   </g>
   <g id="matplotlib.axis_5">
    <g id="xtick_3">
     <g id="line2d_9">
      <g>
       <use xlink:href="#mac8ae92fc9" x="46.26" y="158.775652" style="stroke: #000000; stroke-width: 0.8"/>
      </g>
     </g>
    </g>
   </g>
   <g id="matplotlib.axis_6">
    <g id="ytick_4">
     <g id="line2d_10">
      <g>
       <use xlink:href="#m6b090aadcd" x="51.84" y="149.260693" style="stroke: #000000; stroke-width: 0.8"/>
      </g>
     </g>
     <g id="text_5">
      <!-- −0.25 -->
      <g transform="translate(58.84 152.847412)scale(0.1 -0.1)">
       <use xlink:href="#Helvetica-2212"/>
       <use xlink:href="#Helvetica-30" x="58.398438"/>
       <use xlink:href="#Helvetica-2e" x="114.013672"/>
       <use xlink:href="#Helvetica-32" x="141.796875"/>
       <use xlink:href="#Helvetica-35" x="197.412109"/>
      </g>
     </g>
    </g>
    <g id="ytick_5">
     <g id="line2d_11">
      <g>
       <use xlink:href="#m6b090aadcd" x="51.84" y="139.492174" style="stroke: #000000; stroke-width: 0.8"/>
      </g>
     </g>
     <g id="text_6">
      <!-- 0.00 -->
      <g transform="translate(58.84 143.078893)scale(0.1 -0.1)">
       <use xlink:href="#Helvetica-30"/>
       <use xlink:href="#Helvetica-2e" x="55.615234"/>
       <use xlink:href="#Helvetica-30" x="83.398438"/>
       <use xlink:href="#Helvetica-30" x="139.013672"/>
      </g>
     </g>
    </g>
    <g id="ytick_6">
     <g id="line2d_12">
      <g>
       <use xlink:href="#m6b090aadcd" x="51.84" y="129.723655" style="stroke: #000000; stroke-width: 0.8"/>
      </g>
     </g>
     <g id="text_7">
      <!-- 0.25 -->
      <g transform="translate(58.84 133.310374)scale(0.1 -0.1)">
       <use xlink:href="#Helvetica-30"/>
       <use xlink:href="#Helvetica-2e" x="55.615234"/>
       <use xlink:href="#Helvetica-32" x="83.398438"/>
       <use xlink:href="#Helvetica-35" x="139.013672"/>
      </g>
     </g>
    </g>
    <g id="text_8">
     <!-- log2_MRL_10hpf -->
     <g transform="translate(-72.960938 142.023424)scale(0.1 -0.1)">
      <defs>
       <path id="Helvetica-31" d="M 613 3169 
L 613 3600 
Q 1222 3659 1462 3798 
Q 1703 3938 1822 4456 
L 2266 4456 
L 2266 0 
L 1666 0 
L 1666 3169 
L 613 3169 
z
" transform="scale(0.015625)"/>
      </defs>
      <use xlink:href="#Helvetica-6c"/>
      <use xlink:href="#Helvetica-6f" x="22.216797"/>
      <use xlink:href="#Helvetica-67" x="77.832031"/>
      <use xlink:href="#Helvetica-32" x="133.447266"/>
      <use xlink:href="#Helvetica-5f" x="189.0625"/>
      <use xlink:href="#Helvetica-4d" x="244.677734"/>
      <use xlink:href="#Helvetica-52" x="327.978516"/>
      <use xlink:href="#Helvetica-4c" x="400.195312"/>
      <use xlink:href="#Helvetica-5f" x="455.810547"/>
      <use xlink:href="#Helvetica-31" x="511.425781"/>
      <use xlink:href="#Helvetica-30" x="567.041016"/>
      <use xlink:href="#Helvetica-68" x="622.65625"/>
      <use xlink:href="#Helvetica-70" x="678.271484"/>
      <use xlink:href="#Helvetica-66" x="733.886719"/>
     </g>
    </g>
   </g>
   <g id="patch_18">
    <path d="M 51.84 158.775652 
L 51.84 120.208696 
" style="fill: none; stroke: #000000; stroke-linejoin: miter; stroke-linecap: square"/>
   </g>
  </g>
  <g id="axes_4">
   <g id="patch_19">
    <path d="M 7.2 205.056 
L 51.84 205.056 
L 51.84 166.489043 
L 7.2 166.489043 
z
" style="fill: #ffffff"/>
   </g>
   <g id="line2d_13">
    <path d="M 7.2 185.772522 
L 51.84 185.772522 
" clip-path="url(#pf05c7bea79)" style="fill: none; stroke: #000000; stroke-width: 0.5; stroke-linecap: square"/>
   </g>
   <g id="patch_20">
    <path d="M 13.085959 185.660039 
L 13.085959 185.620358 
L 18.081 185.620358 
L 18.081 185.756524 
Q 17.114994 185.76471 16.063045 185.768585 
Q 15.011095 185.772522 13.773508 185.772522 
Q 12.312467 185.772522 11.147072 185.764336 
Q 9.981677 185.756087 9.163494 185.739902 
Q 8.348749 185.723717 7.912156 185.699721 
Q 7.479 185.675662 7.479 185.644042 
Q 7.479 185.612172 7.93622 185.586988 
Q 8.39344 185.561805 9.266626 185.54437 
Q 10.143251 185.526873 11.415216 185.517687 
Q 12.690619 185.5085 14.323547 185.5085 
Q 15.289553 185.5085 16.20743 185.511563 
Q 17.125307 185.514562 18.039747 185.519624 
L 18.039747 185.567054 
Q 17.245628 185.560242 16.28306 185.555868 
Q 15.320492 185.551431 14.344173 185.551431 
Q 13.354103 185.551431 12.5978 185.55768 
Q 11.841496 185.563929 11.329272 185.57549 
Q 10.820486 185.586988 10.55578 185.603798 
Q 10.294512 185.620608 10.294512 185.641667 
Q 10.294512 185.661977 10.497339 185.678286 
Q 10.700165 185.694596 11.157385 185.706032 
Q 11.614605 185.717468 12.333093 185.723529 
Q 13.055019 185.729528 14.086342 185.729528 
Q 14.33386 185.729528 14.51606 185.729278 
Q 14.698261 185.728966 14.859835 185.728404 
Q 15.021409 185.727779 15.165794 185.727029 
Q 15.310179 185.726216 15.471753 185.725279 
L 15.471753 185.660039 
L 13.085959 185.660039 
z
" clip-path="url(#pf05c7bea79)" style="fill: #f5b328"/>
   </g>
   <g id="patch_21">
    <path d="M 26.661069 185.772522 
L 25.978146 183.012018 
L 21.652967 183.012018 
L 20.951833 185.772522 
L 18.639 185.772522 
L 22.308573 171.785055 
L 25.571427 171.785055 
L 29.241 185.772522 
L 26.661069 185.772522 
z
M 23.844391 174.353762 
L 22.214481 180.861154 
L 25.456089 180.861154 
L 23.844391 174.353762 
z
" clip-path="url(#pf05c7bea79)" style="fill: #0f9447"/>
   </g>
   <g id="patch_22">
    <path d="M 37.821069 185.772522 
L 37.138146 185.403651 
L 32.812967 185.403651 
L 32.111833 185.772522 
L 29.799 185.772522 
L 33.468573 183.903453 
L 36.731427 183.903453 
L 40.401 185.772522 
L 37.821069 185.772522 
z
M 35.004391 184.246695 
L 33.374481 185.116243 
L 36.616089 185.116243 
L 35.004391 184.246695 
z
" clip-path="url(#pf05c7bea79)" style="fill: #0f9447"/>
   </g>
   <g id="patch_23">
    <path d="M 46.565959 185.241748 
L 46.565959 185.054503 
L 51.561 185.054503 
L 51.561 185.697034 
Q 50.594994 185.735662 49.543045 185.753945 
Q 48.491095 185.772522 47.253508 185.772522 
Q 45.792467 185.772522 44.627072 185.733893 
Q 43.461677 185.69497 42.643494 185.618597 
Q 41.828749 185.542225 41.392156 185.428993 
Q 40.959 185.315467 40.959 185.16626 
Q 40.959 185.015874 41.41622 184.89704 
Q 41.87344 184.778206 42.746626 184.695936 
Q 43.623251 184.613371 44.895216 184.570024 
Q 46.170619 184.526678 47.803547 184.526678 
Q 48.769553 184.526678 49.68743 184.541127 
Q 50.605307 184.555281 51.519747 184.579166 
L 51.519747 184.802975 
Q 50.725628 184.770834 49.76306 184.750193 
Q 48.800492 184.729257 47.824173 184.729257 
Q 46.834103 184.729257 46.0778 184.758744 
Q 45.321496 184.788231 44.809272 184.842783 
Q 44.300486 184.89704 44.03578 184.976361 
Q 43.774512 185.055682 43.774512 185.155055 
Q 43.774512 185.250889 43.977339 185.327851 
Q 44.180165 185.404814 44.637385 185.458776 
Q 45.094605 185.512738 45.813093 185.54134 
Q 46.535019 185.569648 47.566342 185.569648 
Q 47.81386 185.569648 47.99606 185.568469 
Q 48.178261 185.566994 48.339835 185.564341 
Q 48.501409 185.561392 48.645794 185.557853 
Q 48.790179 185.55402 48.951753 185.549597 
L 48.951753 185.241748 
L 46.565959 185.241748 
z
" clip-path="url(#pf05c7bea79)" style="fill: #f5b328"/>
   </g>
   <g id="matplotlib.axis_7">
    <g id="xtick_4">
     <g id="line2d_14">
      <g>
       <use xlink:href="#mac8ae92fc9" x="46.26" y="205.056" style="stroke: #000000; stroke-width: 0.8"/>
      </g>
     </g>
     <g id="text_9">
      <!-- -1 -->
      <g transform="translate(41.814688 219.229438)scale(0.1 -0.1)">
       <defs>
        <path id="Helvetica-2d" d="M 266 2072 
L 1834 2072 
L 1834 1494 
L 266 1494 
L 266 2072 
z
" transform="scale(0.015625)"/>
       </defs>
       <use xlink:href="#Helvetica-2d"/>
       <use xlink:href="#Helvetica-31" x="33.300781"/>
      </g>
     </g>
    </g>
   </g>
   <g id="matplotlib.axis_8">
    <g id="ytick_7">
     <g id="line2d_15">
      <g>
       <use xlink:href="#m6b090aadcd" x="51.84" y="195.541041" style="stroke: #000000; stroke-width: 0.8"/>
      </g>
     </g>
     <g id="text_10">
      <!-- −0.25 -->
      <g transform="translate(58.84 199.127759)scale(0.1 -0.1)">
       <use xlink:href="#Helvetica-2212"/>
       <use xlink:href="#Helvetica-30" x="58.398438"/>
       <use xlink:href="#Helvetica-2e" x="114.013672"/>
       <use xlink:href="#Helvetica-32" x="141.796875"/>
       <use xlink:href="#Helvetica-35" x="197.412109"/>
      </g>
     </g>
    </g>
    <g id="ytick_8">
     <g id="line2d_16">
      <g>
       <use xlink:href="#m6b090aadcd" x="51.84" y="185.772522" style="stroke: #000000; stroke-width: 0.8"/>
      </g>
     </g>
     <g id="text_11">
      <!-- 0.00 -->
      <g transform="translate(58.84 189.35924)scale(0.1 -0.1)">
       <use xlink:href="#Helvetica-30"/>
       <use xlink:href="#Helvetica-2e" x="55.615234"/>
       <use xlink:href="#Helvetica-30" x="83.398438"/>
       <use xlink:href="#Helvetica-30" x="139.013672"/>
      </g>
     </g>
    </g>
    <g id="ytick_9">
     <g id="line2d_17">
      <g>
       <use xlink:href="#m6b090aadcd" x="51.84" y="176.004003" style="stroke: #000000; stroke-width: 0.8"/>
      </g>
     </g>
     <g id="text_12">
      <!-- 0.25 -->
      <g transform="translate(58.84 179.590721)scale(0.1 -0.1)">
       <use xlink:href="#Helvetica-30"/>
       <use xlink:href="#Helvetica-2e" x="55.615234"/>
       <use xlink:href="#Helvetica-32" x="83.398438"/>
       <use xlink:href="#Helvetica-35" x="139.013672"/>
      </g>
     </g>
    </g>
    <g id="text_13">
     <!-- Δlog2_MRL_10-2hpf -->
     <g transform="translate(-89.073437 188.303772)scale(0.1 -0.1)">
      <defs>
       <path id="Helvetica-394" d="M 922 500 
L 3672 500 
L 2278 3941 
L 922 500 
z
M 1966 4519 
L 2631 4519 
L 4494 0 
L 128 0 
L 1966 4519 
z
" transform="scale(0.015625)"/>
      </defs>
      <use xlink:href="#Helvetica-394"/>
      <use xlink:href="#Helvetica-6c" x="72.216797"/>
      <use xlink:href="#Helvetica-6f" x="94.433594"/>
      <use xlink:href="#Helvetica-67" x="150.048828"/>
      <use xlink:href="#Helvetica-32" x="205.664062"/>
      <use xlink:href="#Helvetica-5f" x="261.279297"/>
      <use xlink:href="#Helvetica-4d" x="316.894531"/>
      <use xlink:href="#Helvetica-52" x="400.195312"/>
      <use xlink:href="#Helvetica-4c" x="472.412109"/>
      <use xlink:href="#Helvetica-5f" x="528.027344"/>
      <use xlink:href="#Helvetica-31" x="583.642578"/>
      <use xlink:href="#Helvetica-30" x="639.257812"/>
      <use xlink:href="#Helvetica-2d" x="694.873047"/>
      <use xlink:href="#Helvetica-32" x="728.173828"/>
      <use xlink:href="#Helvetica-68" x="783.789062"/>
      <use xlink:href="#Helvetica-70" x="839.404297"/>
      <use xlink:href="#Helvetica-66" x="895.019531"/>
     </g>
    </g>
   </g>
   <g id="patch_24">
    <path d="M 51.84 205.056 
L 51.84 166.489043 
" style="fill: none; stroke: #000000; stroke-linejoin: miter; stroke-linecap: square"/>
   </g>
  </g>
 </g>
 <defs>
  <clipPath id="p1c69da1f46">
   <rect x="7.2" y="27.648" width="44.64" height="38.566957"/>
  </clipPath>
  <clipPath id="pb9e960deaa">
   <rect x="7.2" y="73.928348" width="44.64" height="38.566957"/>
  </clipPath>
  <clipPath id="p8ff7288ddb">
   <rect x="7.2" y="120.208696" width="44.64" height="38.566957"/>
  </clipPath>
  <clipPath id="pf05c7bea79">
   <rect x="7.2" y="166.489043" width="44.64" height="38.566957"/>
  </clipPath>
 </defs>
</svg>
