<?xml version="1.0" encoding="utf-8" standalone="no"?>
<!DOCTYPE svg PUBLIC "-//W3C//DTD SVG 1.1//EN"
  "http://www.w3.org/Graphics/SVG/1.1/DTD/svg11.dtd">
<svg xmlns:xlink="http://www.w3.org/1999/xlink" width="57.6pt" height="230.4pt" viewBox="0 0 57.6 230.4" xmlns="http://www.w3.org/2000/svg" version="1.1">
 <metadata>
  <rdf:RDF xmlns:dc="http://purl.org/dc/elements/1.1/" xmlns:cc="http://creativecommons.org/ns#" xmlns:rdf="http://www.w3.org/1999/02/22-rdf-syntax-ns#">
   <cc:Work>
    <dc:type rdf:resource="http://purl.org/dc/dcmitype/StillImage"/>
    <dc:date>2023-11-22T21:47:18.528096</dc:date>
    <dc:format>image/svg+xml</dc:format>
    <dc:creator>
     <cc:Agent>
      <dc:title>Matplotlib v3.5.1, https://matplotlib.org/</dc:title>
     </cc:Agent>
    </dc:creator>
   </cc:Work>
  </rdf:RDF>
 </metadata>
 <defs>
  <style type="text/css">*{stroke-linejoin: round; stroke-linecap: butt}</style>
 </defs>
 <g id="figure_1">
  <g id="patch_1">
   <path d="M 0 230.4 
L 57.6 230.4 
L 57.6 0 
L 0 0 
z
" style="fill: #ffffff"/>
  </g>
  <g id="axes_1">
   <g id="patch_2">
    <path d="M 7.2 66.214957 
L 51.84 66.214957 
L 51.84 27.648 
L 7.2 27.648 
z
" style="fill: #ffffff"/>
   </g>
   <g id="line2d_1">
    <path d="M 7.2 66.214957 
L 51.84 66.214957 
" clip-path="url(#pe5ea477b3a)" style="fill: none; stroke: #000000; stroke-width: 0.5; stroke-linecap: square"/>
   </g>
   <g id="patch_3">
    <path d="M 13.085959 49.784064 
L 13.085959 43.98761 
L 18.081 43.98761 
L 18.081 63.878118 
Q 17.114994 65.073922 16.063045 65.639875 
Q 15.011095 66.214957 13.773508 66.214957 
Q 12.312467 66.214957 11.147072 65.019153 
Q 9.981677 63.814221 9.163494 61.449998 
Q 8.348749 59.085775 7.912156 55.580518 
Q 7.479 52.066132 7.479 47.447226 
Q 7.479 42.791806 7.93622 39.113112 
Q 8.39344 35.434417 9.266626 32.887629 
Q 10.143251 30.331712 11.415216 28.989856 
Q 12.690619 27.648 14.323547 27.648 
Q 15.289553 27.648 16.20743 28.095285 
Q 17.125307 28.533443 18.039747 29.272833 
L 18.039747 36.201192 
Q 17.245628 35.206211 16.28306 34.567231 
Q 15.320492 33.919124 14.344173 33.919124 
Q 13.354103 33.919124 12.5978 34.831951 
Q 11.841496 35.744779 11.329272 37.433509 
Q 10.820486 39.113112 10.55578 41.568617 
Q 10.294512 44.024123 10.294512 47.100351 
Q 10.294512 50.06704 10.497339 52.44952 
Q 10.700165 54.831999 11.157385 56.502473 
Q 11.614605 58.172947 12.333093 59.05839 
Q 13.055019 59.934704 14.086342 59.934704 
Q 14.33386 59.934704 14.51606 59.898191 
Q 14.698261 59.85255 14.859835 59.770395 
Q 15.021409 59.679113 15.165794 59.569573 
Q 15.310179 59.450906 15.471753 59.313982 
L 15.471753 49.784064 
L 13.085959 49.784064 
z
" clip-path="url(#pe5ea477b3a)" style="fill: #f5b328"/>
   </g>
   <g id="patch_4">
    <path d="M 26.661069 66.214957 
L 25.978146 58.603554 
L 21.652967 58.603554 
L 20.951833 66.214957 
L 18.639 66.214957 
L 22.308573 27.648 
L 25.571427 27.648 
L 29.241 66.214957 
L 26.661069 66.214957 
z
M 23.844391 34.73057 
L 22.214481 52.673082 
L 25.456089 52.673082 
L 23.844391 34.73057 
z
" clip-path="url(#pe5ea477b3a)" style="fill: #0f9447"/>
   </g>
   <g id="patch_5">
    <path d="M 40.401 51.599231 
Q 40.401 55.218363 40.026812 57.965191 
Q 39.656187 60.70274 38.957703 62.530866 
Q 38.262782 64.358991 37.257819 65.286974 
Q 36.25642 66.214957 35.009126 66.214957 
Q 33.608593 66.214957 32.60363 65.286974 
Q 31.602231 64.358991 30.978584 62.623664 
Q 30.354937 60.879057 30.076968 58.382783 
Q 29.799 55.88651 29.799 52.787048 
L 29.799 27.648 
L 32.539483 27.648 
L 32.539483 52.350897 
Q 32.539483 54.262541 32.667776 55.747313 
Q 32.79607 57.222805 33.113239 58.252866 
Q 33.430408 59.282927 33.907943 59.802597 
Q 34.385479 60.322267 35.112473 60.322267 
Q 35.789575 60.322267 36.25642 59.876835 
Q 36.726828 59.431404 37.03687 58.429183 
Q 37.350475 57.426961 37.503714 55.858671 
Q 37.660517 54.29038 37.660517 52.063222 
L 37.660517 27.648 
L 40.401 27.648 
L 40.401 51.599231 
z
" clip-path="url(#pe5ea477b3a)" style="fill: #e42638"/>
   </g>
   <g id="patch_6">
    <path d="M 48.981069 66.214957 
L 48.298146 58.603554 
L 43.972967 58.603554 
L 43.271833 66.214957 
L 40.959 66.214957 
L 44.628573 27.648 
L 47.891427 27.648 
L 51.561 66.214957 
L 48.981069 66.214957 
z
M 46.164391 34.73057 
L 44.534481 52.673082 
L 47.776089 52.673082 
L 46.164391 34.73057 
z
" clip-path="url(#pe5ea477b3a)" style="fill: #0f9447"/>
   </g>
   <g id="matplotlib.axis_1">
    <g id="xtick_1">
     <g id="line2d_2">
      <defs>
       <path id="m3d7992b827" d="M 0 0 
L 0 3.5 
" style="stroke: #000000; stroke-width: 0.8"/>
      </defs>
      <g>
       <use xlink:href="#m3d7992b827" x="46.26" y="66.214957" style="stroke: #000000; stroke-width: 0.8"/>
      </g>
     </g>
    </g>
   </g>
   <g id="matplotlib.axis_2"/>
  </g>
  <g id="axes_2">
   <g id="patch_7">
    <path d="M 7.2 112.495304 
L 51.84 112.495304 
L 51.84 73.928348 
L 7.2 73.928348 
z
" style="fill: #ffffff"/>
   </g>
   <g id="line2d_3">
    <path d="M 7.2 93.211826 
L 51.84 93.211826 
" clip-path="url(#p8d521753a8)" style="fill: none; stroke: #000000; stroke-width: 0.5; stroke-linecap: square"/>
   </g>
   <g id="patch_8">
    <path d="M 26.661069 93.211826 
L 25.978146 91.461983 
L 21.652967 91.461983 
L 20.951833 93.211826 
L 18.639 93.211826 
L 22.308573 84.345374 
L 25.571427 84.345374 
L 29.241 93.211826 
L 26.661069 93.211826 
z
M 23.844391 85.97364 
L 22.214481 90.098581 
L 25.456089 90.098581 
L 23.844391 85.97364 
z
" clip-path="url(#p8d521753a8)" style="fill: #0f9447"/>
   </g>
   <g id="patch_9">
    <path d="M 40.401 92.5943 
Q 40.401 92.747212 40.026812 92.863267 
Q 39.656187 92.978931 38.957703 93.05617 
Q 38.262782 93.13341 37.257819 93.172618 
Q 36.25642 93.211826 35.009126 93.211826 
Q 33.608593 93.211826 32.60363 93.172618 
Q 31.602231 93.13341 30.978584 93.060091 
Q 30.354937 92.98638 30.076968 92.880911 
Q 29.799 92.775441 29.799 92.644487 
L 29.799 91.582343 
L 32.539483 91.582343 
L 32.539483 92.626059 
Q 32.539483 92.706827 32.667776 92.76956 
Q 32.79607 92.831901 33.113239 92.875422 
Q 33.430408 92.918942 33.907943 92.940899 
Q 34.385479 92.962855 35.112473 92.962855 
Q 35.789575 92.962855 36.25642 92.944036 
Q 36.726828 92.925216 37.03687 92.882871 
Q 37.350475 92.840527 37.503714 92.774265 
Q 37.660517 92.708004 37.660517 92.613904 
L 37.660517 91.582343 
L 40.401 91.582343 
L 40.401 92.5943 
z
" clip-path="url(#p8d521753a8)" style="fill: #e42638"/>
   </g>
   <g id="patch_10">
    <path d="M 48.981069 93.211826 
L 48.298146 93.006925 
L 43.972967 93.006925 
L 43.271833 93.211826 
L 40.959 93.211826 
L 44.628573 92.173594 
L 47.891427 92.173594 
L 51.561 93.211826 
L 48.981069 93.211826 
z
M 46.164391 92.364259 
L 44.534481 92.847275 
L 47.776089 92.847275 
L 46.164391 92.364259 
z
" clip-path="url(#p8d521753a8)" style="fill: #0f9447"/>
   </g>
   <g id="patch_11">
    <path d="M 13.085959 94.584599 
L 13.085959 95.068883 
L 18.081 95.068883 
L 18.081 93.407065 
Q 17.114994 93.307158 16.063045 93.259873 
Q 15.011095 93.211826 13.773508 93.211826 
Q 12.312467 93.211826 11.147072 93.311733 
Q 9.981677 93.412403 9.163494 93.60993 
Q 8.348749 93.807457 7.912156 94.100315 
Q 7.479 94.393936 7.479 94.779838 
Q 7.479 95.16879 7.93622 95.476139 
Q 8.39344 95.783488 9.266626 95.996268 
Q 10.143251 96.20981 11.415216 96.32192 
Q 12.690619 96.43403 14.323547 96.43403 
Q 15.289553 96.43403 16.20743 96.39666 
Q 17.125307 96.360052 18.039747 96.298278 
L 18.039747 95.719425 
Q 17.245628 95.802554 16.28306 95.85594 
Q 15.320492 95.910088 14.344173 95.910088 
Q 13.354103 95.910088 12.5978 95.833823 
Q 11.841496 95.757558 11.329272 95.616467 
Q 10.820486 95.476139 10.55578 95.270986 
Q 10.294512 95.065832 10.294512 94.808819 
Q 10.294512 94.560957 10.497339 94.361905 
Q 10.700165 94.162853 11.157385 94.023288 
Q 11.614605 93.883722 12.333093 93.809745 
Q 13.055019 93.73653 14.086342 93.73653 
Q 14.33386 93.73653 14.51606 93.739581 
Q 14.698261 93.743394 14.859835 93.750258 
Q 15.021409 93.757885 15.165794 93.767037 
Q 15.310179 93.776951 15.471753 93.788391 
L 15.471753 94.584599 
L 13.085959 94.584599 
z
" clip-path="url(#p8d521753a8)" style="fill: #f5b328"/>
   </g>
   <g id="matplotlib.axis_3">
    <g id="xtick_2">
     <g id="line2d_4">
      <g>
       <use xlink:href="#m3d7992b827" x="46.26" y="112.495304" style="stroke: #000000; stroke-width: 0.8"/>
      </g>
     </g>
    </g>
   </g>
   <g id="matplotlib.axis_4">
    <g id="ytick_1">
     <g id="line2d_5">
      <defs>
       <path id="m6e4e40972e" d="M 0 0 
L 3.5 0 
" style="stroke: #000000; stroke-width: 0.8"/>
      </defs>
      <g>
       <use xlink:href="#m6e4e40972e" x="51.84" y="110.206057" style="stroke: #000000; stroke-width: 0.8"/>
      </g>
     </g>
     <g id="text_1">
      <!-- −0.5 -->
      <g transform="translate(58.84 113.792775)scale(0.1 -0.1)">
       <defs>
        <path id="Helvetica-2212" d="M 3547 1894 
L 3547 1369 
L 288 1369 
L 288 1894 
L 3547 1894 
z
" transform="scale(0.015625)"/>
        <path id="Helvetica-30" d="M 1731 4475 
Q 2600 4475 2988 3759 
Q 3288 3206 3288 2244 
Q 3288 1331 3016 734 
Q 2622 -122 1728 -122 
Q 922 -122 528 578 
Q 200 1163 200 2147 
Q 200 2909 397 3456 
Q 766 4475 1731 4475 
z
M 1725 391 
Q 2163 391 2422 778 
Q 2681 1166 2681 2222 
Q 2681 2984 2493 3476 
Q 2306 3969 1766 3969 
Q 1269 3969 1039 3501 
Q 809 3034 809 2125 
Q 809 1441 956 1025 
Q 1181 391 1725 391 
z
" transform="scale(0.015625)"/>
        <path id="Helvetica-2e" d="M 547 681 
L 1200 681 
L 1200 0 
L 547 0 
L 547 681 
z
" transform="scale(0.015625)"/>
        <path id="Helvetica-35" d="M 791 1141 
Q 847 659 1238 475 
Q 1438 381 1700 381 
Q 2200 381 2440 700 
Q 2681 1019 2681 1406 
Q 2681 1875 2395 2131 
Q 2109 2388 1709 2388 
Q 1419 2388 1211 2275 
Q 1003 2163 856 1963 
L 369 1991 
L 709 4400 
L 3034 4400 
L 3034 3856 
L 1131 3856 
L 941 2613 
Q 1097 2731 1238 2791 
Q 1488 2894 1816 2894 
Q 2431 2894 2859 2497 
Q 3288 2100 3288 1491 
Q 3288 856 2895 371 
Q 2503 -113 1644 -113 
Q 1097 -113 676 195 
Q 256 503 206 1141 
L 791 1141 
z
" transform="scale(0.015625)"/>
       </defs>
       <use xlink:href="#Helvetica-2212"/>
       <use xlink:href="#Helvetica-30" x="58.398438"/>
       <use xlink:href="#Helvetica-2e" x="114.013672"/>
       <use xlink:href="#Helvetica-35" x="141.796875"/>
      </g>
     </g>
    </g>
    <g id="ytick_2">
     <g id="line2d_6">
      <g>
       <use xlink:href="#m6e4e40972e" x="51.84" y="93.211826" style="stroke: #000000; stroke-width: 0.8"/>
      </g>
     </g>
     <g id="text_2">
      <!-- 0.0 -->
      <g transform="translate(58.84 96.798545)scale(0.1 -0.1)">
       <use xlink:href="#Helvetica-30"/>
       <use xlink:href="#Helvetica-2e" x="55.615234"/>
       <use xlink:href="#Helvetica-30" x="83.398438"/>
      </g>
     </g>
    </g>
    <g id="ytick_3">
     <g id="line2d_7">
      <g>
       <use xlink:href="#m6e4e40972e" x="51.84" y="76.217596" style="stroke: #000000; stroke-width: 0.8"/>
      </g>
     </g>
     <g id="text_3">
      <!-- 0.5 -->
      <g transform="translate(58.84 79.804314)scale(0.1 -0.1)">
       <use xlink:href="#Helvetica-30"/>
       <use xlink:href="#Helvetica-2e" x="55.615234"/>
       <use xlink:href="#Helvetica-35" x="83.398438"/>
      </g>
     </g>
    </g>
    <g id="text_4">
     <!-- log2_MRL_2hpf -->
     <g transform="translate(-67.4 95.743076)scale(0.1 -0.1)">
      <defs>
       <path id="Helvetica-6c" d="M 428 4591 
L 991 4591 
L 991 0 
L 428 0 
L 428 4591 
z
" transform="scale(0.015625)"/>
       <path id="Helvetica-6f" d="M 1741 363 
Q 2300 363 2508 786 
Q 2716 1209 2716 1728 
Q 2716 2197 2566 2491 
Q 2328 2953 1747 2953 
Q 1231 2953 997 2559 
Q 763 2166 763 1609 
Q 763 1075 997 719 
Q 1231 363 1741 363 
z
M 1763 3444 
Q 2409 3444 2856 3012 
Q 3303 2581 3303 1744 
Q 3303 934 2909 406 
Q 2516 -122 1688 -122 
Q 997 -122 590 345 
Q 184 813 184 1600 
Q 184 2444 612 2944 
Q 1041 3444 1763 3444 
z
M 1744 3428 
L 1744 3428 
z
" transform="scale(0.015625)"/>
       <path id="Helvetica-67" d="M 1594 3406 
Q 1988 3406 2281 3213 
Q 2441 3103 2606 2894 
L 2606 3316 
L 3125 3316 
L 3125 272 
Q 3125 -366 2938 -734 
Q 2588 -1416 1616 -1416 
Q 1075 -1416 706 -1173 
Q 338 -931 294 -416 
L 866 -416 
Q 906 -641 1028 -763 
Q 1219 -950 1628 -950 
Q 2275 -950 2475 -494 
Q 2594 -225 2584 466 
Q 2416 209 2178 84 
Q 1941 -41 1550 -41 
Q 1006 -41 598 345 
Q 191 731 191 1622 
Q 191 2463 602 2934 
Q 1013 3406 1594 3406 
z
M 2606 1688 
Q 2606 2309 2350 2609 
Q 2094 2909 1697 2909 
Q 1103 2909 884 2353 
Q 769 2056 769 1575 
Q 769 1009 998 714 
Q 1228 419 1616 419 
Q 2222 419 2469 966 
Q 2606 1275 2606 1688 
z
M 1659 3428 
L 1659 3428 
z
" transform="scale(0.015625)"/>
       <path id="Helvetica-32" d="M 200 0 
Q 231 578 439 1006 
Q 647 1434 1250 1784 
L 1850 2131 
Q 2253 2366 2416 2531 
Q 2672 2791 2672 3125 
Q 2672 3516 2437 3745 
Q 2203 3975 1813 3975 
Q 1234 3975 1013 3538 
Q 894 3303 881 2888 
L 309 2888 
Q 319 3472 525 3841 
Q 891 4491 1816 4491 
Q 2584 4491 2939 4075 
Q 3294 3659 3294 3150 
Q 3294 2613 2916 2231 
Q 2697 2009 2131 1694 
L 1703 1456 
Q 1397 1288 1222 1134 
Q 909 863 828 531 
L 3272 531 
L 3272 0 
L 200 0 
z
" transform="scale(0.015625)"/>
       <path id="Helvetica-5f" d="M 0 -800 
L 0 -484 
L 3559 -484 
L 3559 -800 
L 0 -800 
z
" transform="scale(0.015625)"/>
       <path id="Helvetica-4d" d="M 472 4591 
L 1363 4591 
L 2681 709 
L 3991 4591 
L 4872 4591 
L 4872 0 
L 4281 0 
L 4281 2709 
Q 4281 2850 4287 3175 
Q 4294 3500 4294 3872 
L 2984 0 
L 2369 0 
L 1050 3872 
L 1050 3731 
Q 1050 3563 1058 3217 
Q 1066 2872 1066 2709 
L 1066 0 
L 472 0 
L 472 4591 
z
" transform="scale(0.015625)"/>
       <path id="Helvetica-52" d="M 2622 2488 
Q 3059 2488 3314 2663 
Q 3569 2838 3569 3294 
Q 3569 3784 3213 3963 
Q 3022 4056 2703 4056 
L 1184 4056 
L 1184 2488 
L 2622 2488 
z
M 563 4591 
L 2688 4591 
Q 3213 4591 3553 4438 
Q 4200 4144 4200 3353 
Q 4200 2941 4029 2678 
Q 3859 2416 3553 2256 
Q 3822 2147 3958 1969 
Q 4094 1791 4109 1391 
L 4131 775 
Q 4141 513 4175 384 
Q 4231 166 4375 103 
L 4375 0 
L 3613 0 
Q 3581 59 3562 153 
Q 3544 247 3531 516 
L 3494 1281 
Q 3472 1731 3159 1884 
Q 2981 1969 2600 1969 
L 1184 1969 
L 1184 0 
L 563 0 
L 563 4591 
z
" transform="scale(0.015625)"/>
       <path id="Helvetica-4c" d="M 488 4591 
L 1109 4591 
L 1109 547 
L 3434 547 
L 3434 0 
L 488 0 
L 488 4591 
z
" transform="scale(0.015625)"/>
       <path id="Helvetica-68" d="M 413 4606 
L 975 4606 
L 975 2894 
Q 1175 3147 1334 3250 
Q 1606 3428 2013 3428 
Q 2741 3428 3000 2919 
Q 3141 2641 3141 2147 
L 3141 0 
L 2563 0 
L 2563 2109 
Q 2563 2478 2469 2650 
Q 2316 2925 1894 2925 
Q 1544 2925 1259 2684 
Q 975 2444 975 1775 
L 975 0 
L 413 0 
L 413 4606 
z
" transform="scale(0.015625)"/>
       <path id="Helvetica-70" d="M 1825 378 
Q 2219 378 2480 708 
Q 2741 1038 2741 1694 
Q 2741 2094 2625 2381 
Q 2406 2934 1825 2934 
Q 1241 2934 1025 2350 
Q 909 2038 909 1556 
Q 909 1169 1025 897 
Q 1244 378 1825 378 
z
M 369 3331 
L 916 3331 
L 916 2888 
Q 1084 3116 1284 3241 
Q 1569 3428 1953 3428 
Q 2522 3428 2919 2992 
Q 3316 2556 3316 1747 
Q 3316 653 2744 184 
Q 2381 -113 1900 -113 
Q 1522 -113 1266 53 
Q 1116 147 931 375 
L 931 -1334 
L 369 -1334 
L 369 3331 
z
" transform="scale(0.015625)"/>
       <path id="Helvetica-66" d="M 553 3856 
Q 566 4206 675 4369 
Q 872 4656 1434 4656 
Q 1488 4656 1544 4653 
Q 1600 4650 1672 4644 
L 1672 4131 
Q 1584 4138 1545 4139 
Q 1506 4141 1472 4141 
Q 1216 4141 1166 4008 
Q 1116 3875 1116 3331 
L 1672 3331 
L 1672 2888 
L 1109 2888 
L 1109 0 
L 553 0 
L 553 2888 
L 88 2888 
L 88 3331 
L 553 3331 
L 553 3856 
z
" transform="scale(0.015625)"/>
      </defs>
      <use xlink:href="#Helvetica-6c"/>
      <use xlink:href="#Helvetica-6f" x="22.216797"/>
      <use xlink:href="#Helvetica-67" x="77.832031"/>
      <use xlink:href="#Helvetica-32" x="133.447266"/>
      <use xlink:href="#Helvetica-5f" x="189.0625"/>
      <use xlink:href="#Helvetica-4d" x="244.677734"/>
      <use xlink:href="#Helvetica-52" x="327.978516"/>
      <use xlink:href="#Helvetica-4c" x="400.195312"/>
      <use xlink:href="#Helvetica-5f" x="455.810547"/>
      <use xlink:href="#Helvetica-32" x="511.425781"/>
      <use xlink:href="#Helvetica-68" x="567.041016"/>
      <use xlink:href="#Helvetica-70" x="622.65625"/>
      <use xlink:href="#Helvetica-66" x="678.271484"/>
     </g>
    </g>
   </g>
   <g id="patch_12">
    <path d="M 51.84 112.495304 
L 51.84 73.928348 
" style="fill: none; stroke: #000000; stroke-linejoin: miter; stroke-linecap: square"/>
   </g>
  </g>
  <g id="axes_3">
   <g id="patch_13">
    <path d="M 7.2 158.775652 
L 51.84 158.775652 
L 51.84 120.208696 
L 7.2 120.208696 
z
" style="fill: #ffffff"/>
   </g>
   <g id="line2d_8">
    <path d="M 7.2 139.492174 
L 51.84 139.492174 
" clip-path="url(#p9efcc86229)" style="fill: none; stroke: #000000; stroke-width: 0.5; stroke-linecap: square"/>
   </g>
   <g id="patch_14">
    <path d="M 26.661069 139.492174 
L 25.978146 135.686473 
L 21.652967 135.686473 
L 20.951833 139.492174 
L 18.639 139.492174 
L 22.308573 120.208696 
L 25.571427 120.208696 
L 29.241 139.492174 
L 26.661069 139.492174 
z
M 23.844391 123.749981 
L 22.214481 132.721237 
L 25.456089 132.721237 
L 23.844391 123.749981 
z
" clip-path="url(#p9efcc86229)" style="fill: #0f9447"/>
   </g>
   <g id="patch_15">
    <path d="M 40.401 138.751462 
Q 40.401 138.934876 40.026812 139.074083 
Q 39.656187 139.21282 38.957703 139.305467 
Q 38.262782 139.398115 37.257819 139.445145 
Q 36.25642 139.492174 35.009126 139.492174 
Q 33.608593 139.492174 32.60363 139.445145 
Q 31.602231 139.398115 30.978584 139.31017 
Q 30.354937 139.221755 30.076968 139.095246 
Q 29.799 138.968737 29.799 138.811659 
L 29.799 137.537634 
L 32.539483 137.537634 
L 32.539483 138.789556 
Q 32.539483 138.886436 32.667776 138.961683 
Q 32.79607 139.03646 33.113239 139.088662 
Q 33.430408 139.140865 33.907943 139.167201 
Q 34.385479 139.193538 35.112473 139.193538 
Q 35.789575 139.193538 36.25642 139.170964 
Q 36.726828 139.148389 37.03687 139.097598 
Q 37.350475 139.046806 37.503714 138.967326 
Q 37.660517 138.887847 37.660517 138.774976 
L 37.660517 137.537634 
L 40.401 137.537634 
L 40.401 138.751462 
z
" clip-path="url(#p9efcc86229)" style="fill: #e42638"/>
   </g>
   <g id="patch_16">
    <path d="M 48.981069 139.492174 
L 48.298146 139.156806 
L 43.972967 139.156806 
L 43.271833 139.492174 
L 40.959 139.492174 
L 44.628573 137.792865 
L 47.891427 137.792865 
L 51.561 139.492174 
L 48.981069 139.492174 
z
M 46.164391 138.104932 
L 44.534481 138.895502 
L 47.776089 138.895502 
L 46.164391 138.104932 
z
" clip-path="url(#p9efcc86229)" style="fill: #0f9447"/>
   </g>
   <g id="patch_17">
    <path d="M 13.085959 140.767199 
L 13.085959 141.216999 
L 18.081 141.216999 
L 18.081 139.673511 
Q 17.114994 139.580717 16.063045 139.5368 
Q 15.011095 139.492174 13.773508 139.492174 
Q 12.312467 139.492174 11.147072 139.584967 
Q 9.981677 139.678469 9.163494 139.861931 
Q 8.348749 140.045393 7.912156 140.317398 
Q 7.479 140.590112 7.479 140.948536 
Q 7.479 141.309793 7.93622 141.595257 
Q 8.39344 141.880721 9.266626 142.07835 
Q 10.143251 142.276687 11.415216 142.380814 
Q 12.690619 142.484941 14.323547 142.484941 
Q 15.289553 142.484941 16.20743 142.450232 
Q 17.125307 142.416231 18.039747 142.358855 
L 18.039747 141.82122 
Q 17.245628 141.898429 16.28306 141.948014 
Q 15.320492 141.998306 14.344173 141.998306 
Q 13.354103 141.998306 12.5978 141.927472 
Q 11.841496 141.856637 11.329272 141.725593 
Q 10.820486 141.595257 10.55578 141.404711 
Q 10.294512 141.214166 10.294512 140.975453 
Q 10.294512 140.74524 10.497339 140.560362 
Q 10.700165 140.375483 11.157385 140.245855 
Q 11.614605 140.116228 12.333093 140.047518 
Q 13.055019 139.979517 14.086342 139.979517 
Q 14.33386 139.979517 14.51606 139.98235 
Q 14.698261 139.985892 14.859835 139.992267 
Q 15.021409 139.999351 15.165794 140.007851 
Q 15.310179 140.017059 15.471753 140.027684 
L 15.471753 140.767199 
L 13.085959 140.767199 
z
" clip-path="url(#p9efcc86229)" style="fill: #f5b328"/>
   </g>
   <g id="matplotlib.axis_5">
    <g id="xtick_3">
     <g id="line2d_9">
      <g>
       <use xlink:href="#m3d7992b827" x="46.26" y="158.775652" style="stroke: #000000; stroke-width: 0.8"/>
      </g>
     </g>
    </g>
   </g>
   <g id="matplotlib.axis_6">
    <g id="ytick_4">
     <g id="line2d_10">
      <g>
       <use xlink:href="#m6e4e40972e" x="51.84" y="156.486404" style="stroke: #000000; stroke-width: 0.8"/>
      </g>
     </g>
     <g id="text_5">
      <!-- −0.5 -->
      <g transform="translate(58.84 160.073123)scale(0.1 -0.1)">
       <use xlink:href="#Helvetica-2212"/>
       <use xlink:href="#Helvetica-30" x="58.398438"/>
       <use xlink:href="#Helvetica-2e" x="114.013672"/>
       <use xlink:href="#Helvetica-35" x="141.796875"/>
      </g>
     </g>
    </g>
    <g id="ytick_5">
     <g id="line2d_11">
      <g>
       <use xlink:href="#m6e4e40972e" x="51.84" y="139.492174" style="stroke: #000000; stroke-width: 0.8"/>
      </g>
     </g>
     <g id="text_6">
      <!-- 0.0 -->
      <g transform="translate(58.84 143.078893)scale(0.1 -0.1)">
       <use xlink:href="#Helvetica-30"/>
       <use xlink:href="#Helvetica-2e" x="55.615234"/>
       <use xlink:href="#Helvetica-30" x="83.398438"/>
      </g>
     </g>
    </g>
    <g id="ytick_6">
     <g id="line2d_12">
      <g>
       <use xlink:href="#m6e4e40972e" x="51.84" y="122.497943" style="stroke: #000000; stroke-width: 0.8"/>
      </g>
     </g>
     <g id="text_7">
      <!-- 0.5 -->
      <g transform="translate(58.84 126.084662)scale(0.1 -0.1)">
       <use xlink:href="#Helvetica-30"/>
       <use xlink:href="#Helvetica-2e" x="55.615234"/>
       <use xlink:href="#Helvetica-35" x="83.398438"/>
      </g>
     </g>
    </g>
    <g id="text_8">
     <!-- log2_MRL_10hpf -->
     <g transform="translate(-72.960938 142.023424)scale(0.1 -0.1)">
      <defs>
       <path id="Helvetica-31" d="M 613 3169 
L 613 3600 
Q 1222 3659 1462 3798 
Q 1703 3938 1822 4456 
L 2266 4456 
L 2266 0 
L 1666 0 
L 1666 3169 
L 613 3169 
z
" transform="scale(0.015625)"/>
      </defs>
      <use xlink:href="#Helvetica-6c"/>
      <use xlink:href="#Helvetica-6f" x="22.216797"/>
      <use xlink:href="#Helvetica-67" x="77.832031"/>
      <use xlink:href="#Helvetica-32" x="133.447266"/>
      <use xlink:href="#Helvetica-5f" x="189.0625"/>
      <use xlink:href="#Helvetica-4d" x="244.677734"/>
      <use xlink:href="#Helvetica-52" x="327.978516"/>
      <use xlink:href="#Helvetica-4c" x="400.195312"/>
      <use xlink:href="#Helvetica-5f" x="455.810547"/>
      <use xlink:href="#Helvetica-31" x="511.425781"/>
      <use xlink:href="#Helvetica-30" x="567.041016"/>
      <use xlink:href="#Helvetica-68" x="622.65625"/>
      <use xlink:href="#Helvetica-70" x="678.271484"/>
      <use xlink:href="#Helvetica-66" x="733.886719"/>
     </g>
    </g>
   </g>
   <g id="patch_18">
    <path d="M 51.84 158.775652 
L 51.84 120.208696 
" style="fill: none; stroke: #000000; stroke-linejoin: miter; stroke-linecap: square"/>
   </g>
  </g>
  <g id="axes_4">
   <g id="patch_19">
    <path d="M 7.2 205.056 
L 51.84 205.056 
L 51.84 166.489043 
L 7.2 166.489043 
z
" style="fill: #ffffff"/>
   </g>
   <g id="line2d_13">
    <path d="M 7.2 185.772522 
L 51.84 185.772522 
" clip-path="url(#p7c23d0a94a)" style="fill: none; stroke: #000000; stroke-width: 0.5; stroke-linecap: square"/>
   </g>
   <g id="patch_20">
    <path d="M 13.085959 185.676128 
L 13.085959 185.642123 
L 18.081 185.642123 
L 18.081 185.758812 
Q 17.114994 185.765828 16.063045 185.769148 
Q 15.011095 185.772522 13.773508 185.772522 
Q 12.312467 185.772522 11.147072 185.765506 
Q 9.981677 185.758438 9.163494 185.744568 
Q 8.348749 185.730698 7.912156 185.710134 
Q 7.479 185.689516 7.479 185.662419 
Q 7.479 185.635107 7.93622 185.613526 
Q 8.39344 185.591944 9.266626 185.577003 
Q 10.143251 185.562009 11.415216 185.554137 
Q 12.690619 185.546264 14.323547 185.546264 
Q 15.289553 185.546264 16.20743 185.548888 
Q 17.125307 185.551459 18.039747 185.555797 
L 18.039747 185.596443 
Q 17.245628 185.590605 16.28306 185.586857 
Q 15.320492 185.583055 14.344173 185.583055 
Q 13.354103 185.583055 12.5978 185.58841 
Q 11.841496 185.593765 11.329272 185.603672 
Q 10.820486 185.613526 10.55578 185.627931 
Q 10.294512 185.642337 10.294512 185.660384 
Q 10.294512 185.677788 10.497339 185.691765 
Q 10.700165 185.705742 11.157385 185.715542 
Q 11.614605 185.725342 12.333093 185.730537 
Q 13.055019 185.735678 14.086342 185.735678 
Q 14.33386 185.735678 14.51606 185.735464 
Q 14.698261 185.735196 14.859835 185.734714 
Q 15.021409 185.734178 15.165794 185.733536 
Q 15.310179 185.73284 15.471753 185.732036 
L 15.471753 185.676128 
L 13.085959 185.676128 
z
" clip-path="url(#p7c23d0a94a)" style="fill: #f5b328"/>
   </g>
   <g id="patch_21">
    <path d="M 26.661069 185.772522 
L 25.978146 183.53213 
L 21.652967 183.53213 
L 20.951833 185.772522 
L 18.639 185.772522 
L 22.308573 174.420463 
L 25.571427 174.420463 
L 29.241 185.772522 
L 26.661069 185.772522 
z
M 23.844391 176.505195 
L 22.214481 181.786515 
L 25.456089 181.786515 
L 23.844391 176.505195 
z
" clip-path="url(#p7c23d0a94a)" style="fill: #0f9447"/>
   </g>
   <g id="patch_22">
    <path d="M 40.401 185.634547 
Q 40.401 185.668712 40.026812 185.694643 
Q 39.656187 185.720486 38.957703 185.737743 
Q 38.262782 185.755001 37.257819 185.763761 
Q 36.25642 185.772522 35.009126 185.772522 
Q 33.608593 185.772522 32.60363 185.763761 
Q 31.602231 185.755001 30.978584 185.738619 
Q 30.354937 185.72215 30.076968 185.698585 
Q 29.799 185.67502 29.799 185.645761 
L 29.799 185.408445 
L 32.539483 185.408445 
L 32.539483 185.641643 
Q 32.539483 185.659689 32.667776 185.673706 
Q 32.79607 185.687635 33.113239 185.697359 
Q 33.430408 185.707082 33.907943 185.711988 
Q 34.385479 185.716894 35.112473 185.716894 
Q 35.789575 185.716894 36.25642 185.712689 
Q 36.726828 185.708484 37.03687 185.699023 
Q 37.350475 185.689562 37.503714 185.674757 
Q 37.660517 185.659952 37.660517 185.638928 
L 37.660517 185.408445 
L 40.401 185.408445 
L 40.401 185.634547 
z
" clip-path="url(#p7c23d0a94a)" style="fill: #e42638"/>
   </g>
   <g id="patch_23">
    <path d="M 48.981069 185.772522 
L 48.298146 185.6322 
L 43.972967 185.6322 
L 43.271833 185.772522 
L 40.959 185.772522 
L 44.628573 185.061512 
L 47.891427 185.061512 
L 51.561 185.772522 
L 48.981069 185.772522 
z
M 46.164391 185.192084 
L 44.534481 185.522868 
L 47.776089 185.522868 
L 46.164391 185.192084 
z
" clip-path="url(#p7c23d0a94a)" style="fill: #0f9447"/>
   </g>
   <g id="matplotlib.axis_7">
    <g id="xtick_4">
     <g id="line2d_14">
      <g>
       <use xlink:href="#m3d7992b827" x="46.26" y="205.056" style="stroke: #000000; stroke-width: 0.8"/>
      </g>
     </g>
     <g id="text_9">
      <!-- -1 -->
      <g transform="translate(41.814688 219.229438)scale(0.1 -0.1)">
       <defs>
        <path id="Helvetica-2d" d="M 266 2072 
L 1834 2072 
L 1834 1494 
L 266 1494 
L 266 2072 
z
" transform="scale(0.015625)"/>
       </defs>
       <use xlink:href="#Helvetica-2d"/>
       <use xlink:href="#Helvetica-31" x="33.300781"/>
      </g>
     </g>
    </g>
   </g>
   <g id="matplotlib.axis_8">
    <g id="ytick_7">
     <g id="line2d_15">
      <g>
       <use xlink:href="#m6e4e40972e" x="51.84" y="202.766752" style="stroke: #000000; stroke-width: 0.8"/>
      </g>
     </g>
     <g id="text_10">
      <!-- −0.5 -->
      <g transform="translate(58.84 206.353471)scale(0.1 -0.1)">
       <use xlink:href="#Helvetica-2212"/>
       <use xlink:href="#Helvetica-30" x="58.398438"/>
       <use xlink:href="#Helvetica-2e" x="114.013672"/>
       <use xlink:href="#Helvetica-35" x="141.796875"/>
      </g>
     </g>
    </g>
    <g id="ytick_8">
     <g id="line2d_16">
      <g>
       <use xlink:href="#m6e4e40972e" x="51.84" y="185.772522" style="stroke: #000000; stroke-width: 0.8"/>
      </g>
     </g>
     <g id="text_11">
      <!-- 0.0 -->
      <g transform="translate(58.84 189.35924)scale(0.1 -0.1)">
       <use xlink:href="#Helvetica-30"/>
       <use xlink:href="#Helvetica-2e" x="55.615234"/>
       <use xlink:href="#Helvetica-30" x="83.398438"/>
      </g>
     </g>
    </g>
    <g id="ytick_9">
     <g id="line2d_17">
      <g>
       <use xlink:href="#m6e4e40972e" x="51.84" y="168.778291" style="stroke: #000000; stroke-width: 0.8"/>
      </g>
     </g>
     <g id="text_12">
      <!-- 0.5 -->
      <g transform="translate(58.84 172.36501)scale(0.1 -0.1)">
       <use xlink:href="#Helvetica-30"/>
       <use xlink:href="#Helvetica-2e" x="55.615234"/>
       <use xlink:href="#Helvetica-35" x="83.398438"/>
      </g>
     </g>
    </g>
    <g id="text_13">
     <!-- Δlog2_MRL_10-2hpf -->
     <g transform="translate(-89.073437 188.303772)scale(0.1 -0.1)">
      <defs>
       <path id="Helvetica-394" d="M 922 500 
L 3672 500 
L 2278 3941 
L 922 500 
z
M 1966 4519 
L 2631 4519 
L 4494 0 
L 128 0 
L 1966 4519 
z
" transform="scale(0.015625)"/>
      </defs>
      <use xlink:href="#Helvetica-394"/>
      <use xlink:href="#Helvetica-6c" x="72.216797"/>
      <use xlink:href="#Helvetica-6f" x="94.433594"/>
      <use xlink:href="#Helvetica-67" x="150.048828"/>
      <use xlink:href="#Helvetica-32" x="205.664062"/>
      <use xlink:href="#Helvetica-5f" x="261.279297"/>
      <use xlink:href="#Helvetica-4d" x="316.894531"/>
      <use xlink:href="#Helvetica-52" x="400.195312"/>
      <use xlink:href="#Helvetica-4c" x="472.412109"/>
      <use xlink:href="#Helvetica-5f" x="528.027344"/>
      <use xlink:href="#Helvetica-31" x="583.642578"/>
      <use xlink:href="#Helvetica-30" x="639.257812"/>
      <use xlink:href="#Helvetica-2d" x="694.873047"/>
      <use xlink:href="#Helvetica-32" x="728.173828"/>
      <use xlink:href="#Helvetica-68" x="783.789062"/>
      <use xlink:href="#Helvetica-70" x="839.404297"/>
      <use xlink:href="#Helvetica-66" x="895.019531"/>
     </g>
    </g>
   </g>
   <g id="patch_24">
    <path d="M 51.84 205.056 
L 51.84 166.489043 
" style="fill: none; stroke: #000000; stroke-linejoin: miter; stroke-linecap: square"/>
   </g>
  </g>
 </g>
 <defs>
  <clipPath id="pe5ea477b3a">
   <rect x="7.2" y="27.648" width="44.64" height="38.566957"/>
  </clipPath>
  <clipPath id="p8d521753a8">
   <rect x="7.2" y="73.928348" width="44.64" height="38.566957"/>
  </clipPath>
  <clipPath id="p9efcc86229">
   <rect x="7.2" y="120.208696" width="44.64" height="38.566957"/>
  </clipPath>
  <clipPath id="p7c23d0a94a">
   <rect x="7.2" y="166.489043" width="44.64" height="38.566957"/>
  </clipPath>
 </defs>
</svg>
