<?xml version="1.0" encoding="utf-8" standalone="no"?>
<!DOCTYPE svg PUBLIC "-//W3C//DTD SVG 1.1//EN"
  "http://www.w3.org/Graphics/SVG/1.1/DTD/svg11.dtd">
<svg xmlns:xlink="http://www.w3.org/1999/xlink" width="57.6pt" height="230.4pt" viewBox="0 0 57.6 230.4" xmlns="http://www.w3.org/2000/svg" version="1.1">
 <metadata>
  <rdf:RDF xmlns:dc="http://purl.org/dc/elements/1.1/" xmlns:cc="http://creativecommons.org/ns#" xmlns:rdf="http://www.w3.org/1999/02/22-rdf-syntax-ns#">
   <cc:Work>
    <dc:type rdf:resource="http://purl.org/dc/dcmitype/StillImage"/>
    <dc:date>2023-11-22T21:47:08.262222</dc:date>
    <dc:format>image/svg+xml</dc:format>
    <dc:creator>
     <cc:Agent>
      <dc:title>Matplotlib v3.5.1, https://matplotlib.org/</dc:title>
     </cc:Agent>
    </dc:creator>
   </cc:Work>
  </rdf:RDF>
 </metadata>
 <defs>
  <style type="text/css">*{stroke-linejoin: round; stroke-linecap: butt}</style>
 </defs>
 <g id="figure_1">
  <g id="patch_1">
   <path d="M 0 230.4 
L 57.6 230.4 
L 57.6 0 
L 0 0 
z
" style="fill: #ffffff"/>
  </g>
  <g id="axes_1">
   <g id="patch_2">
    <path d="M 7.2 66.214957 
L 51.84 66.214957 
L 51.84 27.648 
L 7.2 27.648 
z
" style="fill: #ffffff"/>
   </g>
   <g id="line2d_1">
    <path d="M 7.2 66.214957 
L 51.84 66.214957 
" clip-path="url(#p03afd0d543)" style="fill: none; stroke: #000000; stroke-width: 0.5; stroke-linecap: square"/>
   </g>
   <g id="patch_3">
    <path d="M 13.085959 49.784064 
L 13.085959 43.98761 
L 18.081 43.98761 
L 18.081 63.878118 
Q 17.114994 65.073922 16.063045 65.639875 
Q 15.011095 66.214957 13.773508 66.214957 
Q 12.312467 66.214957 11.147072 65.019153 
Q 9.981677 63.814221 9.163494 61.449998 
Q 8.348749 59.085775 7.912156 55.580518 
Q 7.479 52.066132 7.479 47.447226 
Q 7.479 42.791806 7.93622 39.113112 
Q 8.39344 35.434417 9.266626 32.887629 
Q 10.143251 30.331712 11.415216 28.989856 
Q 12.690619 27.648 14.323547 27.648 
Q 15.289553 27.648 16.20743 28.095285 
Q 17.125307 28.533443 18.039747 29.272833 
L 18.039747 36.201192 
Q 17.245628 35.206211 16.28306 34.567231 
Q 15.320492 33.919124 14.344173 33.919124 
Q 13.354103 33.919124 12.5978 34.831951 
Q 11.841496 35.744779 11.329272 37.433509 
Q 10.820486 39.113112 10.55578 41.568617 
Q 10.294512 44.024123 10.294512 47.100351 
Q 10.294512 50.06704 10.497339 52.44952 
Q 10.700165 54.831999 11.157385 56.502473 
Q 11.614605 58.172947 12.333093 59.05839 
Q 13.055019 59.934704 14.086342 59.934704 
Q 14.33386 59.934704 14.51606 59.898191 
Q 14.698261 59.85255 14.859835 59.770395 
Q 15.021409 59.679113 15.165794 59.569573 
Q 15.310179 59.450906 15.471753 59.313982 
L 15.471753 49.784064 
L 13.085959 49.784064 
z
" clip-path="url(#p03afd0d543)" style="fill: #f5b328"/>
   </g>
   <g id="patch_4">
    <path d="M 29.241 64.239284 
Q 28.240395 65.240904 27.302328 65.72793 
Q 26.36426 66.214957 25.352619 66.214957 
Q 23.733993 66.214957 22.486915 65.029553 
Q 21.239838 63.834961 20.382702 61.482533 
Q 19.525566 59.120915 19.080443 55.638219 
Q 18.639 52.146334 18.639 47.52418 
Q 18.639 42.782567 19.120909 39.097709 
Q 19.606497 35.403661 20.50042 32.86745 
Q 21.398022 30.322049 22.678207 28.989619 
Q 23.962072 27.648 25.562305 27.648 
Q 26.077322 27.648 26.529802 27.712324 
Q 26.98596 27.767459 27.423724 27.923675 
Q 27.861489 28.079891 28.306611 28.337188 
Q 28.755412 28.594485 29.241 28.998808 
L 29.241 36.010147 
Q 28.262467 34.8615 27.375901 34.374474 
Q 26.493015 33.878259 25.768312 33.878259 
Q 24.697811 33.878259 23.94 34.843122 
Q 23.182189 35.807985 22.692922 37.544739 
Q 22.203656 39.281492 21.971898 41.679866 
Q 21.743819 44.07824 21.743819 46.945262 
Q 21.743819 49.996067 21.979255 52.394441 
Q 22.214692 54.783626 22.707637 56.456055 
Q 23.204261 58.119296 23.973108 59.001456 
Q 24.745634 59.874428 25.80142 59.874428 
Q 26.180325 59.874428 26.621769 59.690644 
Q 27.066891 59.497672 27.519371 59.194429 
Q 27.975529 58.891186 28.416972 58.477673 
Q 28.858416 58.064161 29.241 57.63227 
L 29.241 64.239284 
z
" clip-path="url(#p03afd0d543)" style="fill: #233f99"/>
   </g>
   <g id="patch_5">
    <path d="M 35.405959 49.784064 
L 35.405959 43.98761 
L 40.401 43.98761 
L 40.401 63.878118 
Q 39.434994 65.073922 38.383045 65.639875 
Q 37.331095 66.214957 36.093508 66.214957 
Q 34.632467 66.214957 33.467072 65.019153 
Q 32.301677 63.814221 31.483494 61.449998 
Q 30.668749 59.085775 30.232156 55.580518 
Q 29.799 52.066132 29.799 47.447226 
Q 29.799 42.791806 30.25622 39.113112 
Q 30.71344 35.434417 31.586626 32.887629 
Q 32.463251 30.331712 33.735216 28.989856 
Q 35.010619 27.648 36.643547 27.648 
Q 37.609553 27.648 38.52743 28.095285 
Q 39.445307 28.533443 40.359747 29.272833 
L 40.359747 36.201192 
Q 39.565628 35.206211 38.60306 34.567231 
Q 37.640492 33.919124 36.664173 33.919124 
Q 35.674103 33.919124 34.9178 34.831951 
Q 34.161496 35.744779 33.649272 37.433509 
Q 33.140486 39.113112 32.87578 41.568617 
Q 32.614512 44.024123 32.614512 47.100351 
Q 32.614512 50.06704 32.817339 52.44952 
Q 33.020165 54.831999 33.477385 56.502473 
Q 33.934605 58.172947 34.653093 59.05839 
Q 35.375019 59.934704 36.406342 59.934704 
Q 36.65386 59.934704 36.83606 59.898191 
Q 37.018261 59.85255 37.179835 59.770395 
Q 37.341409 59.679113 37.485794 59.569573 
Q 37.630179 59.450906 37.791753 59.313982 
L 37.791753 49.784064 
L 35.405959 49.784064 
z
" clip-path="url(#p03afd0d543)" style="fill: #f5b328"/>
   </g>
   <g id="patch_6">
    <path d="M 48.981069 66.214957 
L 48.298146 58.603554 
L 43.972967 58.603554 
L 43.271833 66.214957 
L 40.959 66.214957 
L 44.628573 27.648 
L 47.891427 27.648 
L 51.561 66.214957 
L 48.981069 66.214957 
z
M 46.164391 34.73057 
L 44.534481 52.673082 
L 47.776089 52.673082 
L 46.164391 34.73057 
z
" clip-path="url(#p03afd0d543)" style="fill: #0f9447"/>
   </g>
   <g id="matplotlib.axis_1">
    <g id="xtick_1">
     <g id="line2d_2">
      <defs>
       <path id="macd367a213" d="M 0 0 
L 0 3.5 
" style="stroke: #000000; stroke-width: 0.8"/>
      </defs>
      <g>
       <use xlink:href="#macd367a213" x="46.26" y="66.214957" style="stroke: #000000; stroke-width: 0.8"/>
      </g>
     </g>
    </g>
   </g>
   <g id="matplotlib.axis_2"/>
  </g>
  <g id="axes_2">
   <g id="patch_7">
    <path d="M 7.2 112.495304 
L 51.84 112.495304 
L 51.84 73.928348 
L 7.2 73.928348 
z
" style="fill: #ffffff"/>
   </g>
   <g id="line2d_3">
    <path d="M 7.2 79.271667 
L 51.84 79.271667 
" clip-path="url(#p22e5606bd0)" style="fill: none; stroke: #000000; stroke-width: 0.5; stroke-linecap: square"/>
   </g>
   <g id="patch_8">
    <path d="M 48.981069 79.271667 
L 48.298146 78.963875 
L 43.972967 78.963875 
L 43.271833 79.271667 
L 40.959 79.271667 
L 44.628573 77.712085 
L 47.891427 77.712085 
L 51.561 79.271667 
L 48.981069 79.271667 
z
M 46.164391 77.998492 
L 44.534481 78.724056 
L 47.776089 78.724056 
L 46.164391 77.998492 
z
" clip-path="url(#p22e5606bd0)" style="fill: #0f9447"/>
   </g>
   <g id="patch_9">
    <path d="M 13.085959 83.096251 
L 13.085959 84.44548 
L 18.081 84.44548 
L 18.081 79.815607 
Q 17.114994 79.537263 16.063045 79.405527 
Q 15.011095 79.271667 13.773508 79.271667 
Q 12.312467 79.271667 11.147072 79.550011 
Q 9.981677 79.830481 9.163494 80.380796 
Q 8.348749 80.931111 7.912156 81.747023 
Q 7.479 82.565059 7.479 83.640192 
Q 7.479 84.723825 7.93622 85.580107 
Q 8.39344 86.436389 9.266626 87.029199 
Q 10.143251 87.624135 11.415216 87.936476 
Q 12.690619 88.248817 14.323547 88.248817 
Q 15.289553 88.248817 16.20743 88.144703 
Q 17.125307 88.042714 18.039747 87.870608 
L 18.039747 86.257908 
Q 17.245628 86.489508 16.28306 86.638242 
Q 15.320492 86.7891 14.344173 86.7891 
Q 13.354103 86.7891 12.5978 86.576623 
Q 11.841496 86.364146 11.329272 85.971064 
Q 10.820486 85.580107 10.55578 85.008544 
Q 10.294512 84.436981 10.294512 83.720933 
Q 10.294512 83.030383 10.497339 82.475819 
Q 10.700165 81.921254 11.157385 81.532421 
Q 11.614605 81.143588 12.333093 80.937486 
Q 13.055019 80.733508 14.086342 80.733508 
Q 14.33386 80.733508 14.51606 80.742007 
Q 14.698261 80.752631 14.859835 80.771754 
Q 15.021409 80.793001 15.165794 80.818499 
Q 15.310179 80.846121 15.471753 80.877992 
L 15.471753 83.096251 
L 13.085959 83.096251 
z
" clip-path="url(#p22e5606bd0)" style="fill: #f5b328"/>
   </g>
   <g id="patch_10">
    <path d="M 29.241 80.117729 
Q 28.240395 79.688795 27.302328 79.480231 
Q 26.36426 79.271667 25.352619 79.271667 
Q 23.733993 79.271667 22.486915 79.779304 
Q 21.239838 80.290877 20.382702 81.298282 
Q 19.525566 82.309623 19.080443 83.801055 
Q 18.639 85.296422 18.639 87.275816 
Q 18.639 89.306367 19.120909 90.884372 
Q 19.606497 92.466313 20.50042 93.552422 
Q 21.398022 94.642466 22.678207 95.213067 
Q 23.962072 95.787602 25.562305 95.787602 
Q 26.077322 95.787602 26.529802 95.760056 
Q 26.98596 95.736445 27.423724 95.669547 
Q 27.861489 95.602649 28.306611 95.492464 
Q 28.755412 95.382279 29.241 95.209131 
L 29.241 92.206592 
Q 28.262467 92.698489 27.375901 92.907053 
Q 26.493015 93.119553 25.768312 93.119553 
Q 24.697811 93.119553 23.94 92.706359 
Q 23.182189 92.293166 22.692922 91.549417 
Q 22.203656 90.805669 21.971898 89.778588 
Q 21.743819 88.751507 21.743819 87.523732 
Q 21.743819 86.217253 21.979255 85.190172 
Q 22.214692 84.167026 22.707637 83.450824 
Q 23.204261 82.738557 23.973108 82.36078 
Q 24.745634 81.986938 25.80142 81.986938 
Q 26.180325 81.986938 26.621769 82.065642 
Q 27.066891 82.148281 27.519371 82.278141 
Q 27.975529 82.408002 28.416972 82.585085 
Q 28.858416 82.762168 29.241 82.947121 
L 29.241 80.117729 
z
" clip-path="url(#p22e5606bd0)" style="fill: #233f99"/>
   </g>
   <g id="patch_11">
    <path d="M 35.405959 85.563778 
L 35.405959 87.783496 
L 40.401 87.783496 
L 40.401 80.166545 
Q 39.434994 79.708619 38.383045 79.49189 
Q 37.331095 79.271667 36.093508 79.271667 
Q 34.632467 79.271667 33.467072 79.729592 
Q 32.301677 80.191014 31.483494 81.096379 
Q 30.668749 82.001744 30.232156 83.344061 
Q 29.799 84.689874 29.799 86.458657 
Q 29.799 88.241422 30.25622 89.650156 
Q 30.71344 91.058889 31.586626 92.034167 
Q 32.463251 93.01294 33.735216 93.526796 
Q 35.010619 94.040651 36.643547 94.040651 
Q 37.609553 94.040651 38.52743 93.869366 
Q 39.445307 93.701576 40.359747 93.418431 
L 40.359747 90.765258 
Q 39.565628 91.14628 38.60306 91.390973 
Q 37.640492 91.639162 36.664173 91.639162 
Q 35.674103 91.639162 34.9178 91.2896 
Q 34.161496 90.940038 33.649272 90.293349 
Q 33.140486 89.650156 32.87578 88.709834 
Q 32.614512 87.769513 32.614512 86.59149 
Q 32.614512 85.455414 32.817339 84.543058 
Q 33.020165 83.630702 33.477385 82.991004 
Q 33.934605 82.351306 34.653093 82.012231 
Q 35.375019 81.676651 36.406342 81.676651 
Q 36.65386 81.676651 36.83606 81.690634 
Q 37.018261 81.708112 37.179835 81.739573 
Q 37.341409 81.774529 37.485794 81.816476 
Q 37.630179 81.861919 37.791753 81.914353 
L 37.791753 85.563778 
L 35.405959 85.563778 
z
" clip-path="url(#p22e5606bd0)" style="fill: #f5b328"/>
   </g>
   <g id="matplotlib.axis_3">
    <g id="xtick_2">
     <g id="line2d_4">
      <g>
       <use xlink:href="#macd367a213" x="46.26" y="112.495304" style="stroke: #000000; stroke-width: 0.8"/>
      </g>
     </g>
    </g>
   </g>
   <g id="matplotlib.axis_4">
    <g id="ytick_1">
     <g id="line2d_5">
      <defs>
       <path id="m31a2c6a2d6" d="M 0 0 
L 3.5 0 
" style="stroke: #000000; stroke-width: 0.8"/>
      </defs>
      <g>
       <use xlink:href="#m31a2c6a2d6" x="51.84" y="105.956328" style="stroke: #000000; stroke-width: 0.8"/>
      </g>
     </g>
     <g id="text_1">
      <!-- −0.5 -->
      <g transform="translate(58.84 109.543047)scale(0.1 -0.1)">
       <defs>
        <path id="Helvetica-2212" d="M 3547 1894 
L 3547 1369 
L 288 1369 
L 288 1894 
L 3547 1894 
z
" transform="scale(0.015625)"/>
        <path id="Helvetica-30" d="M 1731 4475 
Q 2600 4475 2988 3759 
Q 3288 3206 3288 2244 
Q 3288 1331 3016 734 
Q 2622 -122 1728 -122 
Q 922 -122 528 578 
Q 200 1163 200 2147 
Q 200 2909 397 3456 
Q 766 4475 1731 4475 
z
M 1725 391 
Q 2163 391 2422 778 
Q 2681 1166 2681 2222 
Q 2681 2984 2493 3476 
Q 2306 3969 1766 3969 
Q 1269 3969 1039 3501 
Q 809 3034 809 2125 
Q 809 1441 956 1025 
Q 1181 391 1725 391 
z
" transform="scale(0.015625)"/>
        <path id="Helvetica-2e" d="M 547 681 
L 1200 681 
L 1200 0 
L 547 0 
L 547 681 
z
" transform="scale(0.015625)"/>
        <path id="Helvetica-35" d="M 791 1141 
Q 847 659 1238 475 
Q 1438 381 1700 381 
Q 2200 381 2440 700 
Q 2681 1019 2681 1406 
Q 2681 1875 2395 2131 
Q 2109 2388 1709 2388 
Q 1419 2388 1211 2275 
Q 1003 2163 856 1963 
L 369 1991 
L 709 4400 
L 3034 4400 
L 3034 3856 
L 1131 3856 
L 941 2613 
Q 1097 2731 1238 2791 
Q 1488 2894 1816 2894 
Q 2431 2894 2859 2497 
Q 3288 2100 3288 1491 
Q 3288 856 2895 371 
Q 2503 -113 1644 -113 
Q 1097 -113 676 195 
Q 256 503 206 1141 
L 791 1141 
z
" transform="scale(0.015625)"/>
       </defs>
       <use xlink:href="#Helvetica-2212"/>
       <use xlink:href="#Helvetica-30" x="58.398438"/>
       <use xlink:href="#Helvetica-2e" x="114.013672"/>
       <use xlink:href="#Helvetica-35" x="141.796875"/>
      </g>
     </g>
    </g>
    <g id="ytick_2">
     <g id="line2d_6">
      <g>
       <use xlink:href="#m31a2c6a2d6" x="51.84" y="79.271667" style="stroke: #000000; stroke-width: 0.8"/>
      </g>
     </g>
     <g id="text_2">
      <!-- 0.0 -->
      <g transform="translate(58.84 82.858385)scale(0.1 -0.1)">
       <use xlink:href="#Helvetica-30"/>
       <use xlink:href="#Helvetica-2e" x="55.615234"/>
       <use xlink:href="#Helvetica-30" x="83.398438"/>
      </g>
     </g>
    </g>
    <g id="text_3">
     <!-- log2_MRL_2hpf -->
     <g transform="translate(-67.4 95.743076)scale(0.1 -0.1)">
      <defs>
       <path id="Helvetica-6c" d="M 428 4591 
L 991 4591 
L 991 0 
L 428 0 
L 428 4591 
z
" transform="scale(0.015625)"/>
       <path id="Helvetica-6f" d="M 1741 363 
Q 2300 363 2508 786 
Q 2716 1209 2716 1728 
Q 2716 2197 2566 2491 
Q 2328 2953 1747 2953 
Q 1231 2953 997 2559 
Q 763 2166 763 1609 
Q 763 1075 997 719 
Q 1231 363 1741 363 
z
M 1763 3444 
Q 2409 3444 2856 3012 
Q 3303 2581 3303 1744 
Q 3303 934 2909 406 
Q 2516 -122 1688 -122 
Q 997 -122 590 345 
Q 184 813 184 1600 
Q 184 2444 612 2944 
Q 1041 3444 1763 3444 
z
M 1744 3428 
L 1744 3428 
z
" transform="scale(0.015625)"/>
       <path id="Helvetica-67" d="M 1594 3406 
Q 1988 3406 2281 3213 
Q 2441 3103 2606 2894 
L 2606 3316 
L 3125 3316 
L 3125 272 
Q 3125 -366 2938 -734 
Q 2588 -1416 1616 -1416 
Q 1075 -1416 706 -1173 
Q 338 -931 294 -416 
L 866 -416 
Q 906 -641 1028 -763 
Q 1219 -950 1628 -950 
Q 2275 -950 2475 -494 
Q 2594 -225 2584 466 
Q 2416 209 2178 84 
Q 1941 -41 1550 -41 
Q 1006 -41 598 345 
Q 191 731 191 1622 
Q 191 2463 602 2934 
Q 1013 3406 1594 3406 
z
M 2606 1688 
Q 2606 2309 2350 2609 
Q 2094 2909 1697 2909 
Q 1103 2909 884 2353 
Q 769 2056 769 1575 
Q 769 1009 998 714 
Q 1228 419 1616 419 
Q 2222 419 2469 966 
Q 2606 1275 2606 1688 
z
M 1659 3428 
L 1659 3428 
z
" transform="scale(0.015625)"/>
       <path id="Helvetica-32" d="M 200 0 
Q 231 578 439 1006 
Q 647 1434 1250 1784 
L 1850 2131 
Q 2253 2366 2416 2531 
Q 2672 2791 2672 3125 
Q 2672 3516 2437 3745 
Q 2203 3975 1813 3975 
Q 1234 3975 1013 3538 
Q 894 3303 881 2888 
L 309 2888 
Q 319 3472 525 3841 
Q 891 4491 1816 4491 
Q 2584 4491 2939 4075 
Q 3294 3659 3294 3150 
Q 3294 2613 2916 2231 
Q 2697 2009 2131 1694 
L 1703 1456 
Q 1397 1288 1222 1134 
Q 909 863 828 531 
L 3272 531 
L 3272 0 
L 200 0 
z
" transform="scale(0.015625)"/>
       <path id="Helvetica-5f" d="M 0 -800 
L 0 -484 
L 3559 -484 
L 3559 -800 
L 0 -800 
z
" transform="scale(0.015625)"/>
       <path id="Helvetica-4d" d="M 472 4591 
L 1363 4591 
L 2681 709 
L 3991 4591 
L 4872 4591 
L 4872 0 
L 4281 0 
L 4281 2709 
Q 4281 2850 4287 3175 
Q 4294 3500 4294 3872 
L 2984 0 
L 2369 0 
L 1050 3872 
L 1050 3731 
Q 1050 3563 1058 3217 
Q 1066 2872 1066 2709 
L 1066 0 
L 472 0 
L 472 4591 
z
" transform="scale(0.015625)"/>
       <path id="Helvetica-52" d="M 2622 2488 
Q 3059 2488 3314 2663 
Q 3569 2838 3569 3294 
Q 3569 3784 3213 3963 
Q 3022 4056 2703 4056 
L 1184 4056 
L 1184 2488 
L 2622 2488 
z
M 563 4591 
L 2688 4591 
Q 3213 4591 3553 4438 
Q 4200 4144 4200 3353 
Q 4200 2941 4029 2678 
Q 3859 2416 3553 2256 
Q 3822 2147 3958 1969 
Q 4094 1791 4109 1391 
L 4131 775 
Q 4141 513 4175 384 
Q 4231 166 4375 103 
L 4375 0 
L 3613 0 
Q 3581 59 3562 153 
Q 3544 247 3531 516 
L 3494 1281 
Q 3472 1731 3159 1884 
Q 2981 1969 2600 1969 
L 1184 1969 
L 1184 0 
L 563 0 
L 563 4591 
z
" transform="scale(0.015625)"/>
       <path id="Helvetica-4c" d="M 488 4591 
L 1109 4591 
L 1109 547 
L 3434 547 
L 3434 0 
L 488 0 
L 488 4591 
z
" transform="scale(0.015625)"/>
       <path id="Helvetica-68" d="M 413 4606 
L 975 4606 
L 975 2894 
Q 1175 3147 1334 3250 
Q 1606 3428 2013 3428 
Q 2741 3428 3000 2919 
Q 3141 2641 3141 2147 
L 3141 0 
L 2563 0 
L 2563 2109 
Q 2563 2478 2469 2650 
Q 2316 2925 1894 2925 
Q 1544 2925 1259 2684 
Q 975 2444 975 1775 
L 975 0 
L 413 0 
L 413 4606 
z
" transform="scale(0.015625)"/>
       <path id="Helvetica-70" d="M 1825 378 
Q 2219 378 2480 708 
Q 2741 1038 2741 1694 
Q 2741 2094 2625 2381 
Q 2406 2934 1825 2934 
Q 1241 2934 1025 2350 
Q 909 2038 909 1556 
Q 909 1169 1025 897 
Q 1244 378 1825 378 
z
M 369 3331 
L 916 3331 
L 916 2888 
Q 1084 3116 1284 3241 
Q 1569 3428 1953 3428 
Q 2522 3428 2919 2992 
Q 3316 2556 3316 1747 
Q 3316 653 2744 184 
Q 2381 -113 1900 -113 
Q 1522 -113 1266 53 
Q 1116 147 931 375 
L 931 -1334 
L 369 -1334 
L 369 3331 
z
" transform="scale(0.015625)"/>
       <path id="Helvetica-66" d="M 553 3856 
Q 566 4206 675 4369 
Q 872 4656 1434 4656 
Q 1488 4656 1544 4653 
Q 1600 4650 1672 4644 
L 1672 4131 
Q 1584 4138 1545 4139 
Q 1506 4141 1472 4141 
Q 1216 4141 1166 4008 
Q 1116 3875 1116 3331 
L 1672 3331 
L 1672 2888 
L 1109 2888 
L 1109 0 
L 553 0 
L 553 2888 
L 88 2888 
L 88 3331 
L 553 3331 
L 553 3856 
z
" transform="scale(0.015625)"/>
      </defs>
      <use xlink:href="#Helvetica-6c"/>
      <use xlink:href="#Helvetica-6f" x="22.216797"/>
      <use xlink:href="#Helvetica-67" x="77.832031"/>
      <use xlink:href="#Helvetica-32" x="133.447266"/>
      <use xlink:href="#Helvetica-5f" x="189.0625"/>
      <use xlink:href="#Helvetica-4d" x="244.677734"/>
      <use xlink:href="#Helvetica-52" x="327.978516"/>
      <use xlink:href="#Helvetica-4c" x="400.195312"/>
      <use xlink:href="#Helvetica-5f" x="455.810547"/>
      <use xlink:href="#Helvetica-32" x="511.425781"/>
      <use xlink:href="#Helvetica-68" x="567.041016"/>
      <use xlink:href="#Helvetica-70" x="622.65625"/>
      <use xlink:href="#Helvetica-66" x="678.271484"/>
     </g>
    </g>
   </g>
   <g id="patch_12">
    <path d="M 51.84 112.495304 
L 51.84 73.928348 
" style="fill: none; stroke: #000000; stroke-linejoin: miter; stroke-linecap: square"/>
   </g>
  </g>
  <g id="axes_3">
   <g id="patch_13">
    <path d="M 7.2 158.775652 
L 51.84 158.775652 
L 51.84 120.208696 
L 7.2 120.208696 
z
" style="fill: #ffffff"/>
   </g>
   <g id="line2d_7">
    <path d="M 7.2 125.552014 
L 51.84 125.552014 
" clip-path="url(#pb78beaba5e)" style="fill: none; stroke: #000000; stroke-width: 0.5; stroke-linecap: square"/>
   </g>
   <g id="patch_14">
    <path d="M 48.981069 125.552014 
L 48.298146 124.918675 
L 43.972967 124.918675 
L 43.271833 125.552014 
L 40.959 125.552014 
L 44.628573 122.342888 
L 47.891427 122.342888 
L 51.561 125.552014 
L 48.981069 125.552014 
z
M 46.164391 122.932223 
L 44.534481 124.425205 
L 47.776089 124.425205 
L 46.164391 122.932223 
z
" clip-path="url(#pb78beaba5e)" style="fill: #0f9447"/>
   </g>
   <g id="patch_15">
    <path d="M 13.085959 129.366428 
L 13.085959 130.712069 
L 18.081 130.712069 
L 18.081 126.094509 
Q 17.114994 125.816904 16.063045 125.685519 
Q 15.011095 125.552014 13.773508 125.552014 
Q 12.312467 125.552014 11.147072 125.829619 
Q 9.981677 126.109343 9.163494 126.658194 
Q 8.348749 127.207046 7.912156 128.020788 
Q 7.479 128.836649 7.479 129.908923 
Q 7.479 130.989673 7.93622 131.843678 
Q 8.39344 132.697683 9.266626 133.288917 
Q 10.143251 133.88227 11.415216 134.193781 
Q 12.690619 134.505291 14.323547 134.505291 
Q 15.289553 134.505291 16.20743 134.401455 
Q 17.125307 134.299737 18.039747 134.128088 
L 18.039747 132.519677 
Q 17.245628 132.750661 16.28306 132.898999 
Q 15.320492 133.049457 14.344173 133.049457 
Q 13.354103 133.049457 12.5978 132.837545 
Q 11.841496 132.625633 11.329272 132.233596 
Q 10.820486 131.843678 10.55578 131.273635 
Q 10.294512 130.703592 10.294512 129.989449 
Q 10.294512 129.300736 10.497339 128.747646 
Q 10.700165 128.194556 11.157385 127.806757 
Q 11.614605 127.418958 12.333093 127.213403 
Q 13.055019 127.009968 14.086342 127.009968 
Q 14.33386 127.009968 14.51606 127.018445 
Q 14.698261 127.02904 14.859835 127.048112 
Q 15.021409 127.069303 15.165794 127.094733 
Q 15.310179 127.122281 15.471753 127.154068 
L 15.471753 129.366428 
L 13.085959 129.366428 
z
" clip-path="url(#pb78beaba5e)" style="fill: #f5b328"/>
   </g>
   <g id="patch_16">
    <path d="M 29.241 127.253964 
Q 28.240395 126.391115 27.302328 125.971565 
Q 26.36426 125.552014 25.352619 125.552014 
Q 23.733993 125.552014 22.486915 126.573184 
Q 21.239838 127.60227 20.382702 129.628777 
Q 19.525566 131.663201 19.080443 134.663381 
Q 18.639 137.671478 18.639 141.653248 
Q 18.639 145.737927 19.120909 148.912261 
Q 19.606497 152.094511 20.50042 154.279339 
Q 21.398022 156.472083 22.678207 157.61991 
Q 23.962072 158.775652 25.562305 158.775652 
Q 26.077322 158.775652 26.529802 158.72024 
Q 26.98596 158.672744 27.423724 158.538171 
Q 27.861489 158.403598 28.306611 158.181949 
Q 28.755412 157.9603 29.241 157.611994 
L 29.241 151.572052 
Q 28.262467 152.561557 27.375901 152.981108 
Q 26.493015 153.408574 25.768312 153.408574 
Q 24.697811 153.408574 23.94 152.57739 
Q 23.182189 151.746205 22.692922 150.250072 
Q 22.203656 148.75394 21.971898 146.687853 
Q 21.743819 144.621765 21.743819 142.151959 
Q 21.743819 139.523832 21.979255 137.457745 
Q 22.214692 135.399573 22.707637 133.958853 
Q 23.204261 132.526049 23.973108 131.766109 
Q 24.745634 131.014085 25.80142 131.014085 
Q 26.180325 131.014085 26.621769 131.172406 
Q 27.066891 131.338643 27.519371 131.599872 
Q 27.975529 131.861102 28.416972 132.217324 
Q 28.858416 132.573546 29.241 132.9456 
L 29.241 127.253964 
z
" clip-path="url(#pb78beaba5e)" style="fill: #233f99"/>
   </g>
   <g id="patch_17">
    <path d="M 35.405959 134.848671 
L 35.405959 138.128325 
L 40.401 138.128325 
L 40.401 126.874206 
Q 39.434994 126.197615 38.383045 125.877397 
Q 37.331095 125.552014 36.093508 125.552014 
Q 34.632467 125.552014 33.467072 126.228604 
Q 32.301677 126.910359 31.483494 128.248045 
Q 30.668749 129.58573 30.232156 131.569017 
Q 29.799 133.557469 29.799 136.170862 
Q 29.799 138.804915 30.25622 140.886333 
Q 30.71344 142.967751 31.586626 144.408733 
Q 32.463251 145.85488 33.735216 146.614107 
Q 35.010619 147.373334 36.643547 147.373334 
Q 37.609553 147.373334 38.52743 147.120258 
Q 39.445307 146.872347 40.359747 146.453997 
L 40.359747 142.533907 
Q 39.565628 143.096871 38.60306 143.458408 
Q 37.640492 143.82511 36.664173 143.82511 
Q 35.674103 143.82511 34.9178 143.308629 
Q 34.161496 142.792148 33.649272 141.836658 
Q 33.140486 140.886333 32.87578 139.496999 
Q 32.614512 138.107666 32.614512 136.367125 
Q 32.614512 134.688562 32.817339 133.340547 
Q 33.020165 131.992532 33.477385 131.047371 
Q 33.934605 130.102211 34.653093 129.601225 
Q 35.375019 129.105403 36.406342 129.105403 
Q 36.65386 129.105403 36.83606 129.126062 
Q 37.018261 129.151886 37.179835 129.19837 
Q 37.341409 129.250018 37.485794 129.311995 
Q 37.630179 129.379138 37.791753 129.45661 
L 37.791753 134.848671 
L 35.405959 134.848671 
z
" clip-path="url(#pb78beaba5e)" style="fill: #f5b328"/>
   </g>
   <g id="matplotlib.axis_5">
    <g id="xtick_3">
     <g id="line2d_8">
      <g>
       <use xlink:href="#macd367a213" x="46.26" y="158.775652" style="stroke: #000000; stroke-width: 0.8"/>
      </g>
     </g>
    </g>
   </g>
   <g id="matplotlib.axis_6">
    <g id="ytick_3">
     <g id="line2d_9">
      <g>
       <use xlink:href="#m31a2c6a2d6" x="51.84" y="152.236676" style="stroke: #000000; stroke-width: 0.8"/>
      </g>
     </g>
     <g id="text_4">
      <!-- −0.5 -->
      <g transform="translate(58.84 155.823395)scale(0.1 -0.1)">
       <use xlink:href="#Helvetica-2212"/>
       <use xlink:href="#Helvetica-30" x="58.398438"/>
       <use xlink:href="#Helvetica-2e" x="114.013672"/>
       <use xlink:href="#Helvetica-35" x="141.796875"/>
      </g>
     </g>
    </g>
    <g id="ytick_4">
     <g id="line2d_10">
      <g>
       <use xlink:href="#m31a2c6a2d6" x="51.84" y="125.552014" style="stroke: #000000; stroke-width: 0.8"/>
      </g>
     </g>
     <g id="text_5">
      <!-- 0.0 -->
      <g transform="translate(58.84 129.138733)scale(0.1 -0.1)">
       <use xlink:href="#Helvetica-30"/>
       <use xlink:href="#Helvetica-2e" x="55.615234"/>
       <use xlink:href="#Helvetica-30" x="83.398438"/>
      </g>
     </g>
    </g>
    <g id="text_6">
     <!-- log2_MRL_10hpf -->
     <g transform="translate(-72.960938 142.023424)scale(0.1 -0.1)">
      <defs>
       <path id="Helvetica-31" d="M 613 3169 
L 613 3600 
Q 1222 3659 1462 3798 
Q 1703 3938 1822 4456 
L 2266 4456 
L 2266 0 
L 1666 0 
L 1666 3169 
L 613 3169 
z
" transform="scale(0.015625)"/>
      </defs>
      <use xlink:href="#Helvetica-6c"/>
      <use xlink:href="#Helvetica-6f" x="22.216797"/>
      <use xlink:href="#Helvetica-67" x="77.832031"/>
      <use xlink:href="#Helvetica-32" x="133.447266"/>
      <use xlink:href="#Helvetica-5f" x="189.0625"/>
      <use xlink:href="#Helvetica-4d" x="244.677734"/>
      <use xlink:href="#Helvetica-52" x="327.978516"/>
      <use xlink:href="#Helvetica-4c" x="400.195312"/>
      <use xlink:href="#Helvetica-5f" x="455.810547"/>
      <use xlink:href="#Helvetica-31" x="511.425781"/>
      <use xlink:href="#Helvetica-30" x="567.041016"/>
      <use xlink:href="#Helvetica-68" x="622.65625"/>
      <use xlink:href="#Helvetica-70" x="678.271484"/>
      <use xlink:href="#Helvetica-66" x="733.886719"/>
     </g>
    </g>
   </g>
   <g id="patch_18">
    <path d="M 51.84 158.775652 
L 51.84 120.208696 
" style="fill: none; stroke: #000000; stroke-linejoin: miter; stroke-linecap: square"/>
   </g>
  </g>
  <g id="axes_4">
   <g id="patch_19">
    <path d="M 7.2 205.056 
L 51.84 205.056 
L 51.84 166.489043 
L 7.2 166.489043 
z
" style="fill: #ffffff"/>
   </g>
   <g id="line2d_11">
    <path d="M 7.2 171.832362 
L 51.84 171.832362 
" clip-path="url(#pa3483f03c4)" style="fill: none; stroke: #000000; stroke-width: 0.5; stroke-linecap: square"/>
   </g>
   <g id="patch_20">
    <path d="M 13.085959 171.822205 
L 13.085959 171.818622 
L 18.081 171.818622 
L 18.081 171.830918 
Q 17.114994 171.831657 16.063045 171.832007 
Q 15.011095 171.832362 13.773508 171.832362 
Q 12.312467 171.832362 11.147072 171.831623 
Q 9.981677 171.830878 9.163494 171.829417 
Q 8.348749 171.827955 7.912156 171.825788 
Q 7.479 171.823616 7.479 171.820761 
Q 7.479 171.817883 7.93622 171.815609 
Q 8.39344 171.813335 9.266626 171.81176 
Q 10.143251 171.81018 11.415216 171.809351 
Q 12.690619 171.808521 14.323547 171.808521 
Q 15.289553 171.808521 16.20743 171.808798 
Q 17.125307 171.809069 18.039747 171.809526 
L 18.039747 171.813809 
Q 17.245628 171.813193 16.28306 171.812799 
Q 15.320492 171.812398 14.344173 171.812398 
Q 13.354103 171.812398 12.5978 171.812962 
Q 11.841496 171.813526 11.329272 171.81457 
Q 10.820486 171.815609 10.55578 171.817127 
Q 10.294512 171.818644 10.294512 171.820546 
Q 10.294512 171.82238 10.497339 171.823853 
Q 10.700165 171.825326 11.157385 171.826358 
Q 11.614605 171.827391 12.333093 171.827938 
Q 13.055019 171.82848 14.086342 171.82848 
Q 14.33386 171.82848 14.51606 171.828457 
Q 14.698261 171.828429 14.859835 171.828378 
Q 15.021409 171.828322 15.165794 171.828254 
Q 15.310179 171.828181 15.471753 171.828096 
L 15.471753 171.822205 
L 13.085959 171.822205 
z
" clip-path="url(#pa3483f03c4)" style="fill: #f5b328"/>
   </g>
   <g id="patch_21">
    <path d="M 48.981069 171.832362 
L 48.298146 171.484739 
L 43.972967 171.484739 
L 43.271833 171.832362 
L 40.959 171.832362 
L 44.628573 170.070956 
L 47.891427 170.070956 
L 51.561 171.832362 
L 48.981069 171.832362 
z
M 46.164391 170.394427 
L 44.534481 171.213886 
L 47.776089 171.213886 
L 46.164391 170.394427 
z
" clip-path="url(#pa3483f03c4)" style="fill: #0f9447"/>
   </g>
   <g id="patch_22">
    <path d="M 29.241 172.688249 
Q 28.240395 172.254334 27.302328 172.043348 
Q 26.36426 171.832362 25.352619 171.832362 
Q 23.733993 171.832362 22.486915 172.345894 
Q 21.239838 172.863407 20.382702 173.882509 
Q 19.525566 174.905592 19.080443 176.414341 
Q 18.639 177.927071 18.639 179.929447 
Q 18.639 181.983575 19.120909 183.579903 
Q 19.606497 185.180212 20.50042 186.278931 
Q 21.398022 187.381632 22.678207 187.958857 
Q 23.962072 188.540064 25.562305 188.540064 
Q 26.077322 188.540064 26.529802 188.512198 
Q 26.98596 188.488313 27.423724 188.420638 
Q 27.861489 188.352963 28.306611 188.241499 
Q 28.755412 188.130035 29.241 187.954877 
L 29.241 184.917474 
Q 28.262467 185.415083 27.375901 185.626069 
Q 26.493015 185.841036 25.768312 185.841036 
Q 24.697811 185.841036 23.94 185.423045 
Q 23.182189 185.005054 22.692922 184.25267 
Q 22.203656 183.500286 21.971898 182.461279 
Q 21.743819 181.422273 21.743819 180.180242 
Q 21.743819 178.858594 21.979255 177.819587 
Q 22.214692 176.784562 22.707637 176.060044 
Q 23.204261 175.339507 23.973108 174.957343 
Q 24.745634 174.579161 25.80142 174.579161 
Q 26.180325 174.579161 26.621769 174.658778 
Q 27.066891 174.742376 27.519371 174.873745 
Q 27.975529 175.005114 28.416972 175.184253 
Q 28.858416 175.363392 29.241 175.550493 
L 29.241 172.688249 
z
" clip-path="url(#pa3483f03c4)" style="fill: #233f99"/>
   </g>
   <g id="patch_23">
    <path d="M 35.405959 174.836907 
L 35.405959 175.896844 
L 40.401 175.896844 
L 40.401 172.259675 
Q 39.434994 172.041011 38.383045 171.937521 
Q 37.331095 171.832362 36.093508 171.832362 
Q 34.632467 171.832362 33.467072 172.051026 
Q 32.301677 172.27136 31.483494 172.70368 
Q 30.668749 173.136001 30.232156 173.77697 
Q 29.799 174.419609 29.799 175.26422 
Q 29.799 176.115508 30.25622 176.788192 
Q 30.71344 177.460876 31.586626 177.926581 
Q 32.463251 178.393954 33.735216 178.639325 
Q 35.010619 178.884697 36.643547 178.884697 
Q 37.609553 178.884697 38.52743 178.802906 
Q 39.445307 178.722785 40.359747 178.58758 
L 40.359747 177.320664 
Q 39.565628 177.502606 38.60306 177.619449 
Q 37.640492 177.737962 36.664173 177.737962 
Q 35.674103 177.737962 34.9178 177.571043 
Q 34.161496 177.404124 33.649272 177.095323 
Q 33.140486 176.788192 32.87578 176.339179 
Q 32.614512 175.890167 32.614512 175.327649 
Q 32.614512 174.785162 32.817339 174.349503 
Q 33.020165 173.913844 33.477385 173.608382 
Q 33.934605 173.30292 34.653093 173.141008 
Q 35.375019 172.980766 36.406342 172.980766 
Q 36.65386 172.980766 36.83606 172.987443 
Q 37.018261 172.995789 37.179835 173.010811 
Q 37.341409 173.027503 37.485794 173.047534 
Q 37.630179 173.069233 37.791753 173.094271 
L 37.791753 174.836907 
L 35.405959 174.836907 
z
" clip-path="url(#pa3483f03c4)" style="fill: #f5b328"/>
   </g>
   <g id="matplotlib.axis_7">
    <g id="xtick_4">
     <g id="line2d_12">
      <g>
       <use xlink:href="#macd367a213" x="46.26" y="205.056" style="stroke: #000000; stroke-width: 0.8"/>
      </g>
     </g>
     <g id="text_7">
      <!-- -1 -->
      <g transform="translate(41.814688 219.229438)scale(0.1 -0.1)">
       <defs>
        <path id="Helvetica-2d" d="M 266 2072 
L 1834 2072 
L 1834 1494 
L 266 1494 
L 266 2072 
z
" transform="scale(0.015625)"/>
       </defs>
       <use xlink:href="#Helvetica-2d"/>
       <use xlink:href="#Helvetica-31" x="33.300781"/>
      </g>
     </g>
    </g>
   </g>
   <g id="matplotlib.axis_8">
    <g id="ytick_5">
     <g id="line2d_13">
      <g>
       <use xlink:href="#m31a2c6a2d6" x="51.84" y="198.517024" style="stroke: #000000; stroke-width: 0.8"/>
      </g>
     </g>
     <g id="text_8">
      <!-- −0.5 -->
      <g transform="translate(58.84 202.103742)scale(0.1 -0.1)">
       <use xlink:href="#Helvetica-2212"/>
       <use xlink:href="#Helvetica-30" x="58.398438"/>
       <use xlink:href="#Helvetica-2e" x="114.013672"/>
       <use xlink:href="#Helvetica-35" x="141.796875"/>
      </g>
     </g>
    </g>
    <g id="ytick_6">
     <g id="line2d_14">
      <g>
       <use xlink:href="#m31a2c6a2d6" x="51.84" y="171.832362" style="stroke: #000000; stroke-width: 0.8"/>
      </g>
     </g>
     <g id="text_9">
      <!-- 0.0 -->
      <g transform="translate(58.84 175.419081)scale(0.1 -0.1)">
       <use xlink:href="#Helvetica-30"/>
       <use xlink:href="#Helvetica-2e" x="55.615234"/>
       <use xlink:href="#Helvetica-30" x="83.398438"/>
      </g>
     </g>
    </g>
    <g id="text_10">
     <!-- Δlog2_MRL_10-2hpf -->
     <g transform="translate(-89.073437 188.303772)scale(0.1 -0.1)">
      <defs>
       <path id="Helvetica-394" d="M 922 500 
L 3672 500 
L 2278 3941 
L 922 500 
z
M 1966 4519 
L 2631 4519 
L 4494 0 
L 128 0 
L 1966 4519 
z
" transform="scale(0.015625)"/>
      </defs>
      <use xlink:href="#Helvetica-394"/>
      <use xlink:href="#Helvetica-6c" x="72.216797"/>
      <use xlink:href="#Helvetica-6f" x="94.433594"/>
      <use xlink:href="#Helvetica-67" x="150.048828"/>
      <use xlink:href="#Helvetica-32" x="205.664062"/>
      <use xlink:href="#Helvetica-5f" x="261.279297"/>
      <use xlink:href="#Helvetica-4d" x="316.894531"/>
      <use xlink:href="#Helvetica-52" x="400.195312"/>
      <use xlink:href="#Helvetica-4c" x="472.412109"/>
      <use xlink:href="#Helvetica-5f" x="528.027344"/>
      <use xlink:href="#Helvetica-31" x="583.642578"/>
      <use xlink:href="#Helvetica-30" x="639.257812"/>
      <use xlink:href="#Helvetica-2d" x="694.873047"/>
      <use xlink:href="#Helvetica-32" x="728.173828"/>
      <use xlink:href="#Helvetica-68" x="783.789062"/>
      <use xlink:href="#Helvetica-70" x="839.404297"/>
      <use xlink:href="#Helvetica-66" x="895.019531"/>
     </g>
    </g>
   </g>
   <g id="patch_24">
    <path d="M 51.84 205.056 
L 51.84 166.489043 
" style="fill: none; stroke: #000000; stroke-linejoin: miter; stroke-linecap: square"/>
   </g>
  </g>
 </g>
 <defs>
  <clipPath id="p03afd0d543">
   <rect x="7.2" y="27.648" width="44.64" height="38.566957"/>
  </clipPath>
  <clipPath id="p22e5606bd0">
   <rect x="7.2" y="73.928348" width="44.64" height="38.566957"/>
  </clipPath>
  <clipPath id="pb78beaba5e">
   <rect x="7.2" y="120.208696" width="44.64" height="38.566957"/>
  </clipPath>
  <clipPath id="pa3483f03c4">
   <rect x="7.2" y="166.489043" width="44.64" height="38.566957"/>
  </clipPath>
 </defs>
</svg>
