<?xml version="1.0" encoding="utf-8" standalone="no"?>
<!DOCTYPE svg PUBLIC "-//W3C//DTD SVG 1.1//EN"
  "http://www.w3.org/Graphics/SVG/1.1/DTD/svg11.dtd">
<svg xmlns:xlink="http://www.w3.org/1999/xlink" width="57.6pt" height="230.4pt" viewBox="0 0 57.6 230.4" xmlns="http://www.w3.org/2000/svg" version="1.1">
 <metadata>
  <rdf:RDF xmlns:dc="http://purl.org/dc/elements/1.1/" xmlns:cc="http://creativecommons.org/ns#" xmlns:rdf="http://www.w3.org/1999/02/22-rdf-syntax-ns#">
   <cc:Work>
    <dc:type rdf:resource="http://purl.org/dc/dcmitype/StillImage"/>
    <dc:date>2023-11-22T21:47:13.746806</dc:date>
    <dc:format>image/svg+xml</dc:format>
    <dc:creator>
     <cc:Agent>
      <dc:title>Matplotlib v3.5.1, https://matplotlib.org/</dc:title>
     </cc:Agent>
    </dc:creator>
   </cc:Work>
  </rdf:RDF>
 </metadata>
 <defs>
  <style type="text/css">*{stroke-linejoin: round; stroke-linecap: butt}</style>
 </defs>
 <g id="figure_1">
  <g id="patch_1">
   <path d="M 0 230.4 
L 57.6 230.4 
L 57.6 0 
L 0 0 
z
" style="fill: #ffffff"/>
  </g>
  <g id="axes_1">
   <g id="patch_2">
    <path d="M 7.2 66.214957 
L 51.84 66.214957 
L 51.84 27.648 
L 7.2 27.648 
z
" style="fill: #ffffff"/>
   </g>
   <g id="line2d_1">
    <path d="M 7.2 66.214957 
L 51.84 66.214957 
" clip-path="url(#p3534ff4f52)" style="fill: none; stroke: #000000; stroke-width: 0.5; stroke-linecap: square"/>
   </g>
   <g id="patch_3">
    <path d="M 13.085959 49.784064 
L 13.085959 43.98761 
L 18.081 43.98761 
L 18.081 63.878118 
Q 17.114994 65.073922 16.063045 65.639875 
Q 15.011095 66.214957 13.773508 66.214957 
Q 12.312467 66.214957 11.147072 65.019153 
Q 9.981677 63.814221 9.163494 61.449998 
Q 8.348749 59.085775 7.912156 55.580518 
Q 7.479 52.066132 7.479 47.447226 
Q 7.479 42.791806 7.93622 39.113112 
Q 8.39344 35.434417 9.266626 32.887629 
Q 10.143251 30.331712 11.415216 28.989856 
Q 12.690619 27.648 14.323547 27.648 
Q 15.289553 27.648 16.20743 28.095285 
Q 17.125307 28.533443 18.039747 29.272833 
L 18.039747 36.201192 
Q 17.245628 35.206211 16.28306 34.567231 
Q 15.320492 33.919124 14.344173 33.919124 
Q 13.354103 33.919124 12.5978 34.831951 
Q 11.841496 35.744779 11.329272 37.433509 
Q 10.820486 39.113112 10.55578 41.568617 
Q 10.294512 44.024123 10.294512 47.100351 
Q 10.294512 50.06704 10.497339 52.44952 
Q 10.700165 54.831999 11.157385 56.502473 
Q 11.614605 58.172947 12.333093 59.05839 
Q 13.055019 59.934704 14.086342 59.934704 
Q 14.33386 59.934704 14.51606 59.898191 
Q 14.698261 59.85255 14.859835 59.770395 
Q 15.021409 59.679113 15.165794 59.569573 
Q 15.310179 59.450906 15.471753 59.313982 
L 15.471753 49.784064 
L 13.085959 49.784064 
z
" clip-path="url(#p3534ff4f52)" style="fill: #f5b328"/>
   </g>
   <g id="patch_4">
    <path d="M 29.241 64.239284 
Q 28.240395 65.240904 27.302328 65.72793 
Q 26.36426 66.214957 25.352619 66.214957 
Q 23.733993 66.214957 22.486915 65.029553 
Q 21.239838 63.834961 20.382702 61.482533 
Q 19.525566 59.120915 19.080443 55.638219 
Q 18.639 52.146334 18.639 47.52418 
Q 18.639 42.782567 19.120909 39.097709 
Q 19.606497 35.403661 20.50042 32.86745 
Q 21.398022 30.322049 22.678207 28.989619 
Q 23.962072 27.648 25.562305 27.648 
Q 26.077322 27.648 26.529802 27.712324 
Q 26.98596 27.767459 27.423724 27.923675 
Q 27.861489 28.079891 28.306611 28.337188 
Q 28.755412 28.594485 29.241 28.998808 
L 29.241 36.010147 
Q 28.262467 34.8615 27.375901 34.374474 
Q 26.493015 33.878259 25.768312 33.878259 
Q 24.697811 33.878259 23.94 34.843122 
Q 23.182189 35.807985 22.692922 37.544739 
Q 22.203656 39.281492 21.971898 41.679866 
Q 21.743819 44.07824 21.743819 46.945262 
Q 21.743819 49.996067 21.979255 52.394441 
Q 22.214692 54.783626 22.707637 56.456055 
Q 23.204261 58.119296 23.973108 59.001456 
Q 24.745634 59.874428 25.80142 59.874428 
Q 26.180325 59.874428 26.621769 59.690644 
Q 27.066891 59.497672 27.519371 59.194429 
Q 27.975529 58.891186 28.416972 58.477673 
Q 28.858416 58.064161 29.241 57.63227 
L 29.241 64.239284 
z
" clip-path="url(#p3534ff4f52)" style="fill: #233f99"/>
   </g>
   <g id="patch_5">
    <path d="M 37.821069 66.214957 
L 37.138146 58.603554 
L 32.812967 58.603554 
L 32.111833 66.214957 
L 29.799 66.214957 
L 33.468573 27.648 
L 36.731427 27.648 
L 40.401 66.214957 
L 37.821069 66.214957 
z
M 35.004391 34.73057 
L 33.374481 52.673082 
L 36.616089 52.673082 
L 35.004391 34.73057 
z
" clip-path="url(#p3534ff4f52)" style="fill: #0f9447"/>
   </g>
   <g id="patch_6">
    <path d="M 48.981069 66.214957 
L 48.298146 58.603554 
L 43.972967 58.603554 
L 43.271833 66.214957 
L 40.959 66.214957 
L 44.628573 27.648 
L 47.891427 27.648 
L 51.561 66.214957 
L 48.981069 66.214957 
z
M 46.164391 34.73057 
L 44.534481 52.673082 
L 47.776089 52.673082 
L 46.164391 34.73057 
z
" clip-path="url(#p3534ff4f52)" style="fill: #0f9447"/>
   </g>
   <g id="matplotlib.axis_1">
    <g id="xtick_1">
     <g id="line2d_2">
      <defs>
       <path id="mc1d61be633" d="M 0 0 
L 0 3.5 
" style="stroke: #000000; stroke-width: 0.8"/>
      </defs>
      <g>
       <use xlink:href="#mc1d61be633" x="46.26" y="66.214957" style="stroke: #000000; stroke-width: 0.8"/>
      </g>
     </g>
    </g>
   </g>
   <g id="matplotlib.axis_2"/>
  </g>
  <g id="axes_2">
   <g id="patch_7">
    <path d="M 7.2 112.495304 
L 51.84 112.495304 
L 51.84 73.928348 
L 7.2 73.928348 
z
" style="fill: #ffffff"/>
   </g>
   <g id="line2d_3">
    <path d="M 7.2 82.384283 
L 51.84 82.384283 
" clip-path="url(#pd0f471ea53)" style="fill: none; stroke: #000000; stroke-width: 0.5; stroke-linecap: square"/>
   </g>
   <g id="patch_8">
    <path d="M 37.821069 82.384283 
L 37.138146 81.959387 
L 32.812967 81.959387 
L 32.111833 82.384283 
L 29.799 82.384283 
L 33.468573 80.231338 
L 36.731427 80.231338 
L 40.401 82.384283 
L 37.821069 82.384283 
z
M 35.004391 80.626712 
L 33.374481 81.628327 
L 36.616089 81.628327 
L 35.004391 80.626712 
z
" clip-path="url(#pd0f471ea53)" style="fill: #0f9447"/>
   </g>
   <g id="patch_9">
    <path d="M 48.981069 82.384283 
L 48.298146 81.786436 
L 43.972967 81.786436 
L 43.271833 82.384283 
L 40.959 82.384283 
L 44.628573 79.354994 
L 47.891427 79.354994 
L 51.561 82.384283 
L 48.981069 82.384283 
z
M 46.164391 79.911303 
L 44.534481 81.32062 
L 47.776089 81.32062 
L 46.164391 79.911303 
z
" clip-path="url(#pd0f471ea53)" style="fill: #0f9447"/>
   </g>
   <g id="patch_10">
    <path d="M 13.085959 87.307768 
L 13.085959 89.044664 
L 18.081 89.044664 
L 18.081 83.084512 
Q 17.114994 82.726191 16.063045 82.556605 
Q 15.011095 82.384283 13.773508 82.384283 
Q 12.312467 82.384283 11.147072 82.742603 
Q 9.981677 83.103659 9.163494 83.812093 
Q 8.348749 84.520528 7.912156 85.570872 
Q 7.479 86.623951 7.479 88.007997 
Q 7.479 89.402984 7.93622 90.505298 
Q 8.39344 91.607612 9.266626 92.370752 
Q 10.143251 93.136627 11.415216 93.538712 
Q 12.690619 93.940797 14.323547 93.940797 
Q 15.289553 93.940797 16.20743 93.806768 
Q 17.125307 93.675476 18.039747 93.453919 
L 18.039747 91.377849 
Q 17.245628 91.675993 16.28306 91.867462 
Q 15.320492 92.061666 14.344173 92.061666 
Q 13.354103 92.061666 12.5978 91.788139 
Q 11.841496 91.514613 11.329272 91.008588 
Q 10.820486 90.505298 10.55578 89.769511 
Q 10.294512 89.033723 10.294512 88.111937 
Q 10.294512 87.222975 10.497339 86.509069 
Q 10.700165 85.795164 11.157385 85.29461 
Q 11.614605 84.794055 12.333093 84.528734 
Q 13.055019 84.266148 14.086342 84.266148 
Q 14.33386 84.266148 14.51606 84.277089 
Q 14.698261 84.290766 14.859835 84.315383 
Q 15.021409 84.342736 15.165794 84.375559 
Q 15.310179 84.411117 15.471753 84.452146 
L 15.471753 87.307768 
L 13.085959 87.307768 
z
" clip-path="url(#pd0f471ea53)" style="fill: #f5b328"/>
   </g>
   <g id="patch_11">
    <path d="M 29.241 83.01641 
Q 28.240395 82.695936 27.302328 82.540109 
Q 26.36426 82.384283 25.352619 82.384283 
Q 23.733993 82.384283 22.486915 82.763559 
Q 21.239838 83.145776 20.382702 83.898449 
Q 19.525566 84.654062 19.080443 85.76837 
Q 18.639 86.885619 18.639 88.364503 
Q 18.639 89.88161 19.120909 91.060601 
Q 19.606497 92.242533 20.50042 93.054008 
Q 21.398022 93.868423 22.678207 94.294742 
Q 23.962072 94.724001 25.562305 94.724001 
Q 26.077322 94.724001 26.529802 94.70342 
Q 26.98596 94.685779 27.423724 94.635797 
Q 27.861489 94.585815 28.306611 94.503491 
Q 28.755412 94.421168 29.241 94.291802 
L 29.241 92.048484 
Q 28.262467 92.416 27.375901 92.571827 
Q 26.493015 92.730594 25.768312 92.730594 
Q 24.697811 92.730594 23.94 92.42188 
Q 23.182189 92.113167 22.692922 91.557483 
Q 22.203656 91.001798 21.971898 90.234425 
Q 21.743819 89.467052 21.743819 88.549732 
Q 21.743819 87.573609 21.979255 86.806236 
Q 22.214692 86.041802 22.707637 85.506699 
Q 23.204261 84.974536 23.973108 84.692283 
Q 24.745634 84.412971 25.80142 84.412971 
Q 26.180325 84.412971 26.621769 84.471774 
Q 27.066891 84.533516 27.519371 84.630541 
Q 27.975529 84.727565 28.416972 84.859871 
Q 28.858416 84.992176 29.241 85.130362 
L 29.241 83.01641 
z
" clip-path="url(#pd0f471ea53)" style="fill: #233f99"/>
   </g>
   <g id="matplotlib.axis_3">
    <g id="xtick_2">
     <g id="line2d_4">
      <g>
       <use xlink:href="#mc1d61be633" x="46.26" y="112.495304" style="stroke: #000000; stroke-width: 0.8"/>
      </g>
     </g>
    </g>
   </g>
   <g id="matplotlib.axis_4">
    <g id="ytick_1">
     <g id="line2d_5">
      <defs>
       <path id="ma1424cb738" d="M 0 0 
L 3.5 0 
" style="stroke: #000000; stroke-width: 0.8"/>
      </defs>
      <g>
       <use xlink:href="#ma1424cb738" x="51.84" y="99.213336" style="stroke: #000000; stroke-width: 0.8"/>
      </g>
     </g>
     <g id="text_1">
      <!-- −0.25 -->
      <g transform="translate(58.84 102.800055)scale(0.1 -0.1)">
       <defs>
        <path id="Helvetica-2212" d="M 3547 1894 
L 3547 1369 
L 288 1369 
L 288 1894 
L 3547 1894 
z
" transform="scale(0.015625)"/>
        <path id="Helvetica-30" d="M 1731 4475 
Q 2600 4475 2988 3759 
Q 3288 3206 3288 2244 
Q 3288 1331 3016 734 
Q 2622 -122 1728 -122 
Q 922 -122 528 578 
Q 200 1163 200 2147 
Q 200 2909 397 3456 
Q 766 4475 1731 4475 
z
M 1725 391 
Q 2163 391 2422 778 
Q 2681 1166 2681 2222 
Q 2681 2984 2493 3476 
Q 2306 3969 1766 3969 
Q 1269 3969 1039 3501 
Q 809 3034 809 2125 
Q 809 1441 956 1025 
Q 1181 391 1725 391 
z
" transform="scale(0.015625)"/>
        <path id="Helvetica-2e" d="M 547 681 
L 1200 681 
L 1200 0 
L 547 0 
L 547 681 
z
" transform="scale(0.015625)"/>
        <path id="Helvetica-32" d="M 200 0 
Q 231 578 439 1006 
Q 647 1434 1250 1784 
L 1850 2131 
Q 2253 2366 2416 2531 
Q 2672 2791 2672 3125 
Q 2672 3516 2437 3745 
Q 2203 3975 1813 3975 
Q 1234 3975 1013 3538 
Q 894 3303 881 2888 
L 309 2888 
Q 319 3472 525 3841 
Q 891 4491 1816 4491 
Q 2584 4491 2939 4075 
Q 3294 3659 3294 3150 
Q 3294 2613 2916 2231 
Q 2697 2009 2131 1694 
L 1703 1456 
Q 1397 1288 1222 1134 
Q 909 863 828 531 
L 3272 531 
L 3272 0 
L 200 0 
z
" transform="scale(0.015625)"/>
        <path id="Helvetica-35" d="M 791 1141 
Q 847 659 1238 475 
Q 1438 381 1700 381 
Q 2200 381 2440 700 
Q 2681 1019 2681 1406 
Q 2681 1875 2395 2131 
Q 2109 2388 1709 2388 
Q 1419 2388 1211 2275 
Q 1003 2163 856 1963 
L 369 1991 
L 709 4400 
L 3034 4400 
L 3034 3856 
L 1131 3856 
L 941 2613 
Q 1097 2731 1238 2791 
Q 1488 2894 1816 2894 
Q 2431 2894 2859 2497 
Q 3288 2100 3288 1491 
Q 3288 856 2895 371 
Q 2503 -113 1644 -113 
Q 1097 -113 676 195 
Q 256 503 206 1141 
L 791 1141 
z
" transform="scale(0.015625)"/>
       </defs>
       <use xlink:href="#Helvetica-2212"/>
       <use xlink:href="#Helvetica-30" x="58.398438"/>
       <use xlink:href="#Helvetica-2e" x="114.013672"/>
       <use xlink:href="#Helvetica-32" x="141.796875"/>
       <use xlink:href="#Helvetica-35" x="197.412109"/>
      </g>
     </g>
    </g>
    <g id="ytick_2">
     <g id="line2d_6">
      <g>
       <use xlink:href="#ma1424cb738" x="51.84" y="82.384283" style="stroke: #000000; stroke-width: 0.8"/>
      </g>
     </g>
     <g id="text_2">
      <!-- 0.00 -->
      <g transform="translate(58.84 85.971001)scale(0.1 -0.1)">
       <use xlink:href="#Helvetica-30"/>
       <use xlink:href="#Helvetica-2e" x="55.615234"/>
       <use xlink:href="#Helvetica-30" x="83.398438"/>
       <use xlink:href="#Helvetica-30" x="139.013672"/>
      </g>
     </g>
    </g>
    <g id="text_3">
     <!-- log2_MRL_2hpf -->
     <g transform="translate(-67.4 95.743076)scale(0.1 -0.1)">
      <defs>
       <path id="Helvetica-6c" d="M 428 4591 
L 991 4591 
L 991 0 
L 428 0 
L 428 4591 
z
" transform="scale(0.015625)"/>
       <path id="Helvetica-6f" d="M 1741 363 
Q 2300 363 2508 786 
Q 2716 1209 2716 1728 
Q 2716 2197 2566 2491 
Q 2328 2953 1747 2953 
Q 1231 2953 997 2559 
Q 763 2166 763 1609 
Q 763 1075 997 719 
Q 1231 363 1741 363 
z
M 1763 3444 
Q 2409 3444 2856 3012 
Q 3303 2581 3303 1744 
Q 3303 934 2909 406 
Q 2516 -122 1688 -122 
Q 997 -122 590 345 
Q 184 813 184 1600 
Q 184 2444 612 2944 
Q 1041 3444 1763 3444 
z
M 1744 3428 
L 1744 3428 
z
" transform="scale(0.015625)"/>
       <path id="Helvetica-67" d="M 1594 3406 
Q 1988 3406 2281 3213 
Q 2441 3103 2606 2894 
L 2606 3316 
L 3125 3316 
L 3125 272 
Q 3125 -366 2938 -734 
Q 2588 -1416 1616 -1416 
Q 1075 -1416 706 -1173 
Q 338 -931 294 -416 
L 866 -416 
Q 906 -641 1028 -763 
Q 1219 -950 1628 -950 
Q 2275 -950 2475 -494 
Q 2594 -225 2584 466 
Q 2416 209 2178 84 
Q 1941 -41 1550 -41 
Q 1006 -41 598 345 
Q 191 731 191 1622 
Q 191 2463 602 2934 
Q 1013 3406 1594 3406 
z
M 2606 1688 
Q 2606 2309 2350 2609 
Q 2094 2909 1697 2909 
Q 1103 2909 884 2353 
Q 769 2056 769 1575 
Q 769 1009 998 714 
Q 1228 419 1616 419 
Q 2222 419 2469 966 
Q 2606 1275 2606 1688 
z
M 1659 3428 
L 1659 3428 
z
" transform="scale(0.015625)"/>
       <path id="Helvetica-5f" d="M 0 -800 
L 0 -484 
L 3559 -484 
L 3559 -800 
L 0 -800 
z
" transform="scale(0.015625)"/>
       <path id="Helvetica-4d" d="M 472 4591 
L 1363 4591 
L 2681 709 
L 3991 4591 
L 4872 4591 
L 4872 0 
L 4281 0 
L 4281 2709 
Q 4281 2850 4287 3175 
Q 4294 3500 4294 3872 
L 2984 0 
L 2369 0 
L 1050 3872 
L 1050 3731 
Q 1050 3563 1058 3217 
Q 1066 2872 1066 2709 
L 1066 0 
L 472 0 
L 472 4591 
z
" transform="scale(0.015625)"/>
       <path id="Helvetica-52" d="M 2622 2488 
Q 3059 2488 3314 2663 
Q 3569 2838 3569 3294 
Q 3569 3784 3213 3963 
Q 3022 4056 2703 4056 
L 1184 4056 
L 1184 2488 
L 2622 2488 
z
M 563 4591 
L 2688 4591 
Q 3213 4591 3553 4438 
Q 4200 4144 4200 3353 
Q 4200 2941 4029 2678 
Q 3859 2416 3553 2256 
Q 3822 2147 3958 1969 
Q 4094 1791 4109 1391 
L 4131 775 
Q 4141 513 4175 384 
Q 4231 166 4375 103 
L 4375 0 
L 3613 0 
Q 3581 59 3562 153 
Q 3544 247 3531 516 
L 3494 1281 
Q 3472 1731 3159 1884 
Q 2981 1969 2600 1969 
L 1184 1969 
L 1184 0 
L 563 0 
L 563 4591 
z
" transform="scale(0.015625)"/>
       <path id="Helvetica-4c" d="M 488 4591 
L 1109 4591 
L 1109 547 
L 3434 547 
L 3434 0 
L 488 0 
L 488 4591 
z
" transform="scale(0.015625)"/>
       <path id="Helvetica-68" d="M 413 4606 
L 975 4606 
L 975 2894 
Q 1175 3147 1334 3250 
Q 1606 3428 2013 3428 
Q 2741 3428 3000 2919 
Q 3141 2641 3141 2147 
L 3141 0 
L 2563 0 
L 2563 2109 
Q 2563 2478 2469 2650 
Q 2316 2925 1894 2925 
Q 1544 2925 1259 2684 
Q 975 2444 975 1775 
L 975 0 
L 413 0 
L 413 4606 
z
" transform="scale(0.015625)"/>
       <path id="Helvetica-70" d="M 1825 378 
Q 2219 378 2480 708 
Q 2741 1038 2741 1694 
Q 2741 2094 2625 2381 
Q 2406 2934 1825 2934 
Q 1241 2934 1025 2350 
Q 909 2038 909 1556 
Q 909 1169 1025 897 
Q 1244 378 1825 378 
z
M 369 3331 
L 916 3331 
L 916 2888 
Q 1084 3116 1284 3241 
Q 1569 3428 1953 3428 
Q 2522 3428 2919 2992 
Q 3316 2556 3316 1747 
Q 3316 653 2744 184 
Q 2381 -113 1900 -113 
Q 1522 -113 1266 53 
Q 1116 147 931 375 
L 931 -1334 
L 369 -1334 
L 369 3331 
z
" transform="scale(0.015625)"/>
       <path id="Helvetica-66" d="M 553 3856 
Q 566 4206 675 4369 
Q 872 4656 1434 4656 
Q 1488 4656 1544 4653 
Q 1600 4650 1672 4644 
L 1672 4131 
Q 1584 4138 1545 4139 
Q 1506 4141 1472 4141 
Q 1216 4141 1166 4008 
Q 1116 3875 1116 3331 
L 1672 3331 
L 1672 2888 
L 1109 2888 
L 1109 0 
L 553 0 
L 553 2888 
L 88 2888 
L 88 3331 
L 553 3331 
L 553 3856 
z
" transform="scale(0.015625)"/>
      </defs>
      <use xlink:href="#Helvetica-6c"/>
      <use xlink:href="#Helvetica-6f" x="22.216797"/>
      <use xlink:href="#Helvetica-67" x="77.832031"/>
      <use xlink:href="#Helvetica-32" x="133.447266"/>
      <use xlink:href="#Helvetica-5f" x="189.0625"/>
      <use xlink:href="#Helvetica-4d" x="244.677734"/>
      <use xlink:href="#Helvetica-52" x="327.978516"/>
      <use xlink:href="#Helvetica-4c" x="400.195312"/>
      <use xlink:href="#Helvetica-5f" x="455.810547"/>
      <use xlink:href="#Helvetica-32" x="511.425781"/>
      <use xlink:href="#Helvetica-68" x="567.041016"/>
      <use xlink:href="#Helvetica-70" x="622.65625"/>
      <use xlink:href="#Helvetica-66" x="678.271484"/>
     </g>
    </g>
   </g>
   <g id="patch_12">
    <path d="M 51.84 112.495304 
L 51.84 73.928348 
" style="fill: none; stroke: #000000; stroke-linejoin: miter; stroke-linecap: square"/>
   </g>
  </g>
  <g id="axes_3">
   <g id="patch_13">
    <path d="M 7.2 158.775652 
L 51.84 158.775652 
L 51.84 120.208696 
L 7.2 120.208696 
z
" style="fill: #ffffff"/>
   </g>
   <g id="line2d_7">
    <path d="M 7.2 128.664631 
L 51.84 128.664631 
" clip-path="url(#p4af95a9c3d)" style="fill: none; stroke: #000000; stroke-width: 0.5; stroke-linecap: square"/>
   </g>
   <g id="patch_14">
    <path d="M 37.821069 128.664631 
L 37.138146 127.620934 
L 32.812967 127.620934 
L 32.111833 128.664631 
L 29.799 128.664631 
L 33.468573 123.376223 
L 36.731427 123.376223 
L 40.401 128.664631 
L 37.821069 128.664631 
z
M 35.004391 124.347405 
L 33.374481 126.807731 
L 36.616089 126.807731 
L 35.004391 124.347405 
z
" clip-path="url(#p4af95a9c3d)" style="fill: #0f9447"/>
   </g>
   <g id="patch_15">
    <path d="M 48.981069 128.664631 
L 48.298146 127.374493 
L 43.972967 127.374493 
L 43.271833 128.664631 
L 40.959 128.664631 
L 44.628573 122.127505 
L 47.891427 122.127505 
L 51.561 128.664631 
L 48.981069 128.664631 
z
M 46.164391 123.328006 
L 44.534481 126.369274 
L 47.776089 126.369274 
L 46.164391 123.328006 
z
" clip-path="url(#p4af95a9c3d)" style="fill: #0f9447"/>
   </g>
   <g id="patch_16">
    <path d="M 13.085959 138.198129 
L 13.085959 141.561336 
L 18.081 141.561336 
L 18.081 130.020506 
Q 17.114994 129.326679 16.063045 128.998303 
Q 15.011095 128.664631 13.773508 128.664631 
Q 12.312467 128.664631 11.147072 129.358457 
Q 9.981677 130.057581 9.163494 131.429345 
Q 8.348749 132.80111 7.912156 134.834923 
Q 7.479 136.874032 7.479 139.554005 
Q 7.479 142.255163 7.93622 144.389607 
Q 8.39344 146.524052 9.266626 148.001744 
Q 10.143251 149.484733 11.415216 150.263302 
Q 12.690619 151.041871 14.323547 151.041871 
Q 15.289553 151.041871 16.20743 150.782348 
Q 17.125307 150.528121 18.039747 150.099114 
L 18.039747 146.079155 
Q 17.245628 146.656461 16.28306 147.027208 
Q 15.320492 147.403252 14.344173 147.403252 
Q 13.354103 147.403252 12.5978 146.873613 
Q 11.841496 146.343974 11.329272 145.364143 
Q 10.820486 144.389607 10.55578 142.964879 
Q 10.294512 141.54015 10.294512 139.755267 
Q 10.294512 138.033941 10.497339 136.651584 
Q 10.700165 135.269227 11.157385 134.299988 
Q 11.614605 133.330749 12.333093 132.816999 
Q 13.055019 132.308546 14.086342 132.308546 
Q 14.33386 132.308546 14.51606 132.329731 
Q 14.698261 132.356213 14.859835 132.403881 
Q 15.021409 132.456844 15.165794 132.520401 
Q 15.310179 132.589254 15.471753 132.6687 
L 15.471753 138.198129 
L 13.085959 138.198129 
z
" clip-path="url(#p4af95a9c3d)" style="fill: #f5b328"/>
   </g>
   <g id="patch_17">
    <path d="M 29.241 130.20713 
Q 28.240395 129.425119 27.302328 129.044875 
Q 26.36426 128.664631 25.352619 128.664631 
Q 23.733993 128.664631 22.486915 129.59013 
Q 21.239838 130.522804 20.382702 132.359454 
Q 19.525566 134.203279 19.080443 136.922383 
Q 18.639 139.648661 18.639 143.257392 
Q 18.639 146.95939 19.120909 149.836331 
Q 19.606497 152.720446 20.50042 154.700584 
Q 21.398022 156.687897 22.678207 157.728188 
Q 23.962072 158.775652 25.562305 158.775652 
Q 26.077322 158.775652 26.529802 158.725431 
Q 26.98596 158.682385 27.423724 158.56042 
Q 27.861489 158.438455 28.306611 158.237571 
Q 28.755412 158.036687 29.241 157.721013 
L 29.241 152.246934 
Q 28.262467 153.143736 27.375901 153.52398 
Q 26.493015 153.911398 25.768312 153.911398 
Q 24.697811 153.911398 23.94 153.158085 
Q 23.182189 152.404771 22.692922 151.048807 
Q 22.203656 149.692842 21.971898 147.82032 
Q 21.743819 145.947797 21.743819 143.70938 
Q 21.743819 141.327474 21.979255 139.454951 
Q 22.214692 137.589603 22.707637 136.28386 
Q 23.204261 134.985291 23.973108 134.296547 
Q 24.745634 133.614977 25.80142 133.614977 
Q 26.180325 133.614977 26.621769 133.758465 
Q 27.066891 133.909128 27.519371 134.145884 
Q 27.975529 134.38264 28.416972 134.705488 
Q 28.858416 135.028337 29.241 135.365535 
L 29.241 130.20713 
z
" clip-path="url(#p4af95a9c3d)" style="fill: #233f99"/>
   </g>
   <g id="matplotlib.axis_5">
    <g id="xtick_3">
     <g id="line2d_8">
      <g>
       <use xlink:href="#mc1d61be633" x="46.26" y="158.775652" style="stroke: #000000; stroke-width: 0.8"/>
      </g>
     </g>
    </g>
   </g>
   <g id="matplotlib.axis_6">
    <g id="ytick_3">
     <g id="line2d_9">
      <g>
       <use xlink:href="#ma1424cb738" x="51.84" y="145.493684" style="stroke: #000000; stroke-width: 0.8"/>
      </g>
     </g>
     <g id="text_4">
      <!-- −0.25 -->
      <g transform="translate(58.84 149.080402)scale(0.1 -0.1)">
       <use xlink:href="#Helvetica-2212"/>
       <use xlink:href="#Helvetica-30" x="58.398438"/>
       <use xlink:href="#Helvetica-2e" x="114.013672"/>
       <use xlink:href="#Helvetica-32" x="141.796875"/>
       <use xlink:href="#Helvetica-35" x="197.412109"/>
      </g>
     </g>
    </g>
    <g id="ytick_4">
     <g id="line2d_10">
      <g>
       <use xlink:href="#ma1424cb738" x="51.84" y="128.664631" style="stroke: #000000; stroke-width: 0.8"/>
      </g>
     </g>
     <g id="text_5">
      <!-- 0.00 -->
      <g transform="translate(58.84 132.251349)scale(0.1 -0.1)">
       <use xlink:href="#Helvetica-30"/>
       <use xlink:href="#Helvetica-2e" x="55.615234"/>
       <use xlink:href="#Helvetica-30" x="83.398438"/>
       <use xlink:href="#Helvetica-30" x="139.013672"/>
      </g>
     </g>
    </g>
    <g id="text_6">
     <!-- log2_MRL_10hpf -->
     <g transform="translate(-72.960938 142.023424)scale(0.1 -0.1)">
      <defs>
       <path id="Helvetica-31" d="M 613 3169 
L 613 3600 
Q 1222 3659 1462 3798 
Q 1703 3938 1822 4456 
L 2266 4456 
L 2266 0 
L 1666 0 
L 1666 3169 
L 613 3169 
z
" transform="scale(0.015625)"/>
      </defs>
      <use xlink:href="#Helvetica-6c"/>
      <use xlink:href="#Helvetica-6f" x="22.216797"/>
      <use xlink:href="#Helvetica-67" x="77.832031"/>
      <use xlink:href="#Helvetica-32" x="133.447266"/>
      <use xlink:href="#Helvetica-5f" x="189.0625"/>
      <use xlink:href="#Helvetica-4d" x="244.677734"/>
      <use xlink:href="#Helvetica-52" x="327.978516"/>
      <use xlink:href="#Helvetica-4c" x="400.195312"/>
      <use xlink:href="#Helvetica-5f" x="455.810547"/>
      <use xlink:href="#Helvetica-31" x="511.425781"/>
      <use xlink:href="#Helvetica-30" x="567.041016"/>
      <use xlink:href="#Helvetica-68" x="622.65625"/>
      <use xlink:href="#Helvetica-70" x="678.271484"/>
      <use xlink:href="#Helvetica-66" x="733.886719"/>
     </g>
    </g>
   </g>
   <g id="patch_18">
    <path d="M 51.84 158.775652 
L 51.84 120.208696 
" style="fill: none; stroke: #000000; stroke-linejoin: miter; stroke-linecap: square"/>
   </g>
  </g>
  <g id="axes_4">
   <g id="patch_19">
    <path d="M 7.2 205.056 
L 51.84 205.056 
L 51.84 166.489043 
L 7.2 166.489043 
z
" style="fill: #ffffff"/>
   </g>
   <g id="line2d_11">
    <path d="M 7.2 174.944978 
L 51.84 174.944978 
" clip-path="url(#p3877670689)" style="fill: none; stroke: #000000; stroke-width: 0.5; stroke-linecap: square"/>
   </g>
   <g id="patch_20">
    <path d="M 37.821069 174.944978 
L 37.138146 174.28398 
L 32.812967 174.28398 
L 32.111833 174.944978 
L 29.799 174.944978 
L 33.468573 171.595701 
L 36.731427 171.595701 
L 40.401 174.944978 
L 37.821069 174.944978 
z
M 35.004391 172.210774 
L 33.374481 173.768959 
L 36.616089 173.768959 
L 35.004391 172.210774 
z
" clip-path="url(#p3877670689)" style="fill: #0f9447"/>
   </g>
   <g id="patch_21">
    <path d="M 48.981069 174.944978 
L 48.298146 174.189871 
L 43.972967 174.189871 
L 43.271833 174.944978 
L 40.959 174.944978 
L 44.628573 171.118852 
L 47.891427 171.118852 
L 51.561 174.944978 
L 48.981069 174.944978 
z
M 46.164391 171.821495 
L 44.534481 173.601525 
L 47.776089 173.601525 
L 46.164391 171.821495 
z
" clip-path="url(#p3877670689)" style="fill: #0f9447"/>
   </g>
   <g id="patch_22">
    <path d="M 13.085959 179.554992 
L 13.085959 181.181302 
L 18.081 181.181302 
L 18.081 175.600625 
Q 17.114994 175.265118 16.063045 175.106329 
Q 15.011095 174.944978 13.773508 174.944978 
Q 12.312467 174.944978 11.147072 175.280485 
Q 9.981677 175.618553 9.163494 176.281882 
Q 8.348749 176.945212 7.912156 177.928682 
Q 7.479 178.914712 7.479 180.210638 
Q 7.479 181.516809 7.93622 182.54894 
Q 8.39344 183.58107 9.266626 184.295622 
Q 10.143251 185.012736 11.415216 185.38922 
Q 12.690619 185.765705 14.323547 185.765705 
Q 15.289553 185.765705 16.20743 185.64021 
Q 17.125307 185.517276 18.039747 185.309825 
L 18.039747 183.365936 
Q 17.245628 183.645098 16.28306 183.824377 
Q 15.320492 184.006216 14.344173 184.006216 
Q 13.354103 184.006216 12.5978 183.750104 
Q 11.841496 183.493992 11.329272 183.020185 
Q 10.820486 182.54894 10.55578 181.859999 
Q 10.294512 181.171058 10.294512 180.307961 
Q 10.294512 179.475597 10.497339 178.807145 
Q 10.700165 178.138693 11.157385 177.670009 
Q 11.614605 177.201324 12.333093 176.952895 
Q 13.055019 176.707028 14.086342 176.707028 
Q 14.33386 176.707028 14.51606 176.717272 
Q 14.698261 176.730078 14.859835 176.753128 
Q 15.021409 176.778739 15.165794 176.809473 
Q 15.310179 176.842767 15.471753 176.881184 
L 15.471753 179.554992 
L 13.085959 179.554992 
z
" clip-path="url(#p3877670689)" style="fill: #f5b328"/>
   </g>
   <g id="patch_23">
    <path d="M 29.241 175.85535 
Q 28.240395 175.393813 27.302328 175.169396 
Q 26.36426 174.944978 25.352619 174.944978 
Q 23.733993 174.944978 22.486915 175.491201 
Q 21.239838 176.041659 20.382702 177.125636 
Q 19.525566 178.213848 19.080443 179.818643 
Q 18.639 181.427672 18.639 183.557519 
Q 18.639 185.742411 19.120909 187.44036 
Q 19.606497 189.142543 20.50042 190.311207 
Q 21.398022 191.484104 22.678207 192.098076 
Q 23.962072 192.716282 25.562305 192.716282 
Q 26.077322 192.716282 26.529802 192.686642 
Q 26.98596 192.661236 27.423724 192.589253 
Q 27.861489 192.51727 28.306611 192.39871 
Q 28.755412 192.28015 29.241 192.093842 
L 29.241 188.863081 
Q 28.262467 189.392366 27.375901 189.616784 
Q 26.493015 189.845435 25.768312 189.845435 
Q 24.697811 189.845435 23.94 189.400835 
Q 23.182189 188.956235 22.692922 188.155955 
Q 22.203656 187.355674 21.971898 186.250525 
Q 21.743819 185.145376 21.743819 183.824279 
Q 21.743819 182.418495 21.979255 181.313346 
Q 22.214692 180.212432 22.707637 179.441791 
Q 23.204261 178.675385 23.973108 178.268894 
Q 24.745634 177.866637 25.80142 177.866637 
Q 26.180325 177.866637 26.621769 177.951322 
Q 27.066891 178.040242 27.519371 178.179974 
Q 27.975529 178.319705 28.416972 178.510248 
Q 28.858416 178.700791 29.241 178.899803 
L 29.241 175.85535 
z
" clip-path="url(#p3877670689)" style="fill: #233f99"/>
   </g>
   <g id="matplotlib.axis_7">
    <g id="xtick_4">
     <g id="line2d_12">
      <g>
       <use xlink:href="#mc1d61be633" x="46.26" y="205.056" style="stroke: #000000; stroke-width: 0.8"/>
      </g>
     </g>
     <g id="text_7">
      <!-- -1 -->
      <g transform="translate(41.814688 219.229438)scale(0.1 -0.1)">
       <defs>
        <path id="Helvetica-2d" d="M 266 2072 
L 1834 2072 
L 1834 1494 
L 266 1494 
L 266 2072 
z
" transform="scale(0.015625)"/>
       </defs>
       <use xlink:href="#Helvetica-2d"/>
       <use xlink:href="#Helvetica-31" x="33.300781"/>
      </g>
     </g>
    </g>
   </g>
   <g id="matplotlib.axis_8">
    <g id="ytick_5">
     <g id="line2d_13">
      <g>
       <use xlink:href="#ma1424cb738" x="51.84" y="191.774032" style="stroke: #000000; stroke-width: 0.8"/>
      </g>
     </g>
     <g id="text_8">
      <!-- −0.25 -->
      <g transform="translate(58.84 195.36075)scale(0.1 -0.1)">
       <use xlink:href="#Helvetica-2212"/>
       <use xlink:href="#Helvetica-30" x="58.398438"/>
       <use xlink:href="#Helvetica-2e" x="114.013672"/>
       <use xlink:href="#Helvetica-32" x="141.796875"/>
       <use xlink:href="#Helvetica-35" x="197.412109"/>
      </g>
     </g>
    </g>
    <g id="ytick_6">
     <g id="line2d_14">
      <g>
       <use xlink:href="#ma1424cb738" x="51.84" y="174.944978" style="stroke: #000000; stroke-width: 0.8"/>
      </g>
     </g>
     <g id="text_9">
      <!-- 0.00 -->
      <g transform="translate(58.84 178.531697)scale(0.1 -0.1)">
       <use xlink:href="#Helvetica-30"/>
       <use xlink:href="#Helvetica-2e" x="55.615234"/>
       <use xlink:href="#Helvetica-30" x="83.398438"/>
       <use xlink:href="#Helvetica-30" x="139.013672"/>
      </g>
     </g>
    </g>
    <g id="text_10">
     <!-- Δlog2_MRL_10-2hpf -->
     <g transform="translate(-89.073437 188.303772)scale(0.1 -0.1)">
      <defs>
       <path id="Helvetica-394" d="M 922 500 
L 3672 500 
L 2278 3941 
L 922 500 
z
M 1966 4519 
L 2631 4519 
L 4494 0 
L 128 0 
L 1966 4519 
z
" transform="scale(0.015625)"/>
      </defs>
      <use xlink:href="#Helvetica-394"/>
      <use xlink:href="#Helvetica-6c" x="72.216797"/>
      <use xlink:href="#Helvetica-6f" x="94.433594"/>
      <use xlink:href="#Helvetica-67" x="150.048828"/>
      <use xlink:href="#Helvetica-32" x="205.664062"/>
      <use xlink:href="#Helvetica-5f" x="261.279297"/>
      <use xlink:href="#Helvetica-4d" x="316.894531"/>
      <use xlink:href="#Helvetica-52" x="400.195312"/>
      <use xlink:href="#Helvetica-4c" x="472.412109"/>
      <use xlink:href="#Helvetica-5f" x="528.027344"/>
      <use xlink:href="#Helvetica-31" x="583.642578"/>
      <use xlink:href="#Helvetica-30" x="639.257812"/>
      <use xlink:href="#Helvetica-2d" x="694.873047"/>
      <use xlink:href="#Helvetica-32" x="728.173828"/>
      <use xlink:href="#Helvetica-68" x="783.789062"/>
      <use xlink:href="#Helvetica-70" x="839.404297"/>
      <use xlink:href="#Helvetica-66" x="895.019531"/>
     </g>
    </g>
   </g>
   <g id="patch_24">
    <path d="M 51.84 205.056 
L 51.84 166.489043 
" style="fill: none; stroke: #000000; stroke-linejoin: miter; stroke-linecap: square"/>
   </g>
  </g>
 </g>
 <defs>
  <clipPath id="p3534ff4f52">
   <rect x="7.2" y="27.648" width="44.64" height="38.566957"/>
  </clipPath>
  <clipPath id="pd0f471ea53">
   <rect x="7.2" y="73.928348" width="44.64" height="38.566957"/>
  </clipPath>
  <clipPath id="p4af95a9c3d">
   <rect x="7.2" y="120.208696" width="44.64" height="38.566957"/>
  </clipPath>
  <clipPath id="p3877670689">
   <rect x="7.2" y="166.489043" width="44.64" height="38.566957"/>
  </clipPath>
 </defs>
</svg>
